<svg xmlns="http://www.w3.org/2000/svg" xmlns:xlink="http://www.w3.org/1999/xlink" width="1100" zoomAndPan="magnify" viewBox="0 0 824.88 225" height="300" preserveAspectRatio="xMidYMid meet" version="1.0"><defs><g/><clipPath id="417955cb7f"><path d="M 140.4375 45 L 199 45 L 199 105 L 140.4375 105 Z M 140.4375 45 " clip-rule="nonzero"/></clipPath><clipPath id="c74e0b47e4"><path d="M 186 25.039062 L 209 25.039062 L 209 51 L 186 51 Z M 186 25.039062 " clip-rule="nonzero"/></clipPath></defs><g fill="#000000" fill-opacity="1"><g transform="translate(5.841942, 123.489385)"><g><path d="M 9.296875 0 L 9.296875 -70.953125 L 25.46875 -70.953125 L 27.03125 -61.375 C 29.320312 -64.8125 32.351562 -67.550781 36.125 -69.59375 C 39.894531 -71.644531 44.257812 -72.671875 49.21875 -72.671875 C 60.1875 -72.671875 67.957031 -68.425781 72.53125 -59.9375 C 75.101562 -63.851562 78.5625 -66.953125 82.90625 -69.234375 C 87.25 -71.523438 91.992188 -72.671875 97.140625 -72.671875 C 106.390625 -72.671875 113.492188 -69.90625 118.453125 -64.375 C 123.410156 -58.84375 125.890625 -50.738281 125.890625 -40.0625 L 125.890625 0 L 107.578125 0 L 107.578125 -38.34375 C 107.578125 -44.445312 106.410156 -49.117188 104.078125 -52.359375 C 101.742188 -55.597656 98.144531 -57.21875 93.28125 -57.21875 C 88.320312 -57.21875 84.335938 -55.40625 81.328125 -51.78125 C 78.328125 -48.164062 76.828125 -43.113281 76.828125 -36.625 L 76.828125 0 L 58.515625 0 L 58.515625 -38.34375 C 58.515625 -44.445312 57.320312 -49.117188 54.9375 -52.359375 C 52.550781 -55.597656 48.878906 -57.21875 43.921875 -57.21875 C 39.054688 -57.21875 35.117188 -55.40625 32.109375 -51.78125 C 29.109375 -48.164062 27.609375 -43.113281 27.609375 -36.625 L 27.609375 0 Z M 9.296875 0 "/></g></g></g><g fill="#000000" fill-opacity="1"><g transform="translate(132.033305, 123.489385)"><g/></g></g><g fill="#000000" fill-opacity="1"><g transform="translate(158.211969, 123.489385)"><g/></g></g><g fill="#000000" fill-opacity="1"><g transform="translate(184.390632, 123.489385)"><g/></g></g><g fill="#000000" fill-opacity="1"><g transform="translate(210.584114, 123.489385)"><g><path d="M 9.296875 31.46875 L 9.296875 -70.953125 L 25.609375 -70.953125 L 27.609375 -60.796875 C 29.898438 -63.941406 32.925781 -66.707031 36.6875 -69.09375 C 40.457031 -71.476562 45.347656 -72.671875 51.359375 -72.671875 C 58.035156 -72.671875 63.992188 -71.050781 69.234375 -67.8125 C 74.484375 -64.570312 78.632812 -60.132812 81.6875 -54.5 C 84.738281 -48.875 86.265625 -42.488281 86.265625 -35.34375 C 86.265625 -28.1875 84.738281 -21.816406 81.6875 -16.234375 C 78.632812 -10.660156 74.484375 -6.273438 69.234375 -3.078125 C 63.992188 0.117188 58.035156 1.71875 51.359375 1.71875 C 46.015625 1.71875 41.335938 0.71875 37.328125 -1.28125 C 33.328125 -3.289062 30.085938 -6.109375 27.609375 -9.734375 L 27.609375 31.46875 Z M 47.5 -14.3125 C 53.3125 -14.3125 58.125 -16.265625 61.9375 -20.171875 C 65.757812 -24.078125 67.671875 -29.132812 67.671875 -35.34375 C 67.671875 -41.539062 65.757812 -46.640625 61.9375 -50.640625 C 58.125 -54.648438 53.3125 -56.65625 47.5 -56.65625 C 41.582031 -56.65625 36.738281 -54.675781 32.96875 -50.71875 C 29.207031 -46.757812 27.328125 -41.679688 27.328125 -35.484375 C 27.328125 -29.285156 29.207031 -24.207031 32.96875 -20.25 C 36.738281 -16.289062 41.582031 -14.3125 47.5 -14.3125 Z M 47.5 -14.3125 "/></g></g></g><g fill="#000000" fill-opacity="1"><g transform="translate(295.988665, 123.489385)"><g/></g></g><g fill="#000000" fill-opacity="1"><g transform="translate(322.167329, 123.489385)"><g><path d="M 9.296875 0 L 9.296875 -70.953125 L 25.46875 -70.953125 L 27.03125 -61.375 C 29.320312 -64.8125 32.351562 -67.550781 36.125 -69.59375 C 39.894531 -71.644531 44.257812 -72.671875 49.21875 -72.671875 C 60.1875 -72.671875 67.957031 -68.425781 72.53125 -59.9375 C 75.101562 -63.851562 78.5625 -66.953125 82.90625 -69.234375 C 87.25 -71.523438 91.992188 -72.671875 97.140625 -72.671875 C 106.390625 -72.671875 113.492188 -69.90625 118.453125 -64.375 C 123.410156 -58.84375 125.890625 -50.738281 125.890625 -40.0625 L 125.890625 0 L 107.578125 0 L 107.578125 -38.34375 C 107.578125 -44.445312 106.410156 -49.117188 104.078125 -52.359375 C 101.742188 -55.597656 98.144531 -57.21875 93.28125 -57.21875 C 88.320312 -57.21875 84.335938 -55.40625 81.328125 -51.78125 C 78.328125 -48.164062 76.828125 -43.113281 76.828125 -36.625 L 76.828125 0 L 58.515625 0 L 58.515625 -38.34375 C 58.515625 -44.445312 57.320312 -49.117188 54.9375 -52.359375 C 52.550781 -55.597656 48.878906 -57.21875 43.921875 -57.21875 C 39.054688 -57.21875 35.117188 -55.40625 32.109375 -51.78125 C 29.109375 -48.164062 27.609375 -43.113281 27.609375 -36.625 L 27.609375 0 Z M 9.296875 0 "/></g></g></g><g fill="#000000" fill-opacity="1"><g transform="translate(448.343334, 123.489385)"><g><path d="M 18.171875 31.46875 L 34.625 -4.71875 L 30.328125 -4.71875 L 2.71875 -70.953125 L 22.609375 -70.953125 L 42.484375 -21.03125 L 63.234375 -70.953125 L 82.6875 -70.953125 L 37.625 31.46875 Z M 18.171875 31.46875 "/></g></g></g><g fill="#000000" fill-opacity="1"><g transform="translate(525.879679, 123.489385)"><g/></g></g><g fill="#000000" fill-opacity="1"><g transform="translate(552.058334, 123.489385)"><g><path d="M 40.921875 0 C 33.472656 0 27.507812 -1.8125 23.03125 -5.4375 C 18.550781 -9.0625 16.3125 -15.5 16.3125 -24.75 L 16.3125 -55.65625 L 4.15625 -55.65625 L 4.15625 -70.953125 L 16.3125 -70.953125 L 18.453125 -89.984375 L 34.625 -89.984375 L 34.625 -70.953125 L 53.796875 -70.953125 L 53.796875 -55.65625 L 34.625 -55.65625 L 34.625 -24.609375 C 34.625 -21.171875 35.363281 -18.804688 36.84375 -17.515625 C 38.320312 -16.234375 40.875 -15.59375 44.5 -15.59375 L 53.359375 -15.59375 L 53.359375 0 Z M 40.921875 0 "/></g></g></g><g fill="#000000" fill-opacity="1"><g transform="translate(604.416541, 123.489385)"><g><path d="M 43.34375 1.71875 C 36.476562 1.71875 30.300781 0.144531 24.8125 -3 C 19.332031 -6.144531 14.992188 -10.507812 11.796875 -16.09375 C 8.609375 -21.675781 7.015625 -28.140625 7.015625 -35.484375 C 7.015625 -42.828125 8.632812 -49.285156 11.875 -54.859375 C 15.113281 -60.441406 19.472656 -64.804688 24.953125 -67.953125 C 30.441406 -71.097656 36.617188 -72.671875 43.484375 -72.671875 C 50.265625 -72.671875 56.394531 -71.097656 61.875 -67.953125 C 67.351562 -64.804688 71.691406 -60.441406 74.890625 -54.859375 C 78.085938 -49.285156 79.6875 -42.828125 79.6875 -35.484375 C 79.6875 -28.140625 78.085938 -21.675781 74.890625 -16.09375 C 71.691406 -10.507812 67.328125 -6.144531 61.796875 -3 C 56.265625 0.144531 50.113281 1.71875 43.34375 1.71875 Z M 43.34375 -14.15625 C 48.113281 -14.15625 52.265625 -15.941406 55.796875 -19.515625 C 59.328125 -23.097656 61.09375 -28.421875 61.09375 -35.484375 C 61.09375 -42.535156 59.328125 -47.847656 55.796875 -51.421875 C 52.265625 -55.003906 48.160156 -56.796875 43.484375 -56.796875 C 38.617188 -56.796875 34.445312 -55.003906 30.96875 -51.421875 C 27.488281 -47.847656 25.75 -42.535156 25.75 -35.484375 C 25.75 -28.421875 27.488281 -23.097656 30.96875 -19.515625 C 34.445312 -15.941406 38.570312 -14.15625 43.34375 -14.15625 Z M 43.34375 -14.15625 "/></g></g></g><g fill="#000000" fill-opacity="1"><g transform="translate(683.240416, 123.489385)"><g><path d="M 35.90625 1.71875 C 27.039062 1.71875 20.195312 -1.046875 15.375 -6.578125 C 10.5625 -12.109375 8.15625 -20.21875 8.15625 -30.90625 L 8.15625 -70.953125 L 26.328125 -70.953125 L 26.328125 -32.625 C 26.328125 -26.519531 27.566406 -21.84375 30.046875 -18.59375 C 32.523438 -15.351562 36.4375 -13.734375 41.78125 -13.734375 C 46.832031 -13.734375 51.003906 -15.546875 54.296875 -19.171875 C 57.585938 -22.796875 59.234375 -27.847656 59.234375 -34.328125 L 59.234375 -70.953125 L 77.546875 -70.953125 L 77.546875 0 L 61.375 0 L 59.9375 -12.015625 C 57.75 -7.816406 54.578125 -4.476562 50.421875 -2 C 46.273438 0.476562 41.4375 1.71875 35.90625 1.71875 Z M 35.90625 1.71875 "/></g></g></g><g fill="#000000" fill-opacity="1"><g transform="translate(762.350409, 123.489385)"><g><path d="M 9.296875 0 L 9.296875 -70.953125 L 25.609375 -70.953125 L 27.328125 -57.65625 C 29.898438 -62.226562 33.40625 -65.875 37.84375 -68.59375 C 42.28125 -71.3125 47.5 -72.671875 53.5 -72.671875 L 53.5 -53.359375 L 48.359375 -53.359375 C 44.347656 -53.359375 40.769531 -52.738281 37.625 -51.5 C 34.476562 -50.257812 32.019531 -48.113281 30.25 -45.0625 C 28.488281 -42.007812 27.609375 -37.765625 27.609375 -32.328125 L 27.609375 0 Z M 9.296875 0 "/></g></g></g><path fill="#ff3131" d="M 193.792969 85.394531 C 193.0625 87.015625 192.277344 88.546875 191.4375 90 C 190.617188 94.148438 188.480469 98.570312 184.613281 103.007812 C 175.90625 113.007812 160.125 113.351562 149.996094 109.101562 C 158.753906 123.21875 173.535156 134.785156 173.535156 134.785156 C 173.535156 134.785156 206.601562 108.910156 206.601562 82.453125 C 206.601562 74.875 204.054688 67.894531 199.769531 62.320312 C 198.761719 71.105469 196.757812 78.859375 193.792969 85.394531 Z M 193.792969 85.394531 " fill-opacity="1" fill-rule="nonzero"/><g clip-path="url(#417955cb7f)"><path fill="#ff3131" d="M 165.855469 104.703125 C 171.058594 104.5625 175.921875 102.851562 180.214844 99.667969 C 182.515625 97.964844 184.652344 95.839844 186.589844 93.304688 C 188.527344 90.769531 190.269531 87.824219 191.777344 84.480469 C 194.785156 77.847656 196.878906 69.640625 197.789062 59.980469 C 198.199219 55.582031 198.371094 50.882812 198.269531 45.886719 C 197.265625 49.734375 196.152344 53.5625 194.9375 57.25 C 192.882812 63.464844 190.511719 69.292969 187.789062 74.175781 C 183.574219 81.742188 178.507812 87.039062 172.457031 88.011719 C 157.195312 90.457031 156.253906 67.746094 172.558594 66.835938 C 177.546875 66.558594 182.566406 68.695312 186.234375 72.40625 C 188.558594 68.113281 190.777344 62.785156 192.839844 56.554688 C 192.921875 56.300781 193.007812 56.046875 193.089844 55.789062 C 187.613281 51.765625 180.851562 49.390625 173.535156 49.390625 C 155.269531 49.390625 140.46875 64.191406 140.46875 82.453125 C 140.46875 82.6875 140.46875 83.917969 140.539062 84.5625 C 142.0625 98.464844 152.917969 105.070312 165.855469 104.703125 Z M 165.855469 104.703125 " fill-opacity="1" fill-rule="nonzero"/></g><g clip-path="url(#c74e0b47e4)"><path fill="#ff3131" d="M 198.582031 36.746094 L 201.195312 49.570312 L 208.753906 50.007812 L 199.257812 25.039062 L 186.945312 48.746094 L 194.503906 49.183594 Z M 198.582031 36.746094 " fill-opacity="1" fill-rule="nonzero"/></g><g fill="#000000" fill-opacity="1"><g transform="translate(158.496624, 195.007836)"><g><path d="M 8.578125 0 L 8.578125 -18.75 L 1.015625 -18.75 L 1.015625 -23.8125 L 21.53125 -23.8125 L 21.53125 -18.75 L 13.984375 -18.75 L 13.984375 0 Z M 8.578125 0 "/></g></g></g><g fill="#000000" fill-opacity="1"><g transform="translate(182.300615, 195.007836)"><g><path d="M 2.859375 0 L 2.859375 -23.8125 L 13.03125 -23.8125 C 14.84375 -23.8125 16.414062 -23.484375 17.75 -22.828125 C 19.09375 -22.171875 20.125 -21.226562 20.84375 -20 C 21.570312 -18.78125 21.9375 -17.316406 21.9375 -15.609375 C 21.9375 -13.867188 21.539062 -12.367188 20.75 -11.109375 C 19.957031 -9.847656 18.847656 -8.898438 17.421875 -8.265625 L 22.34375 0 L 16.09375 0 L 11.84375 -7.421875 L 8.265625 -7.421875 L 8.265625 0 Z M 8.203125 -11.96875 L 12.3125 -11.96875 C 13.65625 -11.96875 14.679688 -12.28125 15.390625 -12.90625 C 16.109375 -13.53125 16.46875 -14.421875 16.46875 -15.578125 C 16.46875 -16.734375 16.109375 -17.625 15.390625 -18.25 C 14.679688 -18.875 13.65625 -19.1875 12.3125 -19.1875 L 8.203125 -19.1875 Z M 8.203125 -11.96875 "/></g></g></g><g fill="#000000" fill-opacity="1"><g transform="translate(207.498798, 195.007836)"><g><path d="M 0.3125 0 L 9.765625 -23.8125 L 15.0625 -23.8125 L 24.53125 0 L 18.75 0 L 17.140625 -4.109375 L 7.6875 -4.109375 L 6.09375 0 Z M 9.078125 -8.375 L 15.78125 -8.375 L 12.421875 -17.078125 Z M 9.078125 -8.375 "/></g></g></g><g fill="#000000" fill-opacity="1"><g transform="translate(233.581105, 195.007836)"><g><path d="M 9.453125 0 L 0.3125 -23.8125 L 6.125 -23.8125 L 9.28125 -15.34375 L 12.140625 -7.796875 L 18.125 -23.8125 L 23.90625 -23.8125 L 14.765625 0 Z M 9.453125 0 "/></g></g></g><g fill="#000000" fill-opacity="1"><g transform="translate(259.051323, 195.007836)"><g><path d="M 2.859375 0 L 2.859375 -23.8125 L 18.5 -23.8125 L 18.5 -19.25 L 8.234375 -19.25 L 8.234375 -14.328125 L 17.59375 -14.328125 L 17.59375 -9.796875 L 8.234375 -9.796875 L 8.234375 -4.59375 L 18.875 -4.59375 L 18.875 0 Z M 2.859375 0 "/></g></g></g><g fill="#000000" fill-opacity="1"><g transform="translate(280.917046, 195.007836)"><g><path d="M 2.859375 0 L 2.859375 -23.8125 L 8.265625 -23.8125 L 8.265625 -5.0625 L 18.671875 -5.0625 L 18.671875 0 Z M 2.859375 0 "/></g></g></g><g fill="#000000" fill-opacity="1"><g transform="translate(301.762636, 195.007836)"><g/></g></g><g fill="#000000" fill-opacity="1"><g transform="translate(311.012623, 195.007836)"><g><path d="M 8 0 L 0.34375 -23.8125 L 6.09375 -23.8125 L 8.375 -16.5625 L 10.890625 -8.734375 L 13.609375 -16.5625 L 16.15625 -23.8125 L 21.296875 -23.8125 L 23.84375 -16.5625 L 26.59375 -8.640625 L 29.15625 -16.5625 L 31.4375 -23.8125 L 37.140625 -23.8125 L 29.453125 0 L 24.15625 0 L 18.75 -15.40625 L 13.328125 0 Z M 8 0 "/></g></g></g><g fill="#000000" fill-opacity="1"><g transform="translate(349.744666, 195.007836)"><g><path d="M 14.15625 0.46875 C 11.675781 0.46875 9.476562 -0.0546875 7.5625 -1.109375 C 5.644531 -2.160156 4.148438 -3.613281 3.078125 -5.46875 C 2.003906 -7.332031 1.46875 -9.476562 1.46875 -11.90625 C 1.46875 -14.332031 2.003906 -16.472656 3.078125 -18.328125 C 4.148438 -20.191406 5.644531 -21.648438 7.5625 -22.703125 C 9.476562 -23.753906 11.675781 -24.28125 14.15625 -24.28125 C 16.644531 -24.28125 18.84375 -23.753906 20.75 -22.703125 C 22.65625 -21.648438 24.148438 -20.191406 25.234375 -18.328125 C 26.328125 -16.472656 26.875 -14.332031 26.875 -11.90625 C 26.875 -9.476562 26.328125 -7.332031 25.234375 -5.46875 C 24.148438 -3.613281 22.65625 -2.160156 20.75 -1.109375 C 18.84375 -0.0546875 16.644531 0.46875 14.15625 0.46875 Z M 6.96875 -11.90625 C 6.96875 -10.476562 7.273438 -9.21875 7.890625 -8.125 C 8.503906 -7.039062 9.347656 -6.191406 10.421875 -5.578125 C 11.503906 -4.960938 12.75 -4.65625 14.15625 -4.65625 C 15.582031 -4.65625 16.832031 -4.960938 17.90625 -5.578125 C 18.988281 -6.191406 19.828125 -7.039062 20.421875 -8.125 C 21.023438 -9.21875 21.328125 -10.476562 21.328125 -11.90625 C 21.328125 -13.332031 21.023438 -14.585938 20.421875 -15.671875 C 19.828125 -16.765625 18.988281 -17.617188 17.90625 -18.234375 C 16.832031 -18.847656 15.582031 -19.15625 14.15625 -19.15625 C 12.75 -19.15625 11.503906 -18.847656 10.421875 -18.234375 C 9.347656 -17.617188 8.503906 -16.765625 7.890625 -15.671875 C 7.273438 -14.585938 6.96875 -13.332031 6.96875 -11.90625 Z M 6.96875 -11.90625 "/></g></g></g><g fill="#000000" fill-opacity="1"><g transform="translate(379.329451, 195.007836)"><g><path d="M 2.859375 0 L 2.859375 -23.8125 L 13.03125 -23.8125 C 14.84375 -23.8125 16.414062 -23.484375 17.75 -22.828125 C 19.09375 -22.171875 20.125 -21.226562 20.84375 -20 C 21.570312 -18.78125 21.9375 -17.316406 21.9375 -15.609375 C 21.9375 -13.867188 21.539062 -12.367188 20.75 -11.109375 C 19.957031 -9.847656 18.847656 -8.898438 17.421875 -8.265625 L 22.34375 0 L 16.09375 0 L 11.84375 -7.421875 L 8.265625 -7.421875 L 8.265625 0 Z M 8.203125 -11.96875 L 12.3125 -11.96875 C 13.65625 -11.96875 14.679688 -12.28125 15.390625 -12.90625 C 16.109375 -13.53125 16.46875 -14.421875 16.46875 -15.578125 C 16.46875 -16.734375 16.109375 -17.625 15.390625 -18.25 C 14.679688 -18.875 13.65625 -19.1875 12.3125 -19.1875 L 8.203125 -19.1875 Z M 8.203125 -11.96875 "/></g></g></g><g fill="#000000" fill-opacity="1"><g transform="translate(404.527632, 195.007836)"><g><path d="M 2.859375 0 L 2.859375 -23.8125 L 8.265625 -23.8125 L 8.265625 -5.0625 L 18.671875 -5.0625 L 18.671875 0 Z M 2.859375 0 "/></g></g></g><g fill="#000000" fill-opacity="1"><g transform="translate(425.373214, 195.007836)"><g><path d="M 2.859375 0 L 2.859375 -23.8125 L 12.28125 -23.8125 C 14.800781 -23.8125 17 -23.3125 18.875 -22.3125 C 20.757812 -21.3125 22.222656 -19.914062 23.265625 -18.125 C 24.304688 -16.332031 24.828125 -14.257812 24.828125 -11.90625 C 24.828125 -9.519531 24.304688 -7.4375 23.265625 -5.65625 C 22.222656 -3.882812 20.757812 -2.5 18.875 -1.5 C 17 -0.5 14.800781 0 12.28125 0 Z M 8.265625 -4.96875 L 12.171875 -4.96875 C 13.578125 -4.96875 14.8125 -5.253906 15.875 -5.828125 C 16.945312 -6.410156 17.78125 -7.222656 18.375 -8.265625 C 18.976562 -9.304688 19.28125 -10.519531 19.28125 -11.90625 C 19.28125 -13.3125 18.976562 -14.53125 18.375 -15.5625 C 17.78125 -16.59375 16.941406 -17.394531 15.859375 -17.96875 C 14.785156 -18.550781 13.535156 -18.84375 12.109375 -18.84375 L 8.265625 -18.84375 Z M 8.265625 -4.96875 "/></g></g></g><g fill="#000000" fill-opacity="1"><g transform="translate(452.88373, 195.007836)"><g/></g></g><g fill="#000000" fill-opacity="1"><g transform="translate(462.133733, 195.007836)"><g><path d="M 8 0 L 0.34375 -23.8125 L 6.09375 -23.8125 L 8.375 -16.5625 L 10.890625 -8.734375 L 13.609375 -16.5625 L 16.15625 -23.8125 L 21.296875 -23.8125 L 23.84375 -16.5625 L 26.59375 -8.640625 L 29.15625 -16.5625 L 31.4375 -23.8125 L 37.140625 -23.8125 L 29.453125 0 L 24.15625 0 L 18.75 -15.40625 L 13.328125 0 Z M 8 0 "/></g></g></g><g fill="#000000" fill-opacity="1"><g transform="translate(500.865793, 195.007836)"><g><path d="M 2.859375 0 L 2.859375 -23.8125 L 8.265625 -23.8125 L 8.265625 0 Z M 2.859375 0 "/></g></g></g><g fill="#000000" fill-opacity="1"><g transform="translate(513.244227, 195.007836)"><g><path d="M 8.578125 0 L 8.578125 -18.75 L 1.015625 -18.75 L 1.015625 -23.8125 L 21.53125 -23.8125 L 21.53125 -18.75 L 13.984375 -18.75 L 13.984375 0 Z M 8.578125 0 "/></g></g></g><g fill="#000000" fill-opacity="1"><g transform="translate(537.048233, 195.007836)"><g><path d="M 17.59375 0 L 17.59375 -9.59375 L 8.265625 -9.59375 L 8.265625 0 L 2.859375 0 L 2.859375 -23.8125 L 8.265625 -23.8125 L 8.265625 -14.65625 L 17.59375 -14.65625 L 17.59375 -23.8125 L 23 -23.8125 L 23 0 Z M 17.59375 0 "/></g></g></g><g fill="#000000" fill-opacity="1"><g transform="translate(564.150693, 195.007836)"><g/></g></g><g fill="#000000" fill-opacity="1"><g transform="translate(573.400696, 195.007836)"><g><path d="M 13.78125 0.46875 C 11.375 0.46875 9.238281 -0.0546875 7.375 -1.109375 C 5.519531 -2.160156 4.070312 -3.613281 3.03125 -5.46875 C 1.988281 -7.332031 1.46875 -9.476562 1.46875 -11.90625 C 1.46875 -14.332031 1.988281 -16.472656 3.03125 -18.328125 C 4.070312 -20.191406 5.515625 -21.648438 7.359375 -22.703125 C 9.210938 -23.753906 11.34375 -24.28125 13.75 -24.28125 C 15.757812 -24.28125 17.601562 -23.894531 19.28125 -23.125 C 20.957031 -22.351562 22.367188 -21.265625 23.515625 -19.859375 C 24.660156 -18.453125 25.460938 -16.800781 25.921875 -14.90625 L 20.34375 -14.90625 C 19.882812 -16.21875 19.078125 -17.253906 17.921875 -18.015625 C 16.765625 -18.773438 15.425781 -19.15625 13.90625 -19.15625 C 12.570312 -19.15625 11.375 -18.847656 10.3125 -18.234375 C 9.257812 -17.617188 8.4375 -16.765625 7.84375 -15.671875 C 7.257812 -14.585938 6.96875 -13.332031 6.96875 -11.90625 C 6.96875 -10.476562 7.257812 -9.21875 7.84375 -8.125 C 8.4375 -7.039062 9.253906 -6.191406 10.296875 -5.578125 C 11.347656 -4.960938 12.539062 -4.65625 13.875 -4.65625 C 15.4375 -4.65625 16.804688 -5.054688 17.984375 -5.859375 C 19.171875 -6.671875 20.015625 -7.753906 20.515625 -9.109375 L 26.09375 -9.109375 C 25.707031 -7.179688 24.9375 -5.5 23.78125 -4.0625 C 22.625 -2.625 21.1875 -1.507812 19.46875 -0.71875 C 17.757812 0.0703125 15.863281 0.46875 13.78125 0.46875 Z M 13.78125 0.46875 "/></g></g></g><g fill="#000000" fill-opacity="1"><g transform="translate(602.101375, 195.007836)"><g><path d="M 2.859375 0 L 2.859375 -23.8125 L 8.265625 -23.8125 L 8.265625 -5.0625 L 18.671875 -5.0625 L 18.671875 0 Z M 2.859375 0 "/></g></g></g><g fill="#000000" fill-opacity="1"><g transform="translate(622.946974, 195.007836)"><g><path d="M 0.3125 0 L 9.765625 -23.8125 L 15.0625 -23.8125 L 24.53125 0 L 18.75 0 L 17.140625 -4.109375 L 7.6875 -4.109375 L 6.09375 0 Z M 9.078125 -8.375 L 15.78125 -8.375 L 12.421875 -17.078125 Z M 9.078125 -8.375 "/></g></g></g><g fill="#000000" fill-opacity="1"><g transform="translate(649.029293, 195.007836)"><g><path d="M 11.15625 0.46875 C 9.15625 0.46875 7.4375 0.140625 6 -0.515625 C 4.5625 -1.171875 3.453125 -2.101562 2.671875 -3.3125 C 1.890625 -4.53125 1.5 -5.953125 1.5 -7.578125 L 6.796875 -7.578125 C 6.796875 -6.453125 7.1875 -5.570312 7.96875 -4.9375 C 8.757812 -4.300781 9.8125 -3.984375 11.125 -3.984375 C 12.257812 -3.984375 13.15625 -4.203125 13.8125 -4.640625 C 14.46875 -5.085938 14.796875 -5.707031 14.796875 -6.5 C 14.796875 -7.332031 14.398438 -8.007812 13.609375 -8.53125 C 12.816406 -9.050781 11.582031 -9.492188 9.90625 -9.859375 C 7.113281 -10.453125 5.046875 -11.347656 3.703125 -12.546875 C 2.367188 -13.753906 1.703125 -15.320312 1.703125 -17.25 C 1.703125 -19.425781 2.492188 -21.140625 4.078125 -22.390625 C 5.671875 -23.648438 7.835938 -24.28125 10.578125 -24.28125 C 12.460938 -24.28125 14.09375 -23.957031 15.46875 -23.3125 C 16.851562 -22.664062 17.925781 -21.757812 18.6875 -20.59375 C 19.445312 -19.425781 19.828125 -18.035156 19.828125 -16.421875 L 14.625 -16.421875 C 14.625 -17.492188 14.269531 -18.332031 13.5625 -18.9375 C 12.863281 -19.550781 11.890625 -19.859375 10.640625 -19.859375 C 9.515625 -19.859375 8.617188 -19.632812 7.953125 -19.1875 C 7.296875 -18.75 6.96875 -18.132812 6.96875 -17.34375 C 6.96875 -16.625 7.332031 -16.015625 8.0625 -15.515625 C 8.789062 -15.015625 10.0625 -14.546875 11.875 -14.109375 C 14.84375 -13.410156 16.984375 -12.472656 18.296875 -11.296875 C 19.609375 -10.117188 20.265625 -8.585938 20.265625 -6.703125 C 20.265625 -4.453125 19.453125 -2.691406 17.828125 -1.421875 C 16.210938 -0.160156 13.988281 0.46875 11.15625 0.46875 Z M 11.15625 0.46875 "/></g></g></g><g fill="#000000" fill-opacity="1"><g transform="translate(672.085196, 195.007836)"><g><path d="M 11.15625 0.46875 C 9.15625 0.46875 7.4375 0.140625 6 -0.515625 C 4.5625 -1.171875 3.453125 -2.101562 2.671875 -3.3125 C 1.890625 -4.53125 1.5 -5.953125 1.5 -7.578125 L 6.796875 -7.578125 C 6.796875 -6.453125 7.1875 -5.570312 7.96875 -4.9375 C 8.757812 -4.300781 9.8125 -3.984375 11.125 -3.984375 C 12.257812 -3.984375 13.15625 -4.203125 13.8125 -4.640625 C 14.46875 -5.085938 14.796875 -5.707031 14.796875 -6.5 C 14.796875 -7.332031 14.398438 -8.007812 13.609375 -8.53125 C 12.816406 -9.050781 11.582031 -9.492188 9.90625 -9.859375 C 7.113281 -10.453125 5.046875 -11.347656 3.703125 -12.546875 C 2.367188 -13.753906 1.703125 -15.320312 1.703125 -17.25 C 1.703125 -19.425781 2.492188 -21.140625 4.078125 -22.390625 C 5.671875 -23.648438 7.835938 -24.28125 10.578125 -24.28125 C 12.460938 -24.28125 14.09375 -23.957031 15.46875 -23.3125 C 16.851562 -22.664062 17.925781 -21.757812 18.6875 -20.59375 C 19.445312 -19.425781 19.828125 -18.035156 19.828125 -16.421875 L 14.625 -16.421875 C 14.625 -17.492188 14.269531 -18.332031 13.5625 -18.9375 C 12.863281 -19.550781 11.890625 -19.859375 10.640625 -19.859375 C 9.515625 -19.859375 8.617188 -19.632812 7.953125 -19.1875 C 7.296875 -18.75 6.96875 -18.132812 6.96875 -17.34375 C 6.96875 -16.625 7.332031 -16.015625 8.0625 -15.515625 C 8.789062 -15.015625 10.0625 -14.546875 11.875 -14.109375 C 14.84375 -13.410156 16.984375 -12.472656 18.296875 -11.296875 C 19.609375 -10.117188 20.265625 -8.585938 20.265625 -6.703125 C 20.265625 -4.453125 19.453125 -2.691406 17.828125 -1.421875 C 16.210938 -0.160156 13.988281 0.46875 11.15625 0.46875 Z M 11.15625 0.46875 "/></g></g></g></svg>