<svg width="40" height="57" viewBox="0 0 40 57" fill="none" xmlns="http://www.w3.org/2000/svg">
<path d="M39.0797 7.86103C38.8907 7.65499 38.6798 7.47368 38.4524 7.32169C38.3174 7.22934 38.1984 7.16559 38.1145 7.12099C38.1041 7.11541 38.0937 7.11008 38.083 7.10475L37.0363 6.55693L36.0558 6.02341C36.0483 6.01904 36.0403 6.01492 36.0326 6.01104C35.7519 5.86342 35.507 5.71338 35.2896 5.5563C35.1422 5.44892 34.997 5.33693 34.8516 5.22494C34.694 5.1035 34.5362 4.9823 34.3755 4.86426C33.9833 4.57677 33.5606 4.32298 33.1155 4.10773C32.6472 3.88303 32.1355 3.71698 31.5937 3.61421C31.5045 3.59603 31.4151 3.57881 31.3257 3.5616C31.0799 3.51434 30.8481 3.46949 30.6826 3.41568C30.51 3.3592 30.3158 3.27751 30.1107 3.19098C29.9864 3.13862 29.8625 3.0865 29.7585 3.0453L29.6587 3.00409C29.3571 2.8795 29.0553 2.75514 28.7548 2.62231C28.6282 2.56656 28.5015 2.51202 28.3747 2.45748C28.166 2.36755 27.9573 2.2781 27.7386 2.17702L27.416 2.03086C27.4068 2.02674 27.3976 2.02262 27.3884 2.01874L27.2643 1.96517C27.2526 1.96008 27.2408 1.95499 27.2289 1.95038C26.9792 1.84857 26.7087 1.77537 26.4069 1.73052C25.2829 1.57418 24.1504 1.97486 23.3706 2.81065C23.1781 3.01887 23.0138 3.24552 22.8817 3.48404C22.8764 3.49349 22.871 3.50319 22.8659 3.51288L22.8196 3.60039C22.808 3.62245 22.7969 3.6445 22.7862 3.66681L22.3758 4.51569C22.2692 4.73263 22.1586 4.94691 22.0466 5.16047L22.0139 5.22446C21.7924 5.63872 21.7194 6.11915 21.803 6.57826L17.4214 15.7506L17.2159 15.6527C17.2004 15.6449 17.1848 15.6372 17.1693 15.6294L16.5944 15.3548C16.0201 15.0804 15.3838 14.9856 14.7579 15.0794C13.7125 15.2353 12.8166 15.8973 12.3613 16.8506L0.612523 41.4451C0.211838 42.2846 0.204813 43.219 0.54102 44.0277L0.224447 44.6899C-0.28556 45.7581 0.0991236 47.0174 1.11938 47.6188C2.52141 48.4454 4.09773 48.2716 5.32597 47.2135L16.7456 52.6689C16.6877 54.2901 17.5686 55.632 19.0746 56.1958C19.3407 56.2959 19.6132 56.3434 19.8808 56.3434C20.7287 56.3434 21.5279 55.8647 21.9157 55.0524L22.233 54.3897C23.0732 54.1427 23.7958 53.5503 24.197 52.7111L35.9455 28.1168C36.6996 26.5376 36.0287 24.6394 34.4499 23.8855L33.6212 23.4897L37.8651 14.6058C37.9068 14.583 37.9475 14.5588 37.987 14.5331C38.3416 14.3064 38.6151 13.9874 38.7765 13.6139C39.041 13.0052 39.3326 12.3995 39.5815 11.8902L39.6482 11.7544C39.7335 11.5787 39.8496 11.2999 39.9163 10.9865C40.0392 10.4336 40.0266 9.85646 39.8799 9.31712C39.7316 8.76954 39.453 8.26462 39.0797 7.86103ZM26.9089 8.30244C26.9668 8.33395 27.0248 8.36547 27.0825 8.39722L27.1569 8.4377C27.2742 8.50363 27.393 8.56763 27.5118 8.63113C27.7081 8.73658 27.8935 8.8362 28.0429 8.93292C28.102 8.97122 28.1582 9.0146 28.2113 9.05557C28.3289 9.14695 28.4438 9.24392 28.5592 9.34064C28.6309 9.40075 28.7027 9.4611 28.7749 9.52049C28.8871 9.61551 29.0023 9.70544 29.1184 9.79149C29.3802 9.98541 29.6599 10.1597 29.9668 10.3177C30.0155 10.3439 30.0647 10.3694 30.1185 10.3951C30.1852 10.4266 30.254 10.4552 30.3233 10.4828L30.3384 10.4884C30.7398 10.6639 31.1177 10.7974 31.4949 10.8976C31.6287 10.9327 31.7637 10.9654 31.8987 10.9979L32.0124 11.0253C32.2126 11.0738 32.4128 11.122 32.6036 11.1727C32.6809 11.1935 32.7568 11.2197 32.8324 11.2452L32.8836 11.2621C33.0692 11.3237 33.2299 11.3831 33.3725 11.4427C33.3298 11.5804 33.3014 11.7227 33.2879 11.8676C33.2697 12.0608 33.2789 12.2523 33.3131 12.4373L29.0718 21.3159L21.9703 17.9235L26.3543 8.74627C26.5616 8.63283 26.747 8.48472 26.9089 8.30244Z" fill="#0082A1"/>
<path d="M38.1244 8.09581C38.0543 7.83742 37.9246 7.59356 37.7402 7.39407C37.6485 7.2942 37.5448 7.20451 37.4318 7.1301C37.3761 7.09107 37.3172 7.0598 37.2578 7.02805L37.1797 6.98805L36.1794 6.4635L35.1865 5.9232C34.8532 5.74794 34.5293 5.55305 34.2193 5.32908C33.91 5.10389 33.6092 4.86028 33.3006 4.63363C32.9918 4.40723 32.6672 4.21331 32.3286 4.0497C31.9895 3.8868 31.6269 3.77312 31.2441 3.70137C30.864 3.6238 30.4762 3.5632 30.115 3.44588C29.7546 3.32759 29.4138 3.16785 29.0635 3.02823C28.7152 2.88424 28.3666 2.74122 28.0222 2.58924C27.6777 2.43774 27.3294 2.29376 26.9878 2.13596L26.7307 2.01936L26.6664 1.99028L26.5421 1.9367C26.4194 1.88677 26.288 1.85356 26.1557 1.83393C25.6219 1.75975 25.0724 1.95391 24.7061 2.34636C24.6157 2.44429 24.5352 2.5524 24.4713 2.66778L24.425 2.75529L24.4058 2.7948L24.3758 2.85855L24.2553 3.11379L24.0068 3.62065C23.8929 3.85238 23.7748 4.08169 23.6546 4.31052C23.6415 4.33524 23.6294 4.36021 23.6161 4.38493C23.547 4.51437 23.5993 4.67702 23.7336 4.74126L23.7341 4.7415L23.8558 4.79968L18.2772 16.478L16.3844 15.5738L16.3848 15.5731L15.8099 15.2985C15.5561 15.1773 15.2834 15.1419 15.025 15.1806C14.5945 15.2449 14.2028 15.5149 14.0008 15.9372L2.25178 40.5317C1.97472 41.1117 2.1473 41.7895 2.62919 42.1739L2.19869 43.0752L2.19894 43.0754L1.86418 43.7762C1.76383 43.9863 1.84092 44.2372 2.04162 44.3555C2.54678 44.6534 3.54644 44.9719 4.52839 43.7284L4.52863 43.7282C4.63407 43.5946 4.73903 43.4434 4.84351 43.2717L18.796 49.9367C18.7952 49.9387 18.7948 49.9404 18.7943 49.9423C18.7744 49.9978 18.7582 50.0509 18.741 50.1042C18.7223 50.1624 18.7044 50.2199 18.6888 50.2759C18.6755 50.3241 18.6627 50.3716 18.6515 50.4181C18.6357 50.4831 18.6231 50.5454 18.6118 50.607C18.6054 50.6404 18.5972 50.6756 18.5924 50.7081C18.5805 50.7859 18.5718 50.8608 18.5662 50.9328L18.5674 50.9335C18.4748 52.1321 19.2233 52.6133 19.7132 52.7968C19.9314 52.8785 20.175 52.781 20.2753 52.5709L20.6101 51.8701H20.6106L21.0411 50.9689C21.6429 51.102 22.2785 50.8103 22.5556 50.2303L34.3042 25.636C34.6268 24.9605 34.3408 24.1513 33.6654 23.8287L31.1964 22.6492L36.0931 12.3986L36.6343 11.2654L36.7572 11.3241C36.8135 11.351 36.8733 11.3515 36.9291 11.3379C36.957 11.3311 36.9822 11.3195 37.0067 11.304C37.0491 11.2768 37.0867 11.2417 37.1082 11.1917C37.3724 10.5838 37.658 9.98628 37.9489 9.3912L38.0112 9.26466C38.0623 9.15898 38.1135 9.02299 38.1408 8.89452C38.199 8.63176 38.1949 8.35421 38.1244 8.09581ZM19.5452 17.084L24.4419 6.8334L25.124 5.40567L25.2457 5.46385C25.3184 5.49851 25.3972 5.49391 25.4646 5.46312C25.4988 5.44736 25.5279 5.42385 25.5528 5.39452C25.5696 5.37489 25.5865 5.3555 25.5972 5.33077C25.7097 5.06801 25.8258 4.80695 25.946 4.54782L26.1329 4.14641C26.2313 4.19562 26.3285 4.24677 26.4262 4.29743C26.5108 4.34154 26.5956 4.38445 26.68 4.42881C26.8034 4.49353 26.9268 4.55849 27.0506 4.62248C27.3854 4.79483 27.7158 4.97614 28.0464 5.15673C28.3751 5.34144 28.7135 5.50603 29.032 5.71207C29.1323 5.77751 29.2295 5.8495 29.3258 5.92392C29.5338 6.0856 29.7347 6.26134 29.9403 6.43005C30.0246 6.5018 30.1111 6.56943 30.1991 6.63439C30.3851 6.77207 30.5795 6.89255 30.7814 6.99654C30.819 7.01593 30.8556 7.03702 30.8936 7.0552C30.9494 7.08138 31.0083 7.10198 31.065 7.1267C31.353 7.25251 31.6487 7.36207 31.9577 7.44376C32.0925 7.47939 32.229 7.51163 32.3652 7.5446C32.603 7.60229 32.841 7.65926 33.0771 7.72179C33.2054 7.75646 33.3302 7.79912 33.4555 7.84081C33.6899 7.91862 33.9212 8.00322 34.1461 8.10042L34.581 8.28077L35.1906 8.53455L35.8291 8.80992L35.8293 8.80968L35.8318 8.81065C35.6989 9.09183 35.5632 9.3718 35.4253 9.65056C35.3276 9.84981 35.2279 10.0481 35.1242 10.2444C35.108 10.2759 35.0995 10.3094 35.0966 10.3424C35.0866 10.4476 35.1404 10.5523 35.242 10.6008L35.3651 10.6597L29.9272 22.0434L19.5452 17.084Z" fill="white"/>
<path d="M19.8806 54.6459C19.6129 54.6459 19.3405 54.5984 19.0743 54.4983C17.5681 53.9345 16.6872 52.5928 16.7454 50.9714L5.32572 45.516C4.09773 46.5741 2.52141 46.7479 1.11938 45.9213C0.0991236 45.3199 -0.28556 44.0606 0.224447 42.9924L0.54102 42.3304C0.204813 41.5217 0.211838 40.5873 0.612523 39.7479L12.3613 15.1534C12.8166 14.2 13.7125 13.538 14.7579 13.3822C15.3838 13.2881 16.0201 13.3831 16.5944 13.6575L17.1693 13.9322C17.1851 13.9397 17.2006 13.9477 17.2159 13.9554L17.4214 14.0534L21.803 4.88099C21.7194 4.42213 21.7924 3.94145 22.0139 3.52719L22.0466 3.4632C22.1589 3.24989 22.2694 3.03537 22.3758 2.81842L22.7862 1.96954C22.7969 1.94724 22.808 1.92494 22.8196 1.90312L22.8659 1.81561C22.871 1.80592 22.8764 1.79622 22.8817 1.78677C23.0138 1.54825 23.1781 1.32161 23.3706 1.11338C24.1506 0.277594 25.2831 -0.12309 26.4069 0.0332576C26.7084 0.0781014 26.979 0.151305 27.2289 0.253113C27.2408 0.257961 27.2526 0.26281 27.2643 0.2679L27.3884 0.321469C27.3976 0.325589 27.4068 0.329468 27.416 0.333589L27.7386 0.479755C27.9573 0.580593 28.166 0.67028 28.3747 0.76021C28.5015 0.814749 28.6285 0.869533 28.7548 0.925043C29.0553 1.05788 29.3571 1.18223 29.6589 1.30682L29.7588 1.34803C29.8628 1.38924 29.9869 1.44135 30.111 1.49371C30.3163 1.58024 30.5102 1.66193 30.6828 1.71841C30.8486 1.77222 31.0803 1.81707 31.3259 1.86434C31.4153 1.88155 31.5048 1.899 31.594 1.91694C32.1358 2.01971 32.6477 2.18576 33.1158 2.41046C33.5608 2.62571 33.9836 2.8795 34.3758 3.16699C34.5365 3.28479 34.694 3.40624 34.8518 3.52768C34.9973 3.63942 35.1422 3.75166 35.2898 3.85904C35.5073 4.01611 35.7521 4.16615 36.0328 4.31378C36.0405 4.3179 36.0483 4.32202 36.0561 4.32614L37.0366 4.85966L38.0832 5.40748C38.0939 5.41281 38.1043 5.41814 38.1148 5.42372C38.1986 5.46856 38.3176 5.53207 38.4524 5.62442C38.6798 5.77641 38.8907 5.95796 39.0797 6.164C39.453 6.56736 39.7316 7.07252 39.8797 7.61937C40.0263 8.15871 40.0389 8.73586 39.916 9.28877C39.8494 9.60219 39.733 9.88095 39.6479 10.0567L39.5813 10.1924C39.3323 10.702 39.0407 11.3075 38.7763 11.9161C38.6148 12.2897 38.3414 12.6087 37.9868 12.8353C37.9473 12.8608 37.9065 12.8852 37.8648 12.908L33.6209 21.7919L34.4497 22.1878C36.0284 22.9416 36.6994 24.8399 35.9453 26.4191L24.1967 51.0133C23.7958 51.8525 23.0729 52.445 22.2328 52.692L21.9155 53.3547C21.5277 54.1669 20.7285 54.6459 19.8806 54.6459ZM4.84529 41.4529C5.10878 41.4529 5.3759 41.5101 5.62751 41.6306L19.5802 48.2958C20.0001 48.4963 20.3098 48.8388 20.4761 49.2404C20.6613 49.1798 20.8518 49.1413 21.0569 49.1505L32.4649 25.2694L30.413 24.2891C30.1883 24.1817 29.9956 24.0339 29.8398 23.8591C29.6054 23.8477 29.3697 23.7908 29.1448 23.6831L18.7626 18.7237C18.5425 18.6185 18.3484 18.4716 18.1893 18.2932C17.9503 18.2815 17.714 18.2229 17.4939 18.1177L15.601 17.2135C15.5853 17.206 15.5697 17.198 15.5545 17.1902L15.4427 17.1369L4.03447 41.0185C4.16124 41.1727 4.26039 41.3448 4.32971 41.5273C4.49624 41.4781 4.66979 41.4529 4.84529 41.4529ZM21.97 16.2265L29.0716 19.6188L33.3128 10.7403C33.2784 10.5553 33.2692 10.3638 33.2874 10.1706C33.301 10.0257 33.3293 9.88337 33.372 9.74569C33.2295 9.68606 33.0687 9.62691 32.8831 9.5651L32.8319 9.54814C32.756 9.52293 32.6804 9.49674 32.6031 9.47566C32.4126 9.42524 32.2124 9.37676 32.0119 9.32828L31.8982 9.30088C31.7632 9.2684 31.6282 9.23568 31.4944 9.20053C31.1169 9.10066 30.7393 8.9671 30.3376 8.79136L30.3228 8.78579C30.2535 8.75815 30.1849 8.72955 30.118 8.69804C30.0642 8.67259 30.015 8.64689 29.9663 8.62071C29.6594 8.46243 29.3797 8.28839 29.1179 8.09447C29.0018 8.00866 28.8866 7.91873 28.7744 7.82347C28.7022 7.76384 28.6304 7.70372 28.5587 7.64361C28.4433 7.54689 28.3286 7.44993 28.2108 7.35855C28.1575 7.31758 28.1015 7.27419 28.0424 7.23589C27.893 7.13918 27.7074 7.03955 27.5113 6.9341C27.3925 6.87035 27.274 6.80661 27.1564 6.74067L27.082 6.70019C27.0243 6.66868 26.9664 6.63692 26.9084 6.60541C26.7463 6.7877 26.5608 6.9358 26.3536 7.049L21.97 16.2265ZM37.5359 9.68073L37.5405 9.68291C37.5391 9.68218 37.5374 9.68145 37.5359 9.68073ZM26.0275 3.82122L26.0302 3.82244C26.029 3.82219 26.0283 3.82171 26.0275 3.82122ZM24.5181 3.10033C24.5191 3.10057 24.5198 3.10106 24.5208 3.10154C24.5198 3.1013 24.5191 3.10081 24.5181 3.10033Z" fill="white"/>
<path d="M25.5244 4.55908L24.2559 3.95312L17.6862 17.7067L18.9548 18.3126L25.5244 4.55908Z" fill="#C2C2C2"/>
<path d="M25.5205 4.55907L24.252 3.95312L23.1694 6.21946L24.4379 6.82541L25.5205 4.55907Z" fill="#A6A6A6"/>
<path d="M37.1748 10.1216L35.9062 9.51562L29.3366 23.2692L30.6052 23.8751L37.1748 10.1216Z" fill="#C2C2C2"/>
<path d="M37.1709 10.1216L35.9023 9.51562L34.8198 11.782L36.0883 12.3879L37.1709 10.1216Z" fill="#A6A6A6"/>
<path d="M35.2415 10.5969L36.7562 11.3204C36.8898 11.3842 37.0481 11.3238 37.1072 11.1883C37.3714 10.5804 37.657 9.98286 37.9478 9.38777L38.0101 9.26099C38.0613 9.15531 38.1124 9.01957 38.1398 8.89086C38.1982 8.62785 38.1941 8.35031 38.1236 8.09191C38.0538 7.83351 37.9238 7.58966 37.7394 7.39016C37.6478 7.2903 37.544 7.20061 37.431 7.12619C37.3753 7.08716 37.3164 7.0559 37.257 7.02414L37.179 6.98414L36.1786 6.45959L35.1857 5.91929C34.8524 5.74404 34.5286 5.54915 34.2185 5.32517C33.9092 5.09998 33.6084 4.85637 33.2998 4.62973C32.991 4.40333 32.6667 4.20941 32.3278 4.04579C31.9887 3.8829 31.6258 3.76921 31.2433 3.69746C30.8633 3.6199 30.4754 3.5593 30.1142 3.44197C29.7538 3.32368 29.413 3.16394 29.0627 3.02432C28.7144 2.88033 28.3658 2.73732 28.0214 2.58533C27.6769 2.43384 27.3286 2.28985 26.9871 2.13205L26.7299 2.01546L26.6656 1.98637L26.5413 1.9328C26.4186 1.88286 26.2873 1.84966 26.1549 1.83002C25.6211 1.75585 25.0716 1.95001 24.7054 2.34245C24.6149 2.44038 24.5345 2.54849 24.4707 2.66387L24.4244 2.75138L24.4053 2.79089L24.3752 2.85464L24.2547 3.10989L24.0063 3.61674C23.8802 3.8732 23.7501 4.12747 23.6165 4.3803C23.5472 4.51143 23.5998 4.6736 23.7338 4.7376L25.2459 5.45994C25.38 5.52394 25.539 5.46309 25.5976 5.32662C25.7101 5.06386 25.8262 4.8028 25.9464 4.54368L26.1333 4.14226C26.4414 4.29667 26.7449 4.46029 27.051 4.61857C27.3858 4.79092 27.7162 4.97224 28.0468 5.15282C28.3755 5.33753 28.7139 5.50212 29.0324 5.70816C29.3504 5.91517 29.6416 6.1789 29.9407 6.4259C30.2369 6.67872 30.5532 6.88913 30.8931 7.05081C31.2334 7.21152 31.588 7.34217 31.9582 7.4401C32.3286 7.53778 32.7069 7.61875 33.0766 7.71789C33.4458 7.81824 33.8009 7.94768 34.1465 8.097L35.1908 8.52992L35.8322 8.80747C35.6046 9.2896 35.3716 9.7693 35.1249 10.2422C35.0555 10.3722 35.1081 10.5331 35.2415 10.5969Z" fill="#18C7B2"/>
<path d="M37.1062 11.1879C37.048 11.3248 36.8892 11.3845 36.7552 11.3202L35.2409 10.5969C35.1088 10.5339 35.0553 10.373 35.1234 10.2406C35.2271 10.044 35.3267 9.84574 35.4244 9.64648C35.4135 9.75193 35.4681 9.85906 35.5701 9.90803L37.0844 10.6313C37.1864 10.6801 37.3052 10.6583 37.3794 10.5804C37.2856 10.7816 37.1959 10.9848 37.1062 11.1879Z" fill="#12B8A3"/>
<path d="M25.5974 5.32742C25.5402 5.46244 25.3804 5.52401 25.2464 5.45977L23.7341 4.73742C23.5998 4.67343 23.5472 4.51054 23.6165 4.3811C23.7183 4.18863 23.8172 3.99714 23.9149 3.80273C23.9108 3.90406 23.9651 4.0015 24.0632 4.04828L25.5756 4.77063C25.6757 4.81838 25.7896 4.79657 25.8647 4.72676C25.7717 4.92601 25.6839 5.12526 25.5974 5.32742Z" fill="#12B8A3"/>
<path d="M36.1582 8.1198C36.0482 8.35008 35.9391 8.57842 35.8271 8.80797L35.1886 8.5326L34.1441 8.09774C33.799 7.95012 33.4431 7.81947 33.0749 7.71984C32.7038 7.62119 32.3271 7.53974 31.9558 7.44108C31.5866 7.3434 31.2308 7.21274 30.8914 7.05325C30.5508 6.8906 30.2333 6.67995 29.9378 6.4281C29.6375 6.18134 29.3478 5.91736 29.0293 5.70866C28.7108 5.5048 28.3721 5.33827 28.0442 5.15454C27.7123 4.97395 27.3834 4.79215 27.0477 4.61932C26.7452 4.46491 26.4441 4.30154 26.1406 4.14907C26.1826 4.0509 26.2264 3.95394 26.2725 3.8577L26.4599 3.45508C26.7675 3.60949 27.0702 3.77383 27.3759 3.93212C27.7116 4.10471 28.0415 4.28457 28.3734 4.46516C28.7004 4.65083 29.04 4.81566 29.3575 5.02122C29.677 5.22798 29.9666 5.49171 30.267 5.73872C30.5625 5.99057 30.879 6.20339 31.2206 6.36386C31.5599 6.5236 31.9148 6.6562 32.284 6.75364C32.6561 6.85011 33.0328 6.9318 33.4039 7.03046C33.7721 7.13008 34.1279 7.26074 34.4721 7.4103L35.5176 7.84322L36.1582 8.1198Z" fill="#12B8A3"/>
<path d="M30.3119 4.21327C30.6396 4.10104 30.9731 4.07705 31.3098 4.09935C31.6463 4.12116 31.9813 4.20334 32.2993 4.33787C32.6173 4.47143 32.9118 4.67698 33.1523 4.92835C33.4007 5.17438 33.5646 5.49532 33.6565 5.81747C33.6737 5.87758 33.6388 5.94036 33.5787 5.95757C33.5399 5.96873 33.4999 5.95806 33.4718 5.93309L33.4618 5.92412C33.225 5.71106 33.0265 5.50502 32.7836 5.34964C32.5453 5.1945 32.3066 5.04785 32.0392 4.94483C31.7767 4.8343 31.5011 4.74461 31.216 4.6622C30.9312 4.58342 30.6323 4.51167 30.3303 4.43459L30.3203 4.43216C30.2593 4.41665 30.2224 4.35435 30.2379 4.29327C30.2481 4.25448 30.277 4.22539 30.3119 4.21327Z" fill="#19D1BA"/>
<path d="M2.84322 41.7207L1.86223 43.7743C1.76188 43.9845 1.83896 44.2353 2.03966 44.3536C2.63088 44.7022 3.89983 45.0813 5.02481 42.9475L2.84322 41.7207Z" fill="#0AAD99"/>
<path d="M21.2521 50.516L20.2711 52.5697C20.1708 52.7798 19.9271 52.8775 19.709 52.7956C19.0664 52.5546 17.9739 51.8059 18.927 49.5898L21.2521 50.516Z" fill="#0AAD99"/>
<path d="M4.84184 43.269C4.63362 43.6122 4.42079 43.8772 4.21087 44.0747L2.45833 43.2375C2.36428 43.1926 2.27483 43.1376 2.19727 43.0734L2.62777 42.1719C2.70533 42.2361 2.79478 42.2909 2.88883 42.336L4.84184 43.269Z" fill="#008574"/>
<path d="M21.0391 50.9667L20.6086 51.8679C20.5099 51.8478 20.411 51.8129 20.317 51.7678L18.5645 50.9306C18.586 50.6433 18.6585 50.3113 18.7947 49.9336L20.7477 50.8666C20.8415 50.9117 20.9404 50.9468 21.0391 50.9667Z" fill="#008574"/>
<path d="M20.746 50.8674L2.88872 42.3372C2.21316 42.0146 1.92713 41.2054 2.25001 40.5299L13.9986 15.9356C14.3212 15.26 15.1303 14.974 15.8059 15.2969L33.6632 23.8271C34.3387 24.1498 34.6248 24.9589 34.3019 25.6345L22.5533 50.2287C22.2307 50.9043 21.4216 51.1903 20.746 50.8674Z" fill="#18C9B4"/>
<path d="M23.3589 48.5408L22.5522 50.2294C22.2299 50.9042 21.4215 51.19 20.7466 50.8676L2.88789 42.3366C2.21305 42.0143 1.92751 41.2059 2.24966 40.531L13.9985 15.936C14.3214 15.2602 15.131 14.974 15.807 15.2968L16.382 15.5715L13.6943 21.1978C8.8126 31.4173 13.1397 43.6592 23.3589 48.5408Z" fill="#17BFAB"/>
<path d="M15.318 18.5977C14.6282 19.5091 13.1878 21.6066 12.897 23.5754C12.8524 23.8776 12.9908 24.1782 13.2409 24.354C14.7721 25.4292 20.6401 29.3263 28.193 31.5091C28.5276 31.6058 28.8863 31.4781 29.0904 31.1959C29.7473 30.2874 31.1297 28.2059 31.4969 26.321C31.5651 25.9722 31.4058 25.62 31.0975 25.4433C29.158 24.3331 21.7511 20.1813 16.2471 18.3139C15.9075 18.199 15.5345 18.3122 15.318 18.5977Z" fill="#0AAD99"/>
<path d="M10.3312 27.8728C9.05328 29.7799 6.27684 34.2825 4.80063 39.3969C4.60792 40.0642 4.88789 40.7783 5.47619 41.1475C8.02405 42.7459 15.0262 46.9558 20.0851 48.2595C20.7451 48.4296 21.4396 48.1613 21.8056 47.5863C23.0835 45.5788 26.0682 40.6142 27.4026 36.0658C27.605 35.3764 27.3112 34.6386 26.6919 34.2747C24.2049 32.8138 17.6342 29.0976 12.1414 27.2602C11.4671 27.0348 10.727 27.282 10.3312 27.8728Z" fill="#0AAD99"/>
<path d="M31.5223 27.307C31.6435 26.9614 31.7424 26.614 31.8088 26.2729C31.8786 25.9139 31.713 25.5513 31.3955 25.3695C29.3904 24.2215 21.7194 19.9216 16.0197 17.9875C15.6684 17.8683 15.282 17.9853 15.0581 18.2813C14.891 18.5019 14.6821 18.7903 14.4557 19.1285C14.2385 19.4528 14.3301 19.893 14.6605 20.1007L20.2861 23.64C21.5531 24.4373 22.9086 25.0847 24.325 25.5693L30.6453 27.7322C31.0043 27.8553 31.3965 27.6655 31.5223 27.307Z" fill="#0AAD99"/>
<path d="M30.8022 28.335C30.6611 28.3832 30.5072 28.3859 30.3564 28.3359L24.0366 26.173C22.622 25.6892 21.266 25.0413 19.9985 24.244L14.3736 20.7033C14.2561 20.6298 14.1678 20.5263 14.1152 20.41C14.2212 20.2243 14.3281 20.0466 14.4362 19.877C14.4905 19.9642 14.5663 20.0425 14.6606 20.1021L20.2855 23.6429C21.5528 24.4401 22.909 25.088 24.3236 25.5719L30.6434 27.7348C30.7833 27.7818 30.9282 27.7823 31.0596 27.7442C30.9789 27.9445 30.8921 28.1415 30.8022 28.335Z" fill="#099684"/>
<path d="M27.618 36.3571C27.744 35.9977 27.8468 35.6367 27.9159 35.2819C27.9884 34.9086 27.8163 34.5314 27.4863 34.3426C25.4015 33.149 17.4253 28.6777 11.4987 26.667C11.1334 26.5431 10.7315 26.6648 10.4988 26.9724C10.3252 27.2017 10.1078 27.5018 9.87244 27.8533C9.64677 28.1907 9.74179 28.6481 10.0855 28.8644L15.9348 32.5444C17.2523 33.3735 18.6616 34.0466 20.1344 34.5505L26.7061 36.7995C27.0794 36.9273 27.4873 36.7297 27.618 36.3571Z" fill="#0AAD99"/>
<path d="M26.8505 37.726C26.6709 37.8394 26.443 37.8734 26.2273 37.7997L19.6556 35.551C18.184 35.0473 16.774 34.3736 15.4573 33.5453L9.60649 29.8648C9.45693 29.7712 9.35415 29.6311 9.30664 29.4731C9.49765 29.1608 9.6792 28.8736 9.84622 28.6113C9.90173 28.7117 9.98075 28.7985 10.085 28.8632L15.9358 32.5438C17.2522 33.372 18.6625 34.0454 20.1341 34.5494L26.7058 36.7981C26.8645 36.8519 27.0284 36.849 27.1743 36.7957C27.0757 37.1052 26.9661 37.4169 26.8505 37.726Z" fill="#099684"/>
<path d="M22.4056 24.61C22.6048 24.61 22.7663 24.4486 22.7663 24.2494C22.7663 24.0502 22.6048 23.8887 22.4056 23.8887C22.2064 23.8887 22.0449 24.0502 22.0449 24.2494C22.0449 24.4486 22.2064 24.61 22.4056 24.61Z" fill="#099684"/>
<path d="M21.6273 23.3868C21.8134 23.2845 22.0088 23.2375 22.217 23.2236C22.424 23.2103 22.641 23.2421 22.8444 23.3269C23.0477 23.41 23.2322 23.5567 23.3534 23.7373C23.485 23.9128 23.5439 24.1208 23.5684 24.32C23.5759 24.3818 23.532 24.4378 23.4702 24.4453C23.4283 24.4504 23.3888 24.4317 23.3655 24.3998L23.357 24.3879C23.2504 24.2403 23.1636 24.098 23.0458 23.9932C22.9345 23.8842 22.8116 23.7986 22.6686 23.7443C22.5285 23.6854 22.3729 23.6503 22.2081 23.6284C22.0444 23.6086 21.8656 23.602 21.6925 23.5989L21.6792 23.5986C21.6169 23.5974 21.5672 23.546 21.5684 23.4837C21.5696 23.4418 21.5931 23.4057 21.6273 23.3868Z" fill="#099684"/>
<path d="M14.805 19.1598C15.0353 18.946 15.3021 18.8457 15.5782 18.7717C15.8536 18.7058 16.1377 18.6777 16.4152 18.6905C16.5546 18.6937 16.694 18.7014 16.83 18.724C16.966 18.7456 17.1053 18.7553 17.2382 18.788L17.6401 18.8735L18.0311 18.9911C18.2928 19.066 18.5411 19.1729 18.7939 19.2682C19.0377 19.3823 19.2855 19.4878 19.5223 19.6129C19.9979 19.8603 20.4487 20.1476 20.8858 20.4501C20.9362 20.485 20.9488 20.5543 20.9139 20.6048C20.8834 20.6489 20.8264 20.6641 20.7789 20.6438L20.7736 20.6414C20.5312 20.5379 20.2948 20.4259 20.0582 20.3153L19.3388 20.0118L18.6135 19.7377C18.366 19.6684 18.1266 19.5714 17.8783 19.5137C17.3868 19.3743 16.8864 19.2893 16.3912 19.2611C15.9001 19.2321 15.3984 19.2364 14.9301 19.3426L14.9046 19.3484C14.845 19.362 14.7858 19.3244 14.7722 19.265C14.7633 19.2255 14.7771 19.1858 14.805 19.1598Z" fill="#0BBDA7"/>
<path d="M30.1004 28.8082C30.1159 29.4013 29.8956 30.001 29.4471 30.4555C29.2248 30.6822 28.9388 30.8482 28.6402 30.9532C28.3377 31.0521 28.0247 31.0865 27.7217 31.0816C27.1126 31.0637 26.5495 30.8848 26.03 30.6538C25.512 30.4153 25.0311 30.121 24.5885 29.78C24.5395 29.7421 24.5305 29.6721 24.5681 29.6231C24.5996 29.5822 24.6542 29.5691 24.7 29.5882L24.7014 29.5889C25.2085 29.8018 25.7069 30.0151 26.2147 30.1741C26.7184 30.3372 27.2338 30.4543 27.7278 30.449C28.2228 30.4497 28.6763 30.3021 29.0377 30.0081C29.4011 29.7145 29.6779 29.2661 29.88 28.7803L29.8851 28.7682C29.9089 28.7112 29.9743 28.6841 30.0315 28.7078C30.0735 28.7253 30.0992 28.7655 30.1004 28.8082Z" fill="#0BBDA7"/>
<path d="M18.1966 33.4167C18.3958 33.4167 18.5573 33.2552 18.5573 33.056C18.5573 32.8568 18.3958 32.6953 18.1966 32.6953C17.9974 32.6953 17.8359 32.8568 17.8359 33.056C17.8359 33.2552 17.9974 33.4167 18.1966 33.4167Z" fill="#099684"/>
<path d="M17.4181 32.1934C17.6042 32.0911 17.7996 32.0441 18.0078 32.0303C18.2148 32.0169 18.4318 32.0487 18.6351 32.1335C18.8385 32.2167 19.023 32.3633 19.1442 32.5439C19.2758 32.7194 19.3347 32.9274 19.3592 33.1266C19.3667 33.1885 19.3228 33.2445 19.2613 33.252C19.2191 33.2571 19.1798 33.2384 19.1565 33.2064L19.1481 33.1945C19.0414 33.0469 18.9546 32.9046 18.8368 32.7999C18.7256 32.6908 18.6027 32.6052 18.4596 32.5509C18.3195 32.492 18.1639 32.4569 17.9991 32.4351C17.8355 32.4152 17.6566 32.4087 17.4835 32.4055L17.4702 32.4053C17.4079 32.4041 17.3582 32.3527 17.3594 32.2901C17.3604 32.2484 17.3839 32.2123 17.4181 32.1934Z" fill="#099684"/>
<path d="M10.5959 27.9684C10.8261 27.7546 11.093 27.6543 11.3691 27.5803C11.6445 27.5144 11.9286 27.4863 12.2061 27.4991C12.3455 27.5023 12.4849 27.51 12.6209 27.5326C12.7569 27.5542 12.8962 27.5639 13.0291 27.5966L13.431 27.6821L13.822 27.7997C14.0837 27.8746 14.332 27.9815 14.5848 28.0768C14.8286 28.1909 15.0764 28.2964 15.3134 28.4215C15.789 28.6689 16.2399 28.9562 16.6769 29.2587C16.7273 29.2936 16.7399 29.3629 16.705 29.4134C16.6745 29.4575 16.6175 29.4727 16.57 29.4524L16.5647 29.45C16.3221 29.3464 16.0857 29.2345 15.8494 29.1239L15.1299 28.8204L14.4047 28.5463C14.1572 28.477 13.9177 28.38 13.6695 28.3223C13.1779 28.1829 12.6776 28.0979 12.1824 28.0697C11.6913 28.0406 11.1895 28.045 10.7212 28.1512L10.6957 28.157C10.6361 28.1706 10.5767 28.133 10.5634 28.0736C10.5542 28.0341 10.568 27.9943 10.5959 27.9684Z" fill="#0BBDA7"/>
<path d="M22.4422 44.8394C22.4577 45.4326 22.2374 46.0323 21.7889 46.4868C21.5666 46.7134 21.2806 46.8795 20.9817 46.9844C20.6795 47.0833 20.3663 47.1177 20.0635 47.1129C19.4544 47.0949 18.8913 46.9161 18.3718 46.6848C17.8538 46.4463 17.3729 46.152 16.9303 45.811C16.8813 45.7734 16.8723 45.7031 16.9099 45.6541C16.9414 45.6132 16.996 45.6001 17.0418 45.6192L17.0432 45.62C17.5503 45.8328 18.0487 46.0461 18.5565 46.2051C19.0602 46.3685 19.5756 46.4856 20.0696 46.4802C20.5646 46.4809 21.0181 46.3333 21.3795 46.0393C21.7431 45.7458 22.0197 45.2973 22.2218 44.8115L22.2269 44.7994C22.2507 44.7425 22.3161 44.7153 22.3733 44.7391C22.4153 44.7565 22.441 44.7968 22.4422 44.8394Z" fill="#0BBDA7"/>
</svg>
