<svg width="40" height="40" viewBox="0 0 40 40" fill="none" xmlns="http://www.w3.org/2000/svg">
<path d="M38.4898 20.8627L38.0621 20.5432C38.5325 19.7986 38.7402 18.9024 38.6107 18.0005C38.4809 17.0968 38.0322 16.2896 37.3709 15.7079L37.6871 15.2859C38.3119 14.4523 38.4311 13.3441 37.9981 12.3967C37.5655 11.4496 36.6497 10.8142 35.6109 10.7406L35.0839 10.7028C35.0779 9.95679 34.8509 9.21927 34.4147 8.59026C33.8185 7.73 32.8991 7.16361 31.8845 7.01027L31.9222 6.48479C31.998 5.44558 31.4995 4.44798 30.6225 3.88444C30.1554 3.58381 29.62 3.43261 29.0838 3.43261C28.6146 3.43261 28.1439 3.54859 27.7173 3.78198L27.2587 4.0328C26.581 2.98896 25.413 2.32935 24.0984 2.32935C23.5619 2.32935 23.0424 2.44142 22.5653 2.65524L22.3152 2.19558C21.8172 1.28089 20.8587 0.711293 19.817 0.710938H19.8159C18.7746 0.710938 17.8165 1.27982 17.3177 2.19345L17.0654 2.6556C16.5891 2.44178 16.0689 2.32935 15.5317 2.32935C14.2132 2.32935 13.0452 2.99038 12.3696 4.0328L11.911 3.78198C11.4844 3.54859 11.0141 3.43261 10.5445 3.43261C10.0083 3.43261 9.47287 3.58417 9.00538 3.88444C8.12875 4.44798 7.63031 5.44558 7.70609 6.48479L7.74381 7.01027C6.72914 7.16396 5.80947 7.73071 5.21319 8.59097C4.77737 9.22033 4.55109 9.95821 4.5454 10.7032L4.01814 10.7406C2.97893 10.8142 2.06317 11.4493 1.63054 12.3967C1.19757 13.3441 1.31675 14.4523 1.94149 15.2859L2.25849 15.7089C1.59711 16.2917 1.1499 17.0989 1.02075 18.0019C0.891606 18.9041 1.10009 19.8 1.56935 20.5432L1.14136 20.8634C0.307066 21.4874 -0.119509 22.517 0.0292045 23.5484C0.177918 24.5794 0.878082 25.4472 1.85433 25.8104L2.34672 25.9933C2.10444 26.8429 2.16492 27.765 2.54524 28.5954C2.92485 29.4233 3.58446 30.0633 4.38032 30.4341L4.19354 30.9339C3.82923 31.9098 4.02633 33.0067 4.7087 33.794C5.25553 34.4251 6.04392 34.7766 6.85971 34.7766C7.06107 34.7766 7.26458 34.7553 7.46631 34.7112L7.98253 34.5987C8.14654 35.142 8.43258 35.6476 8.82465 36.0695C9.53691 36.8362 10.5434 37.2759 11.5862 37.2759C11.7555 37.2759 11.9241 37.2624 12.0917 37.2393L12.2041 37.7569C12.4251 38.7752 13.185 39.5913 14.1847 39.8845C14.4484 39.962 14.718 39.9994 14.9852 39.9994C15.7309 39.9994 16.4592 39.7062 17.0007 39.163L17.3725 38.7905C18.0431 39.3622 18.9059 39.6906 19.817 39.6906C20.7267 39.6906 21.588 39.3633 22.259 38.7915L22.6297 39.1633C23.1716 39.7062 23.8995 39.9994 24.6452 39.9994C24.9124 39.9994 25.1821 39.962 25.4457 39.8845C26.4458 39.5913 27.2053 38.7752 27.4263 37.7569L27.5383 37.2411C27.7066 37.2642 27.8763 37.2763 28.0464 37.2763C29.0899 37.2763 30.0967 36.8362 30.8097 36.0688C31.2014 35.6469 31.4871 35.142 31.6511 34.5991L32.1684 34.7115C32.3697 34.7556 32.5729 34.777 32.7743 34.777C33.5901 34.777 34.3788 34.4258 34.9256 33.7943C35.6076 33.007 35.8051 31.9102 35.4404 30.9343L35.2551 30.438C36.0495 30.0676 36.7038 29.424 37.083 28.6008C37.4651 27.7711 37.5274 26.8479 37.2844 25.9947L37.7786 25.8108C38.7555 25.4479 39.4564 24.5802 39.6048 23.5488C39.7517 22.5167 39.3248 21.4863 38.4898 20.8627Z" fill="#AFBDC4"/>
<path d="M38.4898 20.1517L38.0621 19.8323C38.5325 19.0876 38.7402 18.1914 38.6107 17.2895C38.4809 16.3859 38.0322 15.5786 37.3709 14.9969L37.6871 14.575C38.3119 13.7414 38.4311 12.6332 37.9981 11.6857C37.5655 10.7387 36.6497 10.1033 35.6109 10.0296L35.0839 9.99191C35.0779 9.24585 34.8509 8.50833 34.4147 7.87932C33.8185 7.01906 32.8991 6.45267 31.8845 6.29933L31.9222 5.77385C31.998 4.73464 31.4995 3.73705 30.6225 3.1735C30.1554 2.87287 29.62 2.72167 29.0838 2.72167C28.6146 2.72167 28.1439 2.83765 27.7173 3.07104L27.2587 3.32186C26.581 2.27802 25.413 1.61841 24.0984 1.61841C23.5619 1.61841 23.0424 1.73048 22.5653 1.9443L22.3152 1.48465C21.8172 0.569951 20.8587 0.000355774 19.817 0H19.8159C18.7746 0 17.8165 0.568885 17.3177 1.48251L17.0654 1.94466C16.5891 1.73084 16.0689 1.61841 15.5317 1.61841C14.2132 1.61841 13.0452 2.27944 12.3696 3.32186L11.911 3.07104C11.4844 2.83765 11.0141 2.72167 10.5445 2.72167C10.0083 2.72167 9.47287 2.87323 9.00538 3.1735C8.12875 3.73705 7.63031 4.73464 7.70609 5.77385L7.74381 6.29933C6.72914 6.45303 5.80947 7.01977 5.21319 7.88003C4.77737 8.5094 4.55109 9.24727 4.5454 9.99226L4.01814 10.0296C2.97893 10.1033 2.06317 10.7383 1.63054 11.6857C1.19757 12.6332 1.31675 13.7414 1.94149 14.575L2.25849 14.998C1.59711 15.5808 1.1499 16.388 1.02075 17.291C0.891606 18.1932 1.10009 19.089 1.56935 19.8323L1.14136 20.1524C0.307066 20.7765 -0.119509 21.8061 0.0292045 22.8375C0.177918 23.8685 0.878082 24.7362 1.85433 25.0995L2.34672 25.2823C2.10444 26.1319 2.16492 27.0541 2.54524 27.8845C2.92485 28.7124 3.58446 29.3524 4.38032 29.7231L4.19354 30.223C3.82923 31.1989 4.02633 32.2957 4.7087 33.083C5.25553 33.7142 6.04392 34.0657 6.85971 34.0657C7.06107 34.0657 7.26458 34.0443 7.46631 34.0002L7.98253 33.8878C8.14654 34.4311 8.43258 34.9366 8.82465 35.3586C9.53691 36.1253 10.5434 36.565 11.5862 36.565C11.7555 36.565 11.9241 36.5515 12.0917 36.5284L12.2041 37.046C12.4251 38.0642 13.185 38.8804 14.1847 39.1735C14.4484 39.2511 14.718 39.2885 14.9852 39.2885C15.7309 39.2885 16.4592 38.9953 17.0007 38.452L17.3725 38.0795C18.0431 38.6513 18.9059 38.9796 19.817 38.9796C20.7267 38.9796 21.588 38.6523 22.259 38.0806L22.6297 38.4524C23.1716 38.9953 23.8995 39.2885 24.6452 39.2885C24.9124 39.2885 25.1821 39.2511 25.4457 39.1735C26.4458 38.8804 27.2053 38.0642 27.4263 37.046L27.5383 36.5301C27.7066 36.5533 27.8763 36.5654 28.0464 36.5654C29.0899 36.5654 30.0967 36.1253 30.8097 35.3579C31.2014 34.9359 31.4871 34.4311 31.6511 33.8882L32.1684 34.0006C32.3697 34.0447 32.5729 34.066 32.7743 34.066C33.5901 34.066 34.3788 33.7149 34.9256 33.0834C35.6076 32.2961 35.8051 31.1992 35.4404 30.2233L35.2551 29.727C36.0495 29.3567 36.7038 28.7131 37.083 27.8898C37.4651 27.0602 37.5274 26.1369 37.2844 25.2838L37.7786 25.0998C38.7555 24.7369 39.4564 23.8692 39.6048 22.8378C39.7517 21.8057 39.3248 20.7754 38.4898 20.1517Z" fill="white"/>
<path d="M9.15141 13.1726C7.89197 15.14 7.15907 17.481 7.15907 19.9928H6.10598L4.19547 18.5626C3.612 18.1285 3.74364 17.2178 4.42317 16.9652L6.66099 16.1327L4.21683 12.8702L8.28332 12.582L9.15141 13.1726Z" fill="#FE7043"/>
<path d="M7.15929 19.9922C7.15929 22.5039 7.89218 24.8449 9.15162 26.8124L8.28353 27.4029L5.89984 27.2322C5.17407 27.1824 4.79339 26.3463 5.23099 25.7628L6.66121 23.8523L2.84375 22.4328L6.1062 19.9922H7.15929Z" fill="#FE7043"/>
<path d="M9.15217 26.8125C10.4685 28.8653 12.3648 30.5161 14.6062 31.5301L14.1188 32.4586L12.0268 33.6042C11.3864 33.9564 10.6144 33.4584 10.6678 32.7326L10.8385 30.3525L6.85742 31.2205L8.28408 27.4031L9.15217 26.8125Z" fill="#FE7043"/>
<path d="M19.8136 7.34108C15.3344 7.34108 11.3995 9.66428 9.15104 13.1722L8.28296 12.5816L7.44689 10.3474C7.19073 9.66428 7.79199 8.97053 8.50353 9.12707L10.8374 9.63582L10.5421 5.56933L14.1176 7.52608L14.6264 5.1922C14.7794 4.48066 15.6617 4.22094 16.174 4.73681L17.8604 6.42674L19.8136 2.84766L21.7632 6.42674L23.4496 4.73681C23.9655 4.22094 24.8442 4.48066 25.0008 5.1922L25.506 7.52608L29.0815 5.56933L28.7862 9.63582L31.1201 9.12707C31.8316 8.97053 32.4329 9.66428 32.1767 10.3474L31.3442 12.5816L35.4071 12.8698L32.963 16.1323L35.2008 16.9648C35.8839 17.2174 36.0155 18.1281 35.432 18.5622L33.518 19.9924H32.4649C32.4649 13.005 26.801 7.34108 19.8136 7.34108Z" fill="#FE7043"/>
<path d="M17.8599 33.5578L14.9817 36.4432L14.1172 32.4585L14.6046 31.5299C16.1913 32.2486 17.956 32.6471 19.8131 32.6471C26.8005 32.6471 32.4644 26.9796 32.4644 19.9922H33.5175L36.7835 22.4328L32.9625 23.8523L34.3963 25.7628C34.8303 26.3463 34.4497 27.1824 33.7239 27.2322L31.3438 27.4029L32.7704 31.2204L28.7857 30.3523L28.9601 32.7324C29.0134 33.4582 28.2378 33.9563 27.601 33.6041L25.5055 32.4585L24.641 36.4432L21.7628 33.5578L20.6207 35.6569C20.2721 36.2937 19.3542 36.2937 19.0055 35.6569L17.8599 33.5578Z" fill="#FE7043"/>
<path d="M9.10268 25.4436C11.0915 29.3428 15.1402 32.0112 19.815 32.0112C26.4502 32.0112 31.8331 26.6319 31.8331 19.9931C31.8331 15.0016 28.7912 10.7216 24.4579 8.9072C23.0277 8.30594 21.4587 7.97507 19.815 7.97507C13.1763 7.97507 7.79699 13.3544 7.79699 19.9931C7.79699 21.957 8.27017 23.807 9.10268 25.4436ZM19.815 32.648C17.9579 32.648 16.1932 32.2495 14.6065 31.5309C12.3651 30.5169 10.4689 28.8661 9.15249 26.8133C7.89305 24.8459 7.16016 22.5049 7.16016 19.9931C7.16016 17.4814 7.89305 15.1404 9.15249 13.1729C11.401 9.665 15.3358 7.3418 19.815 7.3418C26.8024 7.3418 32.4663 13.0057 32.4663 19.9931C32.4663 26.9805 26.8024 32.648 19.815 32.648Z" fill="#F3511E"/>
<path d="M17.1466 28.8087C13.998 28.8087 11.1518 27.5208 9.10256 25.4431C8.27005 23.8065 7.79688 21.9565 7.79688 19.9927C7.79688 13.3539 13.1762 7.97461 19.8149 7.97461C21.4586 7.97461 23.0275 8.30548 24.4578 8.90673C26.8948 10.9773 28.4424 14.0655 28.4424 17.5129C28.4424 23.7532 23.3833 28.8087 17.1466 28.8087Z" fill="#FEC928"/>
<path d="M9.10156 25.4426C11.1508 27.5203 13.997 28.8082 17.1456 28.8082C23.3823 28.8082 28.4414 23.7527 28.4414 17.5124C28.4414 14.065 26.8938 10.9769 24.4568 8.90625C28.7901 10.7207 31.8319 15.0007 31.8319 19.9922C31.8319 26.6309 26.4491 32.0102 19.8139 32.0102C15.139 32.0102 11.0903 29.3419 9.10156 25.4426Z" fill="#FEC007"/>
<path d="M18.1631 18.2692C18.1631 18.4659 18.3221 18.6249 18.5189 18.6249C18.7156 18.6249 18.8746 18.4659 18.8746 18.2692C18.8746 16.8991 17.7603 15.7852 16.3906 15.7852C15.0205 15.7852 13.9062 16.8994 13.9062 18.2692C13.9062 18.4659 14.0653 18.6249 14.262 18.6249C14.4588 18.6249 14.6178 18.4659 14.6178 18.2692C14.6178 17.2919 15.413 16.4967 16.3906 16.4967C17.3679 16.4967 18.1631 17.2919 18.1631 18.2692ZM23.3567 19.4141C23.3542 19.4141 23.3517 19.4126 23.3492 19.4126C23.3467 19.4126 23.3446 19.4141 23.3421 19.4141C23.0055 19.4158 22.6693 19.5443 22.4131 19.8004C22.274 19.9395 22.274 20.1644 22.4131 20.3035C22.5523 20.4426 22.7771 20.4426 22.9162 20.3035C22.9258 20.2939 22.9372 20.2871 22.9472 20.2779C22.7038 21.7024 21.4636 22.791 19.9704 22.791C18.4779 22.791 17.2377 21.7024 16.994 20.2782C17.004 20.2871 17.0154 20.2939 17.025 20.3035C17.0943 20.3729 17.1854 20.4077 17.2765 20.4077C17.3676 20.4077 17.4586 20.3729 17.528 20.3035C17.6671 20.1644 17.6671 19.9392 17.528 19.8004C17.2712 19.5436 16.9342 19.4151 16.5966 19.4137C16.5948 19.4137 16.5934 19.4126 16.5916 19.4126C16.5899 19.4126 16.5884 19.4137 16.5866 19.4137C16.249 19.4148 15.9121 19.5436 15.6556 19.8004C15.5165 19.9395 15.5165 20.1644 15.6556 20.3035C15.7947 20.4426 16.0195 20.4426 16.1587 20.3035C16.1917 20.2708 16.228 20.2434 16.2657 20.2195C16.4895 22.066 18.0642 23.5026 19.9701 23.5026C21.8763 23.5026 23.4509 22.066 23.6747 20.2192C23.7124 20.243 23.7487 20.2704 23.7818 20.3035C23.8512 20.3729 23.9423 20.4077 24.0333 20.4077C24.1244 20.4077 24.2155 20.3729 24.2849 20.3035C24.424 20.1644 24.424 19.9395 24.2849 19.8004C24.0291 19.5443 23.6932 19.4158 23.3567 19.4141ZM23.2393 15.7852C21.8692 15.7852 20.7549 16.8994 20.7549 18.2692C20.7549 18.4659 20.9139 18.6249 21.1107 18.6249C21.3074 18.6249 21.4664 18.4659 21.4664 18.2692C21.4664 17.2919 22.2616 16.4967 23.2393 16.4967C24.2166 16.4967 25.0121 17.2919 25.0121 18.2692C25.0121 18.4659 25.1711 18.6249 25.3679 18.6249C25.5646 18.6249 25.7236 18.4659 25.7236 18.2692C25.7236 16.8994 24.6093 15.7852 23.2393 15.7852Z" fill="#4E342E"/>
</svg>
