<svg width="56" height="54" viewBox="0 0 56 54" fill="none" xmlns="http://www.w3.org/2000/svg">
<path d="M18.7101 32.1812L18.0331 33.2571L17.761 33.086L15.4935 31.6602L15.2175 31.4868L15.8939 30.4107L16.1699 30.5841L18.4374 32.0098L18.7101 32.1812Z" fill="white"/>
<path d="M30.5905 39.6534L29.9141 40.7295L29.6453 40.5603L27.3778 39.1345L27.1057 38.9634L27.782 37.8873L28.0548 38.0586L30.3217 39.4842L30.5905 39.6534Z" fill="white"/>
<path d="M39.6174 25.2979L38.9432 26.3702L38.6737 26.2008L36.4068 24.7752L36.1341 24.6038L36.8083 23.5316L37.081 23.7029L39.3485 25.1287L39.6174 25.2979Z" fill="white"/>
<path d="M27.7365 17.8272L27.0621 18.9001L26.7894 18.7287L24.5225 17.3031L24.2467 17.1292L24.9209 16.0569L25.1969 16.2303L27.4638 17.6559L27.7365 17.8272Z" fill="white"/>
<path d="M39.5716 44.8913L39.5696 44.8946C39.5497 44.8725 39.5253 44.8569 39.5029 44.8379C39.5273 44.8536 39.5498 44.8725 39.5716 44.8913Z" fill="#113D48"/>
<path d="M47.3737 32.1107C47.289 32.0673 47.2043 32.0239 47.1206 31.9707C47.2065 32.02 47.289 32.0673 47.3737 32.1107Z" fill="#113D48"/>
<path d="M48.8939 23.7561L45.4143 21.568C45.1834 21.4232 44.8883 21.4663 44.7092 21.6654C44.5635 21.8274 44.4284 21.9956 44.2963 22.1663C44.1823 22.3238 44.07 22.4874 43.967 22.6513C41.8165 26.0716 42.8482 30.6006 46.2652 32.7492C46.3491 32.8018 46.4316 32.8491 46.5175 32.8984C46.6175 32.9566 46.7196 33.0109 46.8218 33.0652C46.8697 33.0901 46.9196 33.1117 46.9634 33.135C47.1654 33.2325 47.3713 33.3234 47.5808 33.4015C47.8239 33.4961 48.1016 33.4022 48.2423 33.1785L50.2986 29.9084C51.6081 27.8267 50.9797 25.0672 48.8939 23.7561Z" fill="#113D48"/>
<path d="M40.6701 44.3916C40.5089 44.2368 40.3377 44.0903 40.1626 43.9503C40.1227 43.9205 40.0817 43.8847 40.0386 43.8529C39.9453 43.7844 39.8515 43.7158 39.7561 43.6512C39.6744 43.5947 39.5964 43.5411 39.5125 43.4885C36.096 41.3401 31.5648 42.3757 29.4158 45.7919C29.3127 45.9564 29.2141 46.1281 29.1193 46.3026C29.0248 46.4915 28.9293 46.6901 28.849 46.888C28.7471 47.1357 28.8335 47.424 29.0642 47.5694L32.5438 49.7575C34.6294 51.0692 37.3914 50.4363 38.7009 48.3546L40.7572 45.0846C40.8967 44.8604 40.8602 44.5693 40.6701 44.3916ZM39.5028 44.8369C39.5272 44.8526 39.5498 44.871 39.5717 44.8897L39.5697 44.893C39.5496 44.8716 39.5252 44.8559 39.5028 44.8369Z" fill="#113D48"/>
<path d="M41.9733 20.807C42.0642 20.8643 42.1659 20.8886 42.2673 20.8897L42.5535 21.0698L40.403 24.4901L39.4669 23.9012L41.5716 20.5545L41.9733 20.807Z" fill="#113D48"/>
<path d="M30.4468 38.2667L31.3831 38.8555L38.5602 27.443L37.624 26.8542L30.4468 38.2667Z" fill="#113D48"/>
<path d="M26.4463 44.628L27.3826 45.2168L29.5333 41.7969L28.5971 41.2081L26.4463 44.628Z" fill="#113D48"/>
<path d="M48.2428 33.1788C48.1022 33.4026 47.8241 33.4957 47.5814 33.4019C47.3718 33.3238 47.1657 33.2335 46.964 33.1354C46.9199 33.1127 46.8701 33.0911 46.8224 33.0656C46.7202 33.0113 46.6182 32.9564 46.518 32.8988C46.4322 32.8495 46.3494 32.8028 46.2658 32.7496C42.8493 30.6013 41.817 26.072 43.9676 22.6517C44.0708 22.4872 44.1834 22.3244 44.2968 22.1667C44.4283 21.9957 44.5641 21.8278 44.7097 21.6657C44.8889 21.4666 45.1842 21.423 45.4148 21.5684L43.0707 20.0942L42.928 20.3212C42.9295 20.4195 42.9036 20.5152 42.8482 20.6027L42.554 21.0708L40.4035 24.4912L40.6723 24.6604C40.9309 24.8228 41.0107 25.1608 40.8483 25.4194L39.5851 27.4277C39.4247 27.683 39.0814 27.7642 38.8228 27.6017L38.554 27.4325L31.3771 38.8455L31.646 39.0147C31.9045 39.1772 31.9824 39.5185 31.82 39.7771L30.5588 41.7821C30.3964 42.0407 30.0551 42.1185 29.7965 41.9561L29.5277 41.7869L27.3774 45.2066L27.0852 45.6715C26.9227 45.9301 26.5814 46.0079 26.3229 45.8455L29.0649 47.57C28.8342 47.4246 28.7478 47.1362 28.8497 46.8885C28.93 46.6907 29.0255 46.492 29.1199 46.3031C29.2148 46.1286 29.3133 45.9569 29.4165 45.7925C31.5649 42.376 36.0961 41.3404 39.5132 43.4891C39.597 43.5416 39.6754 43.5961 39.7567 43.6517C39.8527 43.7165 39.946 43.785 40.0393 43.8534C40.0824 43.8853 40.1233 43.921 40.1632 43.9509C40.3386 44.0902 40.5096 44.2373 40.6707 44.3921C40.8607 44.5704 40.8974 44.8609 40.7567 45.0846L48.2428 33.1788Z" fill="#FFA944"/>
<path d="M42.9275 20.3204C42.929 20.4187 42.9031 20.5143 42.8477 20.6018L42.5536 21.07L42.2673 20.8899C42.4475 20.8907 42.6266 20.7988 42.7324 20.6312L42.9275 20.3204Z" fill="#113D48"/>
<path d="M42.9273 20.3211C42.9326 20.1345 42.8429 19.9514 42.6721 19.8438L43.0705 20.0943L42.9273 20.3211Z" fill="#113D48"/>
<path d="M42.2673 20.8911C42.1651 20.8904 42.0642 20.8658 41.9734 20.8084L41.5717 20.556L41.6181 20.4826L42.2673 20.8911Z" fill="#113D48"/>
<path d="M27.2469 40.3711L25.0962 43.791L26.4308 44.6303L28.5815 41.2104L27.2469 40.3711Z" fill="white"/>
<path d="M36.2748 26.0192L29.0977 37.4316L30.4322 38.271L37.6094 26.8585L36.2748 26.0192Z" fill="white"/>
<path d="M40.2297 19.7315L38.125 23.0781L39.4596 23.9174L41.5643 20.5708L40.2297 19.7315Z" fill="white"/>
<path d="M41.6024 20.4741L40.2678 19.6348L40.2217 19.708L41.5563 20.5473L41.6024 20.4741Z" fill="#113D48"/>
<path d="M40.8971 18.7346L40.853 18.8047L42.0897 19.5826L42.1338 19.5125L40.8971 18.7346Z" fill="#113D48"/>
<path d="M40.8571 18.7996L40.1131 18.3315C40.2114 18.33 40.311 18.3582 40.4051 18.4175L40.9009 18.7293L40.8571 18.7996Z" fill="#113D48"/>
<path d="M39.8464 19.3675C40.105 19.53 40.4463 19.4521 40.6087 19.1935L40.8571 18.799L42.0938 19.5763L42.1374 19.5066L42.672 19.8424C42.8434 19.9503 42.9325 20.1332 42.9272 20.3197L42.732 20.6306C42.6263 20.7981 42.4471 20.89 42.2669 20.8892L41.6171 20.4804L40.2826 19.641L39.8464 19.3675Z" fill="#113D48"/>
<path d="M37.2069 22.4858L38.1394 23.0723L40.2441 19.7256L39.3116 19.1392L37.2069 22.4858Z" fill="#113D48"/>
<path d="M28.1653 36.8512L29.0979 37.4375L36.2738 26.0246L35.3413 25.4382L28.1653 36.8512Z" fill="#113D48"/>
<path d="M24.1798 43.2026L25.1123 43.7891L27.263 40.3692L26.3305 39.7827L24.1798 43.2026Z" fill="#113D48"/>
<path d="M24.1729 43.1914L25.1059 43.7777L26.4404 44.6171L27.3764 45.206L27.0843 45.6709C26.9218 45.9295 26.5805 46.0073 26.3219 45.8449L24.0544 44.4191C23.7926 44.2547 23.718 43.9154 23.8804 43.6568L24.1729 43.1914Z" fill="#113D48"/>
<path d="M40.2371 19.7165L39.3041 19.1302L39.3505 19.0568L39.8463 19.3686L40.2827 19.6435L40.2371 19.7165Z" fill="#113D48"/>
<path d="M39.8464 19.3685L39.3505 19.0567L39.6447 18.5886C39.7478 18.4241 39.9276 18.3325 40.1128 18.3325L40.8568 18.8006L40.6084 19.1951C40.4462 19.4531 40.1049 19.531 39.8464 19.3685Z" fill="#113D48"/>
<path d="M40.6719 24.6591L40.4031 24.4899L39.467 23.901L38.1325 23.0616L37.1998 22.4746L36.927 22.3032C36.6685 22.1408 36.3325 22.2173 36.17 22.4759L34.9069 24.4842C34.7464 24.7395 34.8184 25.0819 35.077 25.2443L35.3497 25.4157L36.2827 26.0021L37.6172 26.8415L38.5533 27.4304L38.8221 27.5996C39.0807 27.7621 39.424 27.6809 39.5845 27.4256L40.8476 25.4173C41.0104 25.1595 40.9305 24.8215 40.6719 24.6591ZM38.9433 26.3702L38.6744 26.201L36.4075 24.7754L36.1348 24.604L36.809 23.5318L37.0817 23.7032L39.3486 25.1287L39.6174 25.2979L38.9433 26.3702Z" fill="#113D48"/>
<path d="M31.6457 39.0142L31.3769 38.8451L30.4408 38.2561L29.1063 37.4167L28.1735 36.8298L27.9008 36.6584C27.6422 36.4959 27.3042 36.5758 27.1418 36.8344L25.8813 38.8396C25.7188 39.0982 25.7928 39.4373 26.0514 39.5997L26.3241 39.7711L27.2571 40.3575L28.5916 41.1969L29.5276 41.7858L29.7965 41.955C30.0551 42.1175 30.3963 42.0396 30.5588 41.781L31.8199 39.776C31.9819 39.5186 31.9041 39.1773 31.6457 39.0142ZM29.9142 40.729L29.6454 40.5598L27.3779 39.134L27.1052 38.9626L27.7816 37.8865L28.0543 38.0579L30.3212 39.4834L30.59 39.6526L29.9142 40.729Z" fill="#113D48"/>
<path d="M27.5918 16.4366L28.5281 17.0254L30.6327 13.6788L29.6965 13.09L27.5918 16.4366Z" fill="#113D48"/>
<path d="M18.5581 30.794L19.4944 31.3828L26.6716 19.9704L25.7353 19.3816L18.5581 30.794Z" fill="#113D48"/>
<path d="M14.5525 37.1613L15.4888 37.75L17.6391 34.33L16.7028 33.7413L14.5525 37.1613Z" fill="#113D48"/>
<path d="M39.9684 18.1425L31.1795 12.6154L30.7882 12.369C30.8791 12.4263 30.9511 12.5055 30.9921 12.5948C31.0724 12.762 31.0673 12.9636 30.9642 13.128L30.67 13.5962L30.6236 13.6696L28.5189 17.0163L28.7877 17.1855C29.0463 17.3479 29.1261 17.6859 28.9637 17.9445L27.7003 19.9534C27.5398 20.2087 27.1966 20.2898 26.938 20.1274L26.6692 19.9582L19.4923 31.3712L19.7612 31.5404C20.0197 31.7029 20.0976 32.0442 19.9352 32.3027L18.674 34.3078C18.5116 34.5663 18.1703 34.6442 17.9117 34.4817L17.6429 34.3126L15.4923 37.7329L15.2001 38.1978C15.0377 38.4563 14.6964 38.5342 14.4378 38.3718L24.0551 44.4198C23.7927 44.2551 23.7187 43.916 23.8811 43.6575L24.1733 43.1926L26.3239 39.7723L26.0512 39.6009C25.7926 39.4384 25.718 39.0991 25.8811 38.8408L27.1416 36.8355C27.3041 36.5769 27.6421 36.4971 27.9006 36.6595L28.1734 36.8309L35.3502 25.4179L35.0775 25.2465C34.8189 25.0841 34.7471 24.7411 34.9074 24.4864L36.1705 22.4781C36.333 22.2195 36.669 22.143 36.9275 22.3054L37.2003 22.4768L39.305 19.1301L39.3514 19.0567L39.6456 18.5885C39.7487 18.4241 39.9285 18.3324 40.1137 18.3324C40.212 18.331 40.3116 18.3591 40.4057 18.4184L39.9684 18.1425Z" fill="#FFA944"/>
<path d="M30.2427 12.0272L30.7876 12.3698C30.8784 12.4271 30.9505 12.5063 30.9915 12.5956L30.1985 12.0968L30.2427 12.0272Z" fill="#113D48"/>
<path d="M29.9503 12.4924L30.1986 12.0979L30.9916 12.5968C31.0719 12.7639 31.0668 12.9655 30.9637 13.13L30.6695 13.5981L30.1247 13.2555C29.8657 13.0923 29.7879 12.751 29.9503 12.4924Z" fill="#113D48"/>
<path d="M29.7328 13.0079L30.1243 13.2537L30.6691 13.5963L30.6233 13.6699L29.6866 13.0808L29.7328 13.0079Z" fill="#113D48"/>
<path d="M15.3629 32.8985L13.2122 36.3184L14.5467 37.1577L16.6975 33.7378L15.3629 32.8985Z" fill="white"/>
<path d="M24.3901 18.5446L17.2129 29.957L18.5475 30.7963L25.7247 19.3839L24.3901 18.5446Z" fill="white"/>
<path d="M28.3444 12.2549L26.2397 15.6016L27.5743 16.4409L29.679 13.0942L28.3444 12.2549Z" fill="white"/>
<path d="M29.745 13.0189L28.4102 12.1797L28.3641 12.253L29.6989 13.0922L29.745 13.0189Z" fill="#113D48"/>
<path d="M30.2227 12.0215L28.9897 11.2461L28.9457 11.3161L30.1787 12.0916L30.2227 12.0215Z" fill="#113D48"/>
<path d="M44.1978 14.1526L32.942 7.0747C31.9116 6.42709 30.5481 6.73445 29.8977 7.76854L28.0768 10.6648L28.5203 10.9438L29.009 11.2514L30.2424 12.0268L30.7872 12.3694L31.1785 12.6158L32.3803 10.7048C32.5537 10.4288 32.92 10.3425 33.1999 10.518L40.983 15.4126C41.259 15.586 41.3432 15.9562 41.1698 16.2322L39.968 18.1431L40.4045 18.4174L40.9004 18.7292L42.1371 19.5066L42.6717 19.8424L43.0701 20.0929L44.891 17.1967C45.542 16.1628 45.2286 14.801 44.1978 14.1526Z" fill="#113D48"/>
<path d="M16.3029 29.3588L17.2354 29.9453L24.4134 18.5339L23.481 17.9473L16.3029 29.3588Z" fill="#113D48"/>
<path d="M12.3058 35.728L13.2383 36.3145L15.389 32.8946L14.4565 32.3081L12.3058 35.728Z" fill="#113D48"/>
<path d="M12.2881 35.7187L13.2211 36.305L14.5556 37.1445L15.4917 37.7334L15.1995 38.1983C15.037 38.4568 14.6957 38.5347 14.4372 38.3723L12.1697 36.9465C11.9078 36.782 11.8332 36.4427 11.9957 36.1841L12.2881 35.7187Z" fill="#113D48"/>
<path d="M27.9084 11.9635C27.8176 11.9062 27.7477 11.8231 27.7065 11.7344L28.3984 12.1692L28.352 12.2426L27.9084 11.9635Z" fill="#113D48"/>
<path d="M27.8748 10.988C28.0507 10.8406 28.3109 10.8137 28.5205 10.9454L29.0091 11.253L28.9655 11.3228L30.1989 12.0981L29.9506 12.4927C29.7881 12.7513 29.866 13.0925 30.1246 13.255L29.7333 13.0086L28.3988 12.1692L27.707 11.7344C27.6247 11.5705 27.6331 11.3709 27.7388 11.2034L27.8748 10.988Z" fill="#113D48"/>
<path d="M25.3152 15.0021L27.4657 11.5817L27.7069 11.7333C27.7484 11.8228 27.8177 11.9056 27.9088 11.9624L28.3523 12.2415L26.2476 15.5882L25.3152 15.0021Z" fill="#113D48"/>
<path d="M28.5204 10.9449C28.3108 10.8132 28.0502 10.8393 27.8747 10.9876L28.0766 10.6665L28.5204 10.9449Z" fill="#113D48"/>
<path d="M27.7067 11.735L27.4655 11.5834L27.7597 11.1153C27.7905 11.0663 27.8282 11.022 27.8744 10.9872L27.7379 11.2038C27.6334 11.3717 27.6244 11.5711 27.7067 11.735Z" fill="#113D48"/>
<path d="M28.7876 17.1858L28.5188 17.0166L27.5827 16.4277L26.2482 15.5883L25.3154 15.0014L25.0427 14.83C24.7841 14.6675 24.4451 14.7415 24.2826 15.0001L23.0193 17.009C22.8588 17.2643 22.9347 17.6089 23.1933 17.7713L23.466 17.9427L24.3988 18.5296L25.7332 19.3691L26.6693 19.958L26.9382 20.1272C27.1967 20.2896 27.54 20.2085 27.7005 19.9532L28.9638 17.9443C29.126 17.6863 29.0462 17.3483 28.7876 17.1858ZM27.0622 18.8989L26.7895 18.7275L24.5226 17.302L24.2466 17.1286L24.9208 16.0563L25.1968 16.2297L27.4637 17.6553L27.7364 17.8267L27.0622 18.8989Z" fill="#113D48"/>
<path d="M19.7611 31.5404L19.4923 31.3712L18.5562 30.7823L17.2217 29.9429L16.2887 29.3565L16.0166 29.1854C15.758 29.0229 15.4167 29.1008 15.2543 29.3594L13.9931 31.3644C13.8307 31.623 13.9086 31.9643 14.1671 32.1267L14.4398 32.2981L15.3726 32.885L16.7071 33.7245L17.6432 34.3134L17.912 34.4826C18.1706 34.645 18.5119 34.5672 18.6743 34.3086L19.9355 32.3035C20.0976 32.0441 20.0197 31.7029 19.7611 31.5404ZM18.0332 33.2566L17.7604 33.0852L15.4935 31.6596L15.2175 31.4862L15.8939 30.4101L16.1699 30.5835L18.4374 32.0092L18.7101 32.1806L18.0332 33.2566Z" fill="#113D48"/>
<path d="M9.63936 33.9852C9.62736 33.9968 9.61622 34.0148 9.60531 34.0322L9.60203 34.0303C9.61623 34.0148 9.62713 33.9974 9.63936 33.9852Z" fill="#113D48"/>
<path d="M15.6591 12.1872C15.5785 12.1366 15.5027 12.079 15.4236 12.0195C15.5025 12.0796 15.5811 12.1335 15.6591 12.1872Z" fill="#113D48"/>
<path d="M7.36354 24.6268C7.33695 24.615 7.31257 24.5993 7.28378 24.5914L7.28573 24.5881C7.31255 24.5993 7.33916 24.6111 7.36354 24.6268Z" fill="#113D48"/>
<path d="M25.778 9.21912C26.005 9.36173 26.0973 9.64895 25.9921 9.89471C25.9071 10.0995 25.8129 10.3034 25.7082 10.5012C25.6776 10.5652 25.644 10.6267 25.6104 10.6882C25.5503 10.7914 25.4899 10.8953 25.4286 10.9927C23.278 14.4131 18.749 15.4448 15.3319 13.2962C15.2481 13.2436 15.1664 13.1871 15.0845 13.1313C14.9887 13.0659 14.8954 12.9974 14.8022 12.929C14.7623 12.8991 14.7214 12.8634 14.6782 12.8315C14.5062 12.6942 14.335 12.5477 14.1744 12.3931C13.9844 12.2148 13.9477 11.9243 14.0884 11.7006L6.60167 23.6061C6.74231 23.3824 7.02038 23.2893 7.2629 23.3837C7.47246 23.4618 7.67859 23.5521 7.87643 23.648C7.92434 23.6729 7.97421 23.6945 8.018 23.7178C8.12019 23.7721 8.22214 23.827 8.32236 23.8846C8.4082 23.9339 8.49463 23.9834 8.57851 24.0359C11.995 26.1843 13.0251 30.7174 10.8767 34.1339C10.8152 34.2319 10.75 34.3271 10.6852 34.4232C10.5154 34.6626 10.3294 34.8963 10.1313 35.1178C9.95576 35.3197 9.65483 35.3639 9.42782 35.2213L12.1704 36.946C11.908 36.7813 11.834 36.4423 11.9964 36.1837L12.2886 35.7188L14.4392 32.2985L14.1665 32.1271C13.9079 31.9646 13.8303 31.6228 13.9925 31.3648L15.2536 29.3597C15.4161 29.1012 15.7574 29.0233 16.0159 29.1858L16.2881 29.3569L23.4649 17.9439L23.1922 17.7725C22.9336 17.6101 22.858 17.2649 23.0182 17.0102L24.2815 15.0013C24.444 14.7427 24.7831 14.6687 25.0416 14.8312L25.3144 15.0026L27.4649 11.5822L27.7591 11.1141C27.7898 11.0651 27.8276 11.0208 27.8738 10.986L28.0757 10.6649L25.778 9.21912Z" fill="#FFA944"/>
<path d="M8.57858 24.0364C8.4947 23.9838 8.40885 23.9346 8.32242 23.8851C8.22243 23.8269 8.12026 23.7726 8.01807 23.7183C7.97405 23.6956 7.92417 23.674 7.87649 23.6485C7.67842 23.5532 7.47194 23.462 7.26297 23.3842C7.01986 23.2895 6.74215 23.3835 6.60174 23.6066L4.54539 26.8766C3.23646 28.9586 3.86269 31.722 5.94854 33.0331L9.42811 35.2212C9.65512 35.3638 9.95629 35.319 10.1316 35.1177C10.3297 34.8962 10.5157 34.6625 10.6855 34.4231C10.7501 34.3276 10.8155 34.2318 10.877 34.1338C13.0251 30.7179 11.995 26.1848 8.57858 24.0364ZM9.63939 33.9851C9.62739 33.9966 9.61624 34.0147 9.60534 34.0321L9.60205 34.0301C9.61626 34.0147 9.62715 33.9972 9.63939 33.9851ZM7.28595 24.5887C7.31254 24.6005 7.33915 24.6122 7.36353 24.6279C7.33694 24.6161 7.31256 24.6005 7.28377 24.5926L7.28595 24.5887Z" fill="#113D48"/>
<path d="M25.778 9.22056L22.2984 7.03251C20.2128 5.72079 17.4531 6.3498 16.1439 8.43235L14.0876 11.7024C13.9469 11.9261 13.9834 12.2172 14.1736 12.3949C14.3347 12.5497 14.5059 12.6962 14.6774 12.8333C14.7206 12.8652 14.7615 12.9009 14.8014 12.9308C14.8946 12.9992 14.9879 13.0677 15.0837 13.1331C15.1654 13.1895 15.2473 13.2454 15.3311 13.2979C18.7476 15.4463 23.2769 14.414 25.4278 10.9945C25.4893 10.8965 25.5495 10.7932 25.6096 10.6899C25.6432 10.6285 25.6777 10.5667 25.7074 10.503C25.8121 10.3052 25.9063 10.1013 25.9913 9.89652C26.0977 9.65122 26.0054 9.36399 25.778 9.22056Z" fill="#113D48"/>
</svg>
