<svg width="40" height="40" viewBox="0 0 40 40" fill="none" xmlns="http://www.w3.org/2000/svg">
<path d="M39.4309 19.087C39.4029 16.3536 37.7417 13.9551 35.2126 12.9783L29.7095 10.8381L28.3605 5.11315C27.9426 3.32132 26.8403 1.82605 25.259 0.903178C24.9147 0.703048 24.5456 0.531961 24.1764 0.399232C23.4454 0.134812 22.6791 0 21.9014 0C19.9105 0 18.0461 0.885566 16.7872 2.42957L13.0563 6.99625L7.16127 6.50888C4.56892 6.30772 2.23998 7.54581 0.970763 9.67569C-0.356521 11.8605 -0.319217 14.5514 1.06095 16.6875L4.25367 21.6534L1.98593 27.0714C0.692867 30.1273 1.87909 33.6954 4.74727 35.3701C6.26535 36.2577 8.17541 36.4806 9.764 36.0482L15.4693 34.5509L19.9675 38.4207C21.1662 39.439 22.6905 40 24.2584 40C25.3544 40 26.4432 39.7231 27.3889 39.2119C29.4472 38.1096 30.7486 36.0586 30.8668 33.7535L31.2027 27.8657L36.2755 24.786C38.2695 23.5583 39.4485 21.4315 39.4309 19.087Z" fill="white"/>
<path d="M16.963 27.2352C16.4954 26.9625 16.9174 26.2397 17.3851 26.5124C17.4265 26.5363 17.4525 26.5674 17.4805 26.5974L21.1678 10.6597C21.1346 10.6451 21.1025 10.6337 21.0683 10.614C20.2657 10.1453 20.7842 9.00782 21.5391 9.05241L22.4122 5.27692C21.8999 5.09234 21.2404 5.1732 20.8007 5.71137L16.2683 11.2601C15.6876 11.9662 14.801 12.3426 13.8917 12.27L6.74401 11.679C6.19029 11.6344 5.68531 11.8916 5.40119 12.3696C5.10981 12.8497 5.12014 13.4179 5.42189 13.8846L9.29694 19.9123C9.7957 20.6786 9.87659 21.6429 9.52611 22.4829L6.7606 29.0923C6.43707 29.8555 6.82177 30.5793 7.36305 30.8945C7.59636 31.0314 7.96553 31.1652 8.44771 31.0345L15.3755 29.2167C15.8722 29.084 16.3876 29.0996 16.8677 29.2406L17.328 27.2507C17.2223 27.3026 17.0958 27.3129 16.963 27.2352ZM9.76256 17.1198C9.2949 16.8471 9.71692 16.1244 10.1846 16.3971C10.6471 16.6667 10.2261 17.3894 9.76256 17.1198ZM19.7628 13.6761C20.2263 13.9468 19.8043 14.6695 19.3408 14.3989C18.8731 14.1262 19.2951 13.4034 19.7628 13.6761ZM12.4202 24.7465C11.4891 24.2032 12.3331 22.7577 13.2643 23.301C14.1996 23.8464 13.3555 25.292 12.4202 24.7465ZM15.641 21.4148C16.1086 21.6875 15.6866 22.4103 15.2189 22.1376C14.7564 21.868 15.1785 21.1452 15.641 21.4148ZM12.5674 27.7858C12.0998 27.5131 12.5219 26.7903 12.9895 27.063C13.452 27.3337 13.031 28.0564 12.5674 27.7858Z" fill="#F05A30"/>
<path d="M33.552 20.3763C33.9968 20.1016 34.2498 19.6577 34.2457 19.1382C34.2395 18.543 33.8869 18.0235 33.3322 17.8099L26.6502 15.2103C25.8092 14.8816 25.1632 14.1392 24.9548 13.2629L23.3122 6.29262C23.194 5.78866 22.886 5.52114 22.6475 5.38219C22.5749 5.33968 22.4961 5.30442 22.4132 5.27539L21.5401 9.05088C21.6604 9.05814 21.7848 9.09236 21.9123 9.16702C22.8145 9.69379 22.0606 11.0511 21.1678 10.6581L17.4805 26.5959C17.6754 26.8075 17.5603 27.1362 17.3291 27.2492L16.8687 29.2391C17.2388 29.349 17.5883 29.5315 17.889 29.7928L23.3257 34.4684C23.783 34.8572 24.4165 34.9257 24.9433 34.6405C25.3902 34.402 25.665 33.9706 25.6909 33.4584L26.1006 26.3035C26.1545 25.3951 26.6481 24.5687 27.432 24.0917L33.552 20.3763ZM21.2808 13.5409C20.3455 12.9954 21.1896 11.5489 22.1249 12.0953C23.0551 12.6377 22.212 14.0832 21.2808 13.5409ZM22.1311 15.2259C21.6676 14.9552 22.0896 14.2325 22.5532 14.5031C23.0208 14.7758 22.5988 15.4986 22.1311 15.2259ZM27.9826 20.9508C28.4503 21.2235 28.0282 21.9463 27.5606 21.6736C27.0929 21.4009 27.5149 20.6781 27.9826 20.9508ZM26.1638 18.4497C26.6314 18.7224 26.2094 19.4452 25.7418 19.1725C25.2741 18.8998 25.6961 18.177 26.1638 18.4497ZM21.2342 26.2102C20.7707 25.9395 21.1927 25.2168 21.6562 25.4874C22.1228 25.7602 21.7019 26.4829 21.2342 26.2102ZM23.9758 23.0226C23.0447 22.4793 23.8919 21.0296 24.822 21.573C25.7532 22.1163 24.907 23.566 23.9758 23.0226ZM22.7896 30.3963C21.8543 29.8509 22.6983 28.4044 23.6336 28.9508C24.5638 29.4942 23.7197 30.9397 22.7896 30.3963ZM29.8491 19.3933C30.7803 19.9367 29.9362 21.3822 29.005 20.8388C28.0697 20.2934 28.9138 18.8479 29.8491 19.3933Z" fill="#E23C2B"/>
</svg>
