<svg width="44" height="40" viewBox="0 0 44 40" fill="none" xmlns="http://www.w3.org/2000/svg">
<path d="M37.6229 29.4906C37.6509 29.3021 37.6779 29.1125 37.7161 28.9234C37.8492 28.2569 38.1509 27.6153 38.5891 27.0674C38.7817 26.8264 39.1156 26.5976 39.5365 26.3086C39.96 26.0186 40.4874 25.6573 41.0128 25.1752C42.1651 24.1188 42.877 22.7694 43.0176 21.374C43.1486 20.0745 42.8 18.745 41.9816 17.4205C41.8562 17.2187 41.7146 17.0077 41.5596 16.7926C40.3773 15.1609 38.7981 13.763 37.0231 12.7784C36.7652 12.6347 36.5027 12.5002 36.196 12.3427C35.7088 12.094 35.2843 11.8774 34.9999 11.6537C34.9856 11.5997 34.9678 11.5253 34.9449 11.4239C34.8924 11.1874 34.8363 10.9469 34.7655 10.6997C34.4633 9.6494 34.0862 8.648 33.6438 7.72408C32.6205 5.58575 31.2553 3.82605 29.5797 2.50208C26.1011 -0.248804 21.2001 -0.793061 17.6634 1.17659C16.2615 1.9568 15.1939 3.0168 14.2485 3.95602C13.4 4.79993 12.6672 5.52868 11.9074 5.86451C11.3198 6.12492 10.5319 6.23194 9.61971 6.35577C8.62444 6.49082 7.49718 6.64421 6.35106 7.05139C2.7216 8.3402 0.111362 11.9294 0.0038342 15.78C-0.0588481 18.0218 0.646459 20.3023 2.16154 22.753C2.33022 23.0247 2.50348 23.2922 2.68082 23.5536C3.14712 24.2416 3.63176 24.8929 4.10213 25.5233C4.68462 26.3045 5.28749 27.1128 5.78079 27.9103C5.93776 28.1646 6.07688 28.4051 6.20428 28.6462C6.57171 29.3408 6.90042 30.149 7.2179 30.9323C7.68471 32.0805 8.2137 33.382 8.96792 34.6015C9.21661 35.0041 9.48211 35.3853 9.75679 35.7344C10.2272 36.3322 10.7658 36.8861 11.359 37.3815L11.3595 37.382C12.8634 38.6376 14.6608 39.4831 16.5581 39.8266C19.2126 40.3066 22.0573 39.7792 24.3618 38.3793C25.196 37.8732 25.9145 37.2851 26.5567 36.7597C27.0484 36.3571 27.557 35.9403 28.0269 35.6488C28.6099 35.287 28.9024 35.2314 29.9976 35.4984C32.8162 36.1859 36.0069 34.4563 37.1097 31.6448C37.4185 30.8559 37.5301 30.1093 37.6229 29.4906Z" fill="white"/>
<path d="M11.1359 33.2628C10.4953 32.2267 10.0295 31.0811 9.57953 29.9737C9.23707 29.1303 8.8824 28.2589 8.45738 27.4552C8.30399 27.1653 8.13735 26.8753 7.94777 26.569C7.40198 25.6859 6.76343 24.8292 6.14578 24.0006C5.69324 23.3931 5.22541 22.7653 4.79122 22.1252C4.63324 21.8918 4.47834 21.6538 4.32851 21.4123C3.08455 19.3998 2.50308 17.581 2.5515 15.8519C2.63048 13.0296 4.54357 10.3985 7.20425 9.4537C8.1027 9.13468 9.04854 9.00626 9.96329 8.88243C11.0223 8.73871 12.0231 8.60317 12.9415 8.19599C14.1304 7.66905 15.0609 6.7441 16.0465 5.76463C16.9118 4.9044 17.8072 4.01462 18.9034 3.40461C21.5666 1.92164 25.3077 2.37367 28.001 4.50282C29.3555 5.57352 30.4986 7.0519 31.3471 8.82586C31.7278 9.62239 32.055 10.4908 32.3179 11.4065C32.3735 11.5997 32.4168 11.7918 32.4591 11.9804C32.5783 12.5134 32.695 12.9639 33.0248 13.3008C33.5843 13.872 34.2901 14.2328 35.0377 14.6145C35.289 14.743 35.5402 14.8714 35.7863 15.008C37.2459 15.8177 38.5285 16.9526 39.4963 18.2894C39.6135 18.4514 39.7211 18.6109 39.8153 18.7638C40.3387 19.6103 40.5573 20.3818 40.4824 21.1213C40.4049 21.8923 39.982 22.6659 39.2915 23.2994C38.9001 23.6581 38.4919 23.9379 38.0974 24.2085C37.5476 24.5856 37.0288 24.9413 36.5997 25.4779C35.9087 26.3422 35.4306 27.3615 35.2176 28.4266C35.1712 28.6574 35.1366 28.8913 35.1019 29.1247C35.0234 29.6496 34.9429 30.1924 34.7381 30.7147C34.1056 32.3281 32.1722 33.407 30.6016 33.0243C29.1227 32.6635 28.0606 32.6303 26.6837 33.4855C26.0747 33.8636 25.4993 34.335 24.9423 34.7906C24.3435 35.2808 23.7243 35.7874 23.0409 36.2027C21.2604 37.2841 19.0634 37.6918 17.0133 37.3203C14.9636 36.9493 13.049 35.7976 11.7602 34.1602C11.5436 33.8845 11.3336 33.5828 11.1359 33.2628ZM8.64186 26.1394C8.84112 26.4615 9.01692 26.7673 9.17847 27.073C9.62285 27.9129 9.9852 28.8037 10.3353 29.6659C10.7731 30.7427 11.2256 31.8557 11.83 32.8337C12.0119 33.1277 12.2041 33.4039 12.4013 33.6542C13.5683 35.1366 15.302 36.1798 17.1585 36.5156C19.015 36.852 21.0045 36.483 22.6169 35.5035C23.2519 35.1183 23.8217 34.6515 24.4251 34.1577C25.0019 33.6852 25.5982 33.197 26.2525 32.7909C27.8593 31.7936 29.1818 31.8369 30.7947 32.2303C32.086 32.5452 33.5405 31.5321 33.9782 30.4161C34.1495 29.9804 34.2198 29.5059 34.2947 29.0039C34.3309 28.7629 34.3681 28.5132 34.417 28.266C34.6555 27.0735 35.1896 25.933 35.9621 24.9678C36.4672 24.3364 37.0614 23.9292 37.6357 23.5353C38.024 23.2688 38.391 23.0175 38.7395 22.6975C39.2823 22.1996 39.6125 21.611 39.6701 21.0392C39.7368 20.3757 39.4739 19.6505 38.8343 18.7679C37.9364 17.527 36.7449 16.4736 35.3894 15.7214C35.1514 15.5894 34.9088 15.4656 34.6657 15.3413C33.8931 14.9463 33.0936 14.5381 32.4407 13.872C32.3184 13.7472 32.2104 13.6091 32.1187 13.4608C31.8598 13.0424 31.7594 12.5934 31.6621 12.1592C31.6233 11.986 31.5836 11.8096 31.5331 11.6323C31.2824 10.7598 30.972 9.93427 30.6102 9.17801C29.8152 7.51616 28.7512 6.13665 27.4945 5.14342C25.0529 3.2125 21.6833 2.79105 19.3004 4.11757C18.3026 4.67304 17.4862 5.48485 16.6219 6.34354C15.6271 7.33219 14.5992 8.35396 13.2722 8.94257C12.2479 9.39663 11.142 9.54646 10.0734 9.6917C9.15964 9.81604 8.29633 9.93274 7.47738 10.2237C5.16476 11.0452 3.43618 13.4226 3.36789 15.8758C3.32457 17.4403 3.86579 19.1114 5.02363 20.9842C5.16683 21.2166 5.31562 21.4444 5.46749 21.6686C5.89097 22.2939 6.35321 22.9141 6.80065 23.5139C7.42798 24.3553 8.07721 25.2262 8.64186 26.1394Z" fill="#073259"/>
<path d="M25.9531 15.3974L31.9502 11.6895C27.8978 6.33089 20.5731 4.60279 14.5531 7.58555L18.261 13.5827C20.9467 12.5563 24.0089 13.2789 25.9531 15.3974Z" fill="#F05A30"/>
<path d="M25.5364 25.3512L29.2443 31.3483C34.6029 27.2964 36.331 19.9712 33.3482 13.9512L27.3511 17.6591C28.3775 20.3453 27.6548 23.4075 25.5364 25.3512Z" fill="#E23C2B"/>
<path d="M15.5838 24.9336L9.58667 28.6415C13.6386 34.0001 20.9638 35.7282 26.9838 32.7454L23.2759 26.7483C20.5897 27.7742 17.5274 27.0521 15.5838 24.9336Z" fill="#E23C2B"/>
<path d="M16 14.9795L12.2921 8.98242C6.93356 13.0349 5.20544 20.3595 8.1882 26.3796L14.1853 22.6716C13.1595 19.986 13.8816 16.9237 16 14.9795Z" fill="#F05A30"/>
<path d="M14.7764 23.869C14.5374 23.4822 14.3417 23.0811 14.1852 22.6719L8.18811 26.3798C8.38329 26.7737 8.59633 27.1626 8.83228 27.5443C9.06823 27.926 9.32097 28.2904 9.58597 28.641L15.5831 24.933C15.287 24.6094 15.0154 24.2552 14.7764 23.869Z" fill="white"/>
<path d="M26.7601 16.4595C26.9991 16.8463 27.1948 17.2474 27.3513 17.6566L33.3484 13.9486C33.1532 13.5547 32.9402 13.1659 32.7042 12.7842C32.4683 12.4025 32.2155 12.0381 31.9505 11.6875L25.9534 15.3954C26.2495 15.719 26.5211 16.0732 26.7601 16.4595Z" fill="white"/>
<path d="M29.2443 31.3467L25.5364 25.3496C25.2133 25.6462 24.8591 25.9173 24.4728 26.1563C24.086 26.3953 23.685 26.591 23.2758 26.7475L26.9837 32.7446C27.3776 32.5494 27.7664 32.3364 28.1481 32.1004C28.5288 31.865 28.8937 31.6122 29.2443 31.3467Z" fill="white"/>
<path d="M17.0635 14.1742C17.4503 13.9352 17.8514 13.7395 18.2606 13.5831L14.5527 7.58594C14.1587 7.78112 13.7699 7.99414 13.3882 8.23009C13.0065 8.46604 12.6421 8.7188 12.2915 8.98379L15.9994 14.9809C16.323 14.6848 16.6772 14.4132 17.0635 14.1742Z" fill="white"/>
</svg>
