<svg width="38" height="40" viewBox="0 0 38 40" fill="none" xmlns="http://www.w3.org/2000/svg">
<path d="M14.332 32.5384C14.4925 34.3916 16.2889 36.2149 19.6914 37.9706C21.1451 38.72 23.9771 40.0001 26.3398 40.0001C27.5441 39.9998 28.6266 39.6675 29.3425 38.7629C29.4482 38.6317 29.5465 38.4887 29.6579 38.3047C29.6683 38.2884 29.6783 38.2718 29.6884 38.2553C30.1259 37.5184 30.9525 35.799 33.0723 29.4033C33.0785 29.3852 33.0838 29.3675 33.0895 29.3494C34.2644 25.8077 35.4163 22.0853 36.0009 20.1725C36.1354 19.73 36.2426 19.3773 36.3205 19.1246C36.4242 18.7822 36.4633 18.4283 36.4419 18.0803C36.9321 17.0988 36.8915 16.2769 36.7577 15.7393C36.7565 15.7348 36.7553 15.7301 36.7541 15.7257C37.3705 14.6751 37.8328 13.2703 36.9229 12.0225C36.0853 10.8745 31.7042 8.53883 29.8999 8.73371C29.1748 8.81279 28.2922 9.17798 27.6927 10.3319C27.6791 10.3186 27.6658 10.3055 27.6525 10.2931C27.587 10.2256 27.5189 10.161 27.4451 10.1C27.404 10.0656 27.3619 10.0331 27.3187 10.0023C27.1315 9.8589 26.9401 9.74073 26.737 9.64329L24.3909 8.51928C24.0272 8.34512 23.6481 8.24146 23.2684 8.20325C23.7882 7.01646 23.5201 6.10244 23.128 5.48905C22.1562 3.96757 17.5787 2.00952 16.1639 2.07586C14.6205 2.14872 13.8152 3.38913 13.383 4.52765C13.3789 4.52942 13.3748 4.5315 13.3706 4.53357C12.868 4.76637 12.2013 5.25003 11.7434 6.24876C11.4564 6.45194 11.2038 6.70636 10.9997 7.0055C10.8643 7.20572 10.6677 7.4942 10.4215 7.85465L10.3878 7.90441C9.26613 9.55473 7.08595 12.7855 5.0577 15.9259C5.04852 15.9395 5.03904 15.9531 5.03015 15.967C1.3738 21.6262 0.551601 23.3476 0.251274 24.1502C0.243869 24.1701 0.236759 24.1899 0.229947 24.2101C0.176042 24.3576 0.114733 24.5409 0.0762297 24.7201C-0.687029 28.0702 4.47926 30.7622 6.73734 31.7645C10.2465 33.3188 12.7972 33.5735 14.332 32.5384ZM19.0804 22.8251C18.9332 23.0638 18.7872 23.3017 18.6426 23.5377C18.7356 23.2786 18.8295 23.0159 18.924 22.7502L19.0804 22.8251Z" fill="#0082A1"/>
<path d="M36.7577 13.6654C36.7565 13.6609 36.7553 13.6562 36.7541 13.6517C37.3705 12.6012 37.8328 11.1964 36.9229 9.94858C36.0853 8.80059 31.7042 6.4649 29.8999 6.65979C29.1748 6.73887 28.2922 7.10436 27.6927 8.25798C27.6791 8.24465 27.6658 8.23162 27.6525 8.21918C27.587 8.15165 27.5189 8.08709 27.4451 8.02607C27.404 7.99172 27.3619 7.95914 27.3187 7.92833C27.1315 7.78498 26.9401 7.66681 26.737 7.56936L24.3909 6.44535C24.0272 6.2712 23.6481 6.16754 23.2684 6.12933C23.7882 4.94253 23.5201 4.02852 23.128 3.41483C22.1562 1.89335 17.5787 -0.0647028 16.1639 0.0016417C14.6205 0.0745022 13.8152 1.31491 13.383 2.45343C13.3789 2.4552 13.3748 2.45728 13.3706 2.45935C12.868 2.69215 12.2013 3.17581 11.7434 4.17453C11.4564 4.37771 11.2038 4.63213 10.9997 4.93128C10.8643 5.1315 10.6677 5.41998 10.4215 5.78043L10.3878 5.83019C9.26613 7.48051 7.08595 10.7113 5.0577 13.8517C5.04852 13.8653 5.03904 13.8789 5.03015 13.8928C1.3738 19.552 0.551601 21.2734 0.251274 22.076C0.243869 22.0959 0.236759 22.1157 0.229947 22.1358C0.176042 22.2833 0.114733 22.4667 0.0762297 22.6459C-0.687029 25.996 4.47926 28.688 6.73734 29.6902C10.2459 31.2452 12.7963 31.5002 14.3314 30.4647C14.4919 32.318 16.2883 34.1412 19.6908 35.897C21.1445 36.6463 23.9766 37.9264 26.3392 37.9264C27.5435 37.9261 28.626 37.5938 29.3419 36.6893C29.4476 36.5581 29.5459 36.415 29.6573 36.2311C29.6677 36.2148 29.6777 36.1982 29.6878 36.1816C30.1253 35.4447 30.9519 33.7254 33.0717 27.3297C33.0779 27.3116 33.0832 27.2938 33.0889 27.2758C34.2638 23.734 35.4157 20.0116 36.0003 18.0989C36.1348 17.6564 36.242 17.3036 36.3199 17.051C36.4236 16.7086 36.4627 16.3547 36.4413 16.0067C36.9321 15.0248 36.8912 14.2029 36.7577 13.6654ZM19.0804 20.7521C18.9332 20.9908 18.7872 21.2286 18.6426 21.4647C18.7356 21.2055 18.8295 20.9428 18.924 20.6771L19.0804 20.7521Z" fill="white"/>
<path d="M21.1291 19.2713L18.7837 18.1473C18.1978 17.8665 17.9502 17.164 18.231 16.5778L21.861 9.00241C22.1418 8.41657 22.8443 8.16896 23.4304 8.44974L25.7759 9.57375C26.3617 9.85452 26.6094 10.5571 26.3286 11.1432L22.6986 18.7186C22.4178 19.3045 21.715 19.5521 21.1291 19.2713Z" fill="#002A40"/>
<path d="M26.3289 11.1441L22.6992 18.7192C22.4182 19.3056 21.7147 19.5532 21.1283 19.2725L18.7831 18.1488C18.1976 17.8683 17.9503 17.166 18.2311 16.5805L18.4878 16.0447C20.5155 17.0162 22.9468 16.1602 23.9183 14.1325L26.0248 9.73633C26.4252 10.0734 26.5659 10.6497 26.3289 11.1441Z" fill="#002236"/>
<path d="M23.7289 9.42806C23.4558 9.697 23.2345 9.93898 23.0041 10.1753C22.774 10.4099 22.5311 10.6436 22.3173 10.919C22.0966 11.1859 21.8845 11.4732 21.6716 11.7685C21.5679 11.9189 21.4631 12.07 21.3508 12.2208C21.2486 12.3765 21.1352 12.5294 21.0111 12.6813L21.0073 12.6861C20.9696 12.732 20.9018 12.7388 20.8559 12.7012C20.8272 12.6778 20.8138 12.6422 20.8168 12.6079C20.8349 12.4121 20.8639 12.2169 20.9042 12.0247C20.9454 11.8325 21.0087 11.6471 21.0653 11.4575C21.1355 11.2733 21.2137 11.0914 21.2963 10.9096C21.3923 10.7342 21.4808 10.5541 21.6002 10.3886C21.8256 10.0545 22.0936 9.72751 22.4464 9.48701C22.6226 9.36824 22.8202 9.27346 23.0337 9.21896C23.247 9.16506 23.4721 9.14699 23.7099 9.22133C23.7677 9.2394 23.7996 9.301 23.7816 9.35846C23.776 9.37594 23.7665 9.39134 23.7543 9.40348L23.7289 9.42806Z" fill="#003C5C"/>
<path d="M15.0801 4.70132C15.0801 4.70132 15.5036 2.25546 16.2692 2.21932C17.0352 2.18319 20.7795 3.86224 21.2563 4.60921C21.7335 5.35588 19.6149 7.13356 19.6149 7.13356L15.0801 4.70132Z" fill="#002A40"/>
<path d="M20.6953 6.05822C20.475 6.32123 20.2339 6.56499 20.0325 6.75395C18.6271 5.65423 16.369 4.74762 15.1191 4.50091C15.1621 4.29121 15.2418 3.94231 15.3555 3.58008C16.6196 3.77348 19.2485 4.81456 20.6953 6.05822Z" fill="#002133"/>
<path d="M13.4863 6.18378C13.4863 6.18378 13.6024 4.79972 14.3053 4.47452C14.9216 4.18929 18.5475 5.43444 20.3124 6.98346C20.7348 7.35399 20.813 7.98752 20.4803 8.44038C20.2455 8.75996 19.9324 9.06325 19.574 9.10086L13.4863 6.18378Z" fill="#001B29"/>
<path d="M20.4332 8.49936C20.3168 8.651 20.1826 8.79613 20.034 8.90454C19.2316 7.93514 17.0686 5.8207 13.5352 5.84558C13.566 5.68534 13.6145 5.48276 13.6874 5.28283C13.6995 5.28165 13.7114 5.28047 13.7253 5.28047C17.4907 5.21916 19.7165 7.58683 20.4199 8.47892C20.4237 8.48544 20.4302 8.49107 20.4332 8.49936Z" fill="#00141F"/>
<path d="M13.4085 28.2852C13.3694 28.3427 13.3321 28.3916 13.2957 28.4339C12.5659 29.2982 10.0753 28.7378 7.63982 27.6585C4.76242 26.3811 1.96203 24.376 2.24429 23.1385C2.26147 23.0591 2.29346 22.9641 2.33433 22.8545C2.81 21.583 4.77693 18.3818 6.89848 15.0984C8.91755 11.9707 11.0797 8.76633 12.2274 7.0778C12.4904 6.69247 12.6998 6.38503 12.8422 6.17474C12.9809 5.97186 13.2092 5.85072 13.4553 5.84687C17.2207 5.78556 19.4465 8.15323 20.1499 9.04533C20.3045 9.2414 20.3519 9.50382 20.2758 9.74372C19.8845 10.9498 18.5825 14.9553 17.1736 18.9674C17.077 19.2411 16.9802 19.515 16.8836 19.789C16.113 21.9647 15.3263 24.0869 14.6575 25.7034C14.1573 26.9053 13.7243 27.8285 13.4085 28.2852Z" fill="#002A40"/>
<path d="M14.6575 25.7032C12.446 26.6702 9.84222 27.4127 7.63982 27.6589C4.76242 26.3814 1.96203 24.3763 2.24429 23.1388C2.26147 23.0595 2.29346 22.9644 2.33433 22.8548C2.81 21.5833 4.77693 18.3822 6.89848 15.0987C8.91754 11.971 11.0797 8.76665 12.2274 7.07812C12.8132 10.2102 14.237 15.9295 17.1736 18.9674C17.077 19.2411 16.9802 19.5151 16.8836 19.789C16.1127 21.9645 15.326 24.0863 14.6575 25.7032Z" fill="#002236"/>
<path d="M13.4082 28.2845C12.2516 27.1315 8.32395 23.6531 2.33398 22.8538C2.80965 21.5822 4.77659 18.3811 6.89813 15.0977C8.70277 15.451 13.1952 16.602 16.8833 19.7877C15.5386 23.5841 14.1475 27.2129 13.4082 28.2845Z" fill="#FFB30F"/>
<path d="M13.4082 28.2865C12.2516 27.1334 8.32365 23.6551 2.33398 22.8557C2.80965 21.5842 4.77659 18.3831 6.89813 15.0996C7.32582 15.1825 7.90426 15.3123 8.58725 15.5012C8.56948 15.5294 8.55142 15.5572 8.53364 15.5853C6.70117 18.4654 7.77957 22.2956 10.8385 23.8106C12.3559 24.5623 13.5809 25.4067 14.4821 26.1223C14.0548 27.1201 13.6866 27.8834 13.4082 28.2865Z" fill="#FF870F"/>
<path d="M11.2663 17.0308C12.0908 17.2515 12.8861 17.5495 13.6665 17.8984C14.0548 18.0767 14.4419 18.2636 14.8154 18.4872C15.1916 18.7093 15.5624 18.9436 15.9062 19.2898C16.0697 19.4696 16.2661 19.6621 16.3392 20.0495C16.3472 20.096 16.344 20.1538 16.3428 20.2056L16.3372 20.285L16.3271 20.3303L16.2856 20.508C16.2557 20.6235 16.219 20.7284 16.1852 20.838C16.0425 21.2615 15.8556 21.6486 15.6643 22.0319C15.2662 22.7898 14.827 23.5157 14.2932 24.1881C14.2571 24.2337 14.1908 24.2414 14.1451 24.2049C14.1096 24.1768 14.0972 24.13 14.1105 24.0894L14.1111 24.0877C14.38 23.2812 14.7052 22.5072 15.0038 21.7336C15.1587 21.3504 15.3017 20.9621 15.4258 20.5874C15.451 20.4956 15.4818 20.4005 15.5019 20.3119L15.5289 20.1819L15.5357 20.1502C15.5339 20.1502 15.5325 20.1508 15.5325 20.1508C15.5304 20.1505 15.5369 20.1547 15.5348 20.1496C15.5363 20.1168 15.4537 19.9645 15.3313 19.8437C15.084 19.5893 14.7529 19.347 14.4194 19.1204C14.0803 18.8971 13.7293 18.6782 13.3712 18.4691C12.6565 18.0462 11.9196 17.6442 11.189 17.2237L11.1872 17.2228C11.1371 17.194 11.1199 17.1301 11.1487 17.08C11.173 17.0377 11.2218 17.019 11.2663 17.0308Z" fill="#FFCF0F"/>
<path d="M14.6866 6.75013C15.226 6.74598 15.7366 6.84076 16.2363 6.97286C16.7356 7.10555 17.2187 7.29096 17.6864 7.51694C18.1534 7.74382 18.6087 8.0086 19.0281 8.34418C19.2372 8.5127 19.435 8.70226 19.6127 8.91729C19.7827 9.13439 19.9495 9.3897 19.983 9.68854C19.9895 9.74689 19.9474 9.79961 19.8891 9.80613C19.8541 9.80998 19.8212 9.79665 19.7993 9.77266L19.7884 9.76052C19.6296 9.58755 19.4398 9.46285 19.2345 9.34557C19.0319 9.2265 18.8145 9.12432 18.5977 9.02006C18.162 8.81362 17.7148 8.61548 17.2667 8.412C16.8183 8.20853 16.3681 8.00031 15.9259 7.76277C15.4834 7.52524 15.0435 7.27141 14.6227 6.94768L14.6209 6.9465C14.5729 6.90977 14.564 6.84106 14.6007 6.79308C14.6221 6.76553 14.6544 6.75072 14.6866 6.75013Z" fill="#003C5C"/>
<path d="M21.2521 15.4449L22.3038 13.2499C22.6178 12.5947 22.3411 11.809 21.686 11.495L18.0275 9.74192C17.3069 9.39658 16.4397 9.86573 16.376 10.6622C16.3618 10.8384 16.371 11.0081 16.4157 11.1577C16.6373 11.8972 12.6821 14.2631 13.5161 15.5263C14.0839 16.3861 15.5405 17.0052 16.4131 17.3129C16.8052 17.4512 17.2397 17.2803 17.4367 16.9139L18.1223 15.6401C18.4241 15.0794 19.1373 14.8916 19.6758 15.2313L20.4029 15.6895C20.7021 15.8785 21.0992 15.7642 21.2521 15.4449Z" fill="#FFB30F"/>
<path d="M17.3004 17.1034C17.0747 17.3338 16.7318 17.425 16.414 17.3142C15.5411 17.0065 14.0851 16.3872 13.5161 15.5271C12.6821 14.2636 16.637 11.898 16.4157 11.1584C16.3722 11.0085 16.3621 10.8379 16.3766 10.6629C16.4311 9.98198 17.0733 9.54097 17.7056 9.64374C17.4568 9.82619 17.2824 10.1087 17.2545 10.4502C17.2418 10.6262 17.2501 10.7959 17.2954 10.9466C17.5169 11.6862 13.5617 14.0521 14.3958 15.3153C14.963 16.1745 16.419 16.7938 17.2918 17.1016C17.2939 17.1025 17.2975 17.1042 17.3004 17.1034Z" fill="#FF870F"/>
<path d="M18.5772 11.5221C18.4644 12.0831 18.3216 12.6275 18.2748 13.1668C18.2556 13.4352 18.2479 13.705 18.3047 13.9568C18.3577 14.2094 18.459 14.446 18.6287 14.6611L18.6332 14.6667C18.669 14.712 18.661 14.7778 18.6157 14.8136C18.5796 14.842 18.5301 14.8429 18.4934 14.8189C18.2298 14.6451 18.0281 14.3684 17.9229 14.0646C17.8122 13.7601 17.7944 13.4396 17.8131 13.1334C17.8282 12.825 17.893 12.5253 17.9881 12.2404C18.0885 11.956 18.2094 11.6836 18.3891 11.4345C18.4232 11.3871 18.4892 11.3764 18.5366 11.4108C18.5713 11.4357 18.5864 11.478 18.5784 11.5171L18.5772 11.5221Z" fill="#FF870F"/>
<path d="M20.4544 11.3896C20.8024 11.378 21.1371 11.4764 21.4463 11.6698C21.7502 11.8635 22.0084 12.2088 22.0697 12.598C22.1385 12.9872 22.0327 13.3465 21.9006 13.6622C21.8186 13.8106 21.7351 13.959 21.6394 14.0937C21.5345 14.2223 21.4282 14.3475 21.3133 14.4634C21.2724 14.5045 21.2058 14.5051 21.1643 14.4639C21.1353 14.4352 21.1264 14.3937 21.138 14.3576L21.1415 14.3467C21.1898 14.1941 21.2464 14.0514 21.3041 13.9116C21.3557 13.7697 21.3894 13.6258 21.4413 13.4907C21.496 13.212 21.5467 12.9439 21.4957 12.7067C21.4404 12.4754 21.324 12.2672 21.1261 12.085C20.9324 11.9032 20.6795 11.7426 20.4159 11.594L20.4055 11.588C20.3546 11.5593 20.3365 11.4947 20.3652 11.4435C20.3845 11.41 20.4188 11.3908 20.4544 11.3896Z" fill="#FFCF0F"/>
<path d="M33.9383 13.7385C33.9383 13.7385 35.5791 11.8761 35.1275 11.2565C34.6758 10.6368 31.0212 8.77061 30.1401 8.86687C29.2592 8.96283 29.2012 11.7277 29.2012 11.7277L33.9383 13.7385Z" fill="#002A40"/>
<path d="M29.3634 10.2109C29.2965 10.5474 29.2577 10.888 29.2363 11.1635C30.974 11.5698 33.0956 12.7616 34.0709 13.5812C34.2074 13.4162 34.4296 13.1357 34.6407 12.82C33.6977 11.956 31.2394 10.5592 29.3634 10.2109Z" fill="#002133"/>
<path d="M33.7843 15.91C33.7843 15.91 34.7901 14.9524 34.6032 14.2007C34.4394 13.5414 31.1974 11.4957 28.8842 11.0908C28.3307 10.994 27.7878 11.3298 27.6435 11.8727C27.5417 12.256 27.5014 12.6899 27.6966 12.9929L33.7843 15.91Z" fill="#001B29"/>
<path d="M27.6259 11.9457C27.5805 12.1314 27.5515 12.3269 27.5601 12.5109C28.8183 12.5286 31.8215 12.89 34.016 15.6596C34.1217 15.5352 34.249 15.3705 34.3592 15.1883C34.3524 15.1783 34.3459 15.1682 34.3373 15.1572C32.0262 12.1842 28.786 11.933 27.6501 11.9437C27.6427 11.9446 27.6341 11.9431 27.6259 11.9457Z" fill="#00141F"/>
<path d="M16.6063 29.8186C16.5862 29.8849 16.5714 29.9448 16.561 29.9996C16.3445 31.1096 18.3417 32.7001 20.709 33.9219C23.5074 35.364 26.8246 36.2904 27.6124 35.2953C27.6634 35.2322 27.7179 35.1478 27.7774 35.0474C28.4705 33.8801 29.7328 30.3414 30.9628 26.6308C32.1354 23.0977 33.2784 19.4049 33.8755 17.4522C34.0111 17.0058 34.1192 16.6501 34.1942 16.4072C34.2655 16.1718 34.2167 15.9182 34.0656 15.7236C31.7545 12.7506 28.5143 12.4994 27.3784 12.5101C27.1285 12.5124 26.8948 12.6398 26.7553 12.8495C26.0604 13.9101 23.7544 17.4344 21.5102 21.0463C21.3574 21.2933 21.2045 21.54 21.0517 21.7871C19.8389 23.751 18.6778 25.6937 17.8367 27.2276C17.2129 28.3703 16.7648 29.2864 16.6063 29.8186Z" fill="#002A40"/>
<path d="M17.8359 27.2283C18.4677 29.5577 19.5206 32.0522 20.7086 33.9229C23.5069 35.365 26.8241 36.2914 27.612 35.2963C27.6629 35.2332 27.7174 35.1488 27.777 35.0483C28.47 33.8811 29.7323 30.3423 30.9624 26.6318C32.135 23.0986 33.2779 19.4058 33.875 17.4531C31.0666 18.9589 25.717 21.4326 21.5095 21.0473C21.3566 21.2943 21.2038 21.541 21.051 21.788C19.8381 23.7517 18.6768 25.6944 17.8359 27.2283Z" fill="#002236"/>
<path d="M16.6094 29.8189C18.2324 29.9978 23.4044 30.8799 27.7804 35.0474C28.4735 33.8802 29.7358 30.3414 30.9659 26.6309C29.5599 25.4458 25.8481 22.6653 21.0545 21.7871C18.9379 25.2136 16.9814 28.5714 16.6094 29.8189Z" fill="#FFB30F"/>
<path d="M16.6074 29.8193C18.2308 29.9982 23.4027 30.8805 27.7788 35.0478C28.4718 33.8805 29.7342 30.3417 30.9642 26.6312C30.6316 26.3498 30.1681 25.9805 29.5926 25.5664C29.5819 25.5978 29.5713 25.6292 29.5606 25.6609C28.4638 28.8934 24.8033 30.4528 21.7059 29.0181C20.1693 28.3064 18.7438 27.8808 17.6212 27.6266C17.1118 28.5845 16.7475 29.3495 16.6074 29.8193Z" fill="#FF870F"/>
<path d="M26.6215 24.6185C25.8357 24.3125 25.0609 23.99 24.2838 23.6979C23.8964 23.5499 23.5057 23.4133 23.1192 23.2892C22.7335 23.171 22.3373 23.0647 21.9842 23.0315C21.8133 23.012 21.6427 23.0431 21.6181 23.0647C21.6131 23.0662 21.6205 23.0689 21.6187 23.0674C21.6187 23.0674 21.6181 23.0659 21.6172 23.0647L21.5968 23.0899L21.5124 23.1924C21.4561 23.2634 21.4013 23.347 21.3453 23.4243C21.1312 23.7557 20.9183 24.1102 20.7166 24.4713C20.3004 25.1886 19.9012 25.927 19.4409 26.642L19.44 26.6432C19.4086 26.692 19.3435 26.7063 19.2943 26.6746C19.2561 26.65 19.2392 26.6047 19.2487 26.5629C19.4382 25.7259 19.7288 24.9286 20.0703 24.1434C20.2492 23.7542 20.4334 23.3659 20.6742 22.9895C20.7385 22.8944 20.7971 22.8002 20.8685 22.7043L20.981 22.5603L21.0101 22.5242L21.0684 22.4703C21.1081 22.4368 21.1508 22.398 21.1922 22.3752C21.5399 22.1892 21.813 22.2218 22.0556 22.2366C22.5407 22.2878 22.9557 22.43 23.3644 22.584C23.7728 22.7351 24.1608 22.9196 24.5432 23.1106C25.3041 23.5001 26.0345 23.9334 26.7231 24.4378C26.7696 24.4719 26.7797 24.5373 26.7456 24.5841C26.7169 24.6232 26.6662 24.6365 26.6233 24.62L26.6215 24.6185Z" fill="#FFCF0F"/>
<path d="M32.4758 15.5052C31.9598 15.3799 31.4862 15.196 31.0239 15.0002C30.5616 14.8041 30.1173 14.584 29.6778 14.3619C29.2382 14.1401 28.8037 13.9159 28.3698 13.7056C28.1527 13.6019 27.9368 13.4965 27.7173 13.4132C27.4973 13.3268 27.2811 13.2566 27.0468 13.2415L27.0311 13.2403C26.9724 13.2364 26.928 13.1858 26.9319 13.1271C26.9342 13.0922 26.9538 13.062 26.981 13.0442C27.2352 12.8831 27.5384 12.8532 27.8142 12.8496C28.0932 12.8535 28.3648 12.889 28.6272 12.9462C29.1515 13.0629 29.6431 13.2518 30.1126 13.4737C30.582 13.6967 31.0289 13.957 31.4454 14.263C31.8612 14.5698 32.2551 14.9081 32.5898 15.3313C32.6274 15.3787 32.6191 15.4477 32.5717 15.485C32.5445 15.5066 32.5098 15.5132 32.4785 15.5058L32.4758 15.5052Z" fill="#003C5C"/>
<path d="M21.7009 15.6591L22.7526 13.4641C23.0666 12.8089 23.8523 12.5323 24.5075 12.8463L28.1659 14.5994C28.8865 14.9447 29.0642 15.9144 28.4834 16.4629C28.3549 16.5844 28.2169 16.6836 28.0723 16.7425C27.3573 17.0334 27.9915 21.5981 26.4839 21.7394C25.4579 21.8357 24.0629 21.0884 23.2766 20.6009C22.9229 20.3817 22.784 19.9362 22.946 19.553L23.5094 18.2205C23.7573 17.634 23.4566 16.9605 22.8545 16.7535L22.0418 16.4739C21.7074 16.3593 21.5481 15.9781 21.7009 15.6591Z" fill="#FFB30F"/>
<path d="M22.885 19.7782C22.8468 20.0984 22.9907 20.423 23.2759 20.6013C24.0626 21.0888 25.4576 21.8355 26.4845 21.7404C27.9917 21.5989 27.3576 17.0341 28.0729 16.7433C28.2168 16.6831 28.3563 16.5842 28.4834 16.4634C28.9801 15.9942 28.9214 15.2176 28.4452 14.7891C28.4588 15.0974 28.3477 15.4105 28.0989 15.6459C27.9701 15.7662 27.8324 15.866 27.6867 15.9249C26.9717 16.2158 27.6055 20.7805 26.0982 20.9221C25.0731 21.0183 23.6784 20.2714 22.8915 19.7839C22.8894 19.783 22.8859 19.7812 22.885 19.7782Z" fill="#FF870F"/>
<path d="M26.6199 15.3778C26.5384 15.674 26.4019 15.939 26.2428 16.1952C26.0802 16.4479 25.8874 16.686 25.6564 16.8913C25.4292 17.0977 25.1683 17.2846 24.8618 17.3892C24.5591 17.4973 24.217 17.5135 23.9163 17.417C23.8616 17.3992 23.831 17.3406 23.8488 17.2855C23.863 17.2417 23.9033 17.2135 23.9471 17.2129H23.9546C24.2285 17.2103 24.4764 17.141 24.7066 17.024C24.9385 16.9105 25.1437 16.7355 25.341 16.5524C25.7319 16.1781 26.0669 15.7255 26.4333 15.2863L26.4366 15.2821C26.4739 15.2374 26.5405 15.2312 26.5855 15.2688C26.6187 15.296 26.6305 15.3393 26.6199 15.3778Z" fill="#FF870F"/>
<path d="M25.2268 13.8986C24.9457 13.7864 24.6622 13.6898 24.3992 13.6528C24.1333 13.6125 23.8978 13.6525 23.6831 13.7544C23.4663 13.8634 23.2891 14.0707 23.1064 14.2881C23.0335 14.4131 22.9423 14.5298 22.8641 14.6586C22.7916 14.7913 22.7157 14.9249 22.6269 15.0579L22.6207 15.067C22.5884 15.1156 22.5229 15.1286 22.4746 15.0964C22.4406 15.0739 22.424 15.0348 22.4284 14.9968C22.4468 14.8348 22.4779 14.6734 22.5123 14.5111C22.5573 14.3524 22.6207 14.1942 22.6849 14.0372C22.8481 13.7366 23.062 13.4289 23.4082 13.2387C23.75 13.0426 24.1807 13.0275 24.5224 13.143C24.8669 13.263 25.1533 13.4623 25.3621 13.7407C25.3974 13.7875 25.3879 13.8539 25.3411 13.8891C25.3106 13.9122 25.2715 13.9161 25.2383 13.9028L25.2268 13.8986Z" fill="#FFCF0F"/>
</svg>
