<svg width="36" height="40" viewBox="0 0 36 40" fill="none" xmlns="http://www.w3.org/2000/svg">
<path d="M35.0139 33.4953C35.0317 33.9896 34.7262 34.5668 33.9319 35.1912C33.1481 35.8074 31.9711 36.4002 30.4641 36.9253C27.4561 37.9735 23.2446 38.714 18.5476 38.8832C13.8506 39.0524 9.59681 38.6168 6.52121 37.7878C4.98034 37.3725 3.76367 36.8659 2.93757 36.3077C2.10046 35.742 1.75414 35.1884 1.73633 34.6941C1.71853 34.1997 2.02412 33.6226 2.81836 32.9982C3.60215 32.382 4.77922 31.7892 6.28622 31.2641C9.29419 30.2159 13.5057 29.4754 18.2026 29.3062C22.8996 29.137 27.1535 29.5726 30.2291 30.4016C31.7699 30.8169 32.9866 31.3235 33.8127 31.8817C34.6498 32.4474 34.9961 33.001 35.0139 33.4953Z" fill="#0D3B6C" stroke="black"/>
<path d="M6.70513 12.0313C6.60908 9.36321 8.69463 7.1218 11.3628 7.02653L11.11 0.0078125C4.74947 0.236915 -0.221491 5.57869 0.0076115 11.9392C0.175305 16.5976 6.74764 27.3694 10.2542 32.8017C10.7408 33.5559 11.5423 33.9134 12.3288 33.885L11.7099 16.6898C9.04259 16.785 6.80118 14.6995 6.70513 12.0313Z" fill="#F79237"/>
<path d="M11.1106 0.00761149L11.3633 7.02633C14.0314 6.93028 16.2729 9.01583 16.3689 11.684C16.465 14.3521 14.3794 16.5935 11.7113 16.6888L12.3301 33.884C13.1174 33.8557 13.8905 33.4416 14.3219 32.6543C17.4286 26.9842 23.2097 15.7676 23.0428 11.1092C22.8121 4.74949 17.4711 -0.221491 11.1106 0.00761149Z" fill="#F79237"/>
<path d="M6.70509 12.0322C6.80114 14.7003 9.04177 16.7858 11.7099 16.6898L11.3619 7.02734C8.69456 7.12261 6.60904 9.36402 6.70509 12.0322Z" fill="#FFAE4B"/>
<path d="M16.3684 11.6843C16.2723 9.01613 14.0317 6.93058 11.3628 7.02663L11.7107 16.6891C14.3789 16.5938 16.4644 14.3524 16.3684 11.6843Z" fill="#FFAE4B"/>
<path opacity="0.5" d="M11.1106 0.00761149L11.3633 7.02633L11.7113 16.6888L12.3301 33.884C13.1174 33.8557 13.8905 33.4416 14.3219 32.6543C17.4286 26.9842 23.2097 15.7676 23.0428 11.1092C22.8121 4.74949 17.4711 -0.221491 11.1106 0.00761149Z" fill="#FFAE4B"/>
</svg>
