<svg width="75" height="40" viewBox="0 0 75 40" fill="none" xmlns="http://www.w3.org/2000/svg">
<path opacity="0.2" d="M66.6788 14.7542C66.7126 12.9964 66.6882 11.366 66.6056 9.7741C66.5887 9.45078 66.641 9.42167 66.7677 9.35087C67.8045 8.77423 68.2982 7.69884 68.0559 6.5432C68.0063 6.30877 67.9591 6.07394 67.9119 5.83912L67.9001 5.7805C67.8517 5.53742 67.8018 5.29197 67.7498 5.04496C67.6185 4.40617 67.4639 3.71585 67.2283 2.99683C66.7633 1.60007 65.6227 0.882229 64.1736 1.07339C62.5652 1.28737 60.8884 1.47027 59.3894 1.6339C57.0222 1.89233 54.5749 2.16019 52.1554 2.55314C51.6449 2.63653 51.156 2.74549 50.7248 2.84186C50.5459 2.88237 50.3661 2.92209 50.1962 2.95828C49.9964 2.99054 49.7981 3.02634 49.6003 3.06252C49.2148 3.13254 48.8262 3.21199 48.4124 3.30639C45.0348 4.07223 41.9675 5.37576 39.3573 6.5369L38.8774 6.75088C37.4999 7.36528 36.1991 7.94506 34.85 8.41904C33.6814 8.8289 32.3755 9.03344 30.6141 9.08104C29.6838 9.10661 28.7249 9.10856 27.7899 9.11053C26.4136 9.11328 24.9909 9.11605 23.5568 9.19314C19.582 9.40869 16.1387 9.96133 13.029 10.8825C9.93062 11.799 6.85863 12.8669 3.8889 13.8995L3.75084 13.9471C3.53096 14.023 3.31108 14.0977 3.09081 14.1724L2.95471 14.2185C2.68409 14.3093 2.41387 14.4014 2.14089 14.495C0.851517 14.9422 0.210764 15.9692 0.383048 17.3125C0.499477 18.2306 0.685527 19.1081 0.867644 19.9679L1.04465 20.8085C1.32117 22.1242 2.21051 22.8743 3.49241 22.8798C3.65722 23.0978 3.80315 23.4423 3.97307 23.8624L4.22167 24.4784C4.69368 25.649 5.09371 26.6307 5.54762 27.6385C1.44192 33.5575 0.389341 36.5127 1.66259 38.5238C2.08936 39.1972 2.96337 40 4.70548 40H4.70666C5.17198 40 5.68175 39.9422 6.22181 39.8289C8.46621 39.3573 10.1902 37.8256 11.635 35.016C12.0535 35.2257 12.4449 35.3916 12.8252 35.5218C14.4147 36.0646 16.1191 36.2397 18.0905 36.0607C20.6161 35.8294 23.0222 35.2642 25.2422 34.38C28.9377 32.9085 31.5062 30.2338 32.8762 26.4301C33.8993 23.5934 34.3143 20.7507 34.5613 18.592C34.6156 18.1346 34.6856 17.7656 34.7815 17.4305C34.7977 17.3727 34.9279 17.2547 35.1198 17.1906C35.3267 17.1229 35.545 17.1323 35.6516 17.2138C36.0701 17.5347 36.445 17.9827 36.867 18.666C37.7965 20.1646 38.9356 21.9134 40.3336 23.5218C42.4112 25.9094 44.7107 27.4328 47.3641 28.1785C49.1326 28.6769 50.9845 28.8323 53.0247 28.6549C55.5102 28.4429 57.5238 27.9504 59.3603 27.1051C61.2609 26.2339 62.7674 25.1679 63.9588 23.8506C66.0152 25.5593 67.8391 26.3562 69.6867 26.3562C70.1276 26.3562 70.5748 26.3094 71.0162 26.2166C73.7389 25.6446 74.5031 24.2534 74.6644 23.187C75.0223 20.8274 72.8566 18.5381 66.6788 14.7542Z" fill="black"/>
<path d="M65.929 13.6237C65.9648 11.8666 65.9436 10.1863 65.8582 8.54488C65.835 8.09883 65.9613 8.02882 66.121 7.93953C67.0799 7.40616 67.5366 6.41298 67.3124 5.34427C67.2585 5.08938 67.2074 4.8341 67.1563 4.57921C67.1079 4.33692 67.0579 4.09147 67.006 3.84484C66.8703 3.18482 66.7169 2.50906 66.4903 1.81914C66.0569 0.516785 64.9937 -0.150323 63.6484 0.0286476C62.068 0.238692 60.447 0.416094 58.8792 0.587198C56.5085 0.846016 54.0572 1.11387 51.6382 1.50643C51.6374 1.50643 51.637 1.50682 51.6362 1.50682C51.1429 1.58746 50.6721 1.69209 50.217 1.79357C50.0369 1.83408 49.8571 1.87381 49.6762 1.91236C49.4779 1.94422 49.2809 1.97962 49.0842 2.01541C48.6873 2.08739 48.2944 2.16882 47.905 2.25771C44.5918 3.00899 41.5427 4.29404 38.8864 5.47603L38.4235 5.68214C37.0365 6.30086 35.7263 6.88537 34.3638 7.36407C33.1751 7.78101 31.8503 7.98869 30.0681 8.03707C29.1327 8.06264 28.1698 8.06461 27.2388 8.06658C25.8625 8.06933 24.439 8.07208 23.0159 8.14918C19.0577 8.36394 15.6285 8.91384 12.5333 9.83072C9.44246 10.7452 6.37164 11.8124 3.40191 12.8449L3.26385 12.8925C2.99834 12.9841 2.73205 13.0738 2.46615 13.1643C2.19593 13.2555 1.92609 13.3468 1.6539 13.4404C0.442803 13.8601 -0.135016 14.7868 0.0266471 16.0475C0.142683 16.9612 0.328734 17.8384 0.508491 18.6868L0.550578 18.8858C0.551365 18.8902 0.552545 18.8949 0.553332 18.8992L0.685495 19.527C0.952967 20.7998 1.79668 21.4717 3.03296 21.441C3.24182 21.6742 3.4027 22.0499 3.60409 22.5474L3.85268 23.1634C4.28614 24.238 4.72904 25.3323 5.22151 26.4183C1.30343 32.0533 0.000686656 35.1607 1.27747 37.1774C1.70622 37.8539 2.54049 38.5623 4.15555 38.5619C4.58862 38.5619 5.07755 38.5112 5.63019 38.3952C8.18652 37.8579 9.78387 35.9348 10.9977 33.5099C11.4288 33.7341 11.8721 33.9355 12.3382 34.0944C13.5041 34.4928 14.7475 34.6903 16.1092 34.6903C16.5663 34.6903 17.0367 34.6679 17.5221 34.6238C20.0285 34.3945 22.4164 33.8336 24.6187 32.9564C28.2595 31.5066 30.7903 28.8704 32.1406 25.1226C33.1566 22.3055 33.5696 19.4731 33.8155 17.3282C33.8713 16.8601 33.9421 16.4841 34.0416 16.1368C34.0818 15.9948 34.2733 15.8414 34.5077 15.7631C34.7807 15.6734 35.06 15.6939 35.2205 15.817C35.6595 16.1541 36.0485 16.6174 36.4835 17.3219C37.409 18.8135 38.5419 20.5536 39.9311 22.1521C41.9828 24.5102 44.252 26.0136 46.8669 26.7483C48.611 27.24 50.44 27.3942 52.4571 27.218C54.9198 27.0079 56.9129 26.5202 58.7273 25.6855C60.6693 24.795 62.2033 23.6897 63.388 22.3358C65.1632 23.84 67.043 24.9181 69.1356 24.9181C69.5564 24.9181 69.986 24.8745 70.4245 24.7824C73.0375 24.2333 73.7668 22.9203 73.919 21.9157C74.2777 19.5502 71.8201 17.2232 65.929 13.6237Z" fill="white"/>
<path d="M46.8129 7.95529C49.35 7.42389 51.5527 7.54621 56.7227 10.4322C64.6517 14.8541 77.1088 21.5291 70.0499 23.0124C62.9918 24.4953 57.8961 8.1028 47.41 10.3059C36.9235 12.509 34.9289 12.9283 34.9289 12.9283L34.4238 10.5238C34.4238 10.5238 45.4594 8.2385 46.8129 7.95529Z" fill="#4170A4"/>
<path d="M20.4732 13.4897C17.9323 14.0254 15.9667 15.0233 12.3944 19.7462C6.91633 26.9848 -1.80129 38.1089 5.25682 36.626C12.3157 35.1431 10.3829 18.0859 20.8709 15.8824C31.3566 13.6793 33.3532 13.26 33.3532 13.26L32.8478 10.8555C32.8478 10.8555 21.8248 13.2049 20.4732 13.4897Z" fill="#4170A4"/>
<path opacity="0.7" fill-rule="evenodd" clip-rule="evenodd" d="M42.8377 7.36801C41.6003 8.05793 40.462 8.87646 39.6057 10.0317C38.7387 11.1999 38.5078 12.4787 38.924 13.8758C39.671 16.3913 40.886 18.6679 42.6482 20.598C45.0515 23.2326 48.066 24.5484 51.6608 24.4048C53.5771 24.3293 55.4593 24.013 57.258 23.3156C60.6671 21.9893 62.4474 19.4471 62.753 15.839C62.9418 13.5922 62.5469 11.4143 61.8888 9.27571C61.5506 8.1775 61.1022 7.13121 60.3941 6.21197C59.3325 4.83999 57.8862 4.25982 56.2015 4.15715C54.7851 4.07141 53.3876 4.24252 51.9987 4.49072C51.3646 4.60243 50.7396 4.75111 50.1094 4.88366C47.5598 5.336 45.1093 6.10106 42.8377 7.36801ZM10.9267 13.7394C10.2164 14.0603 9.54414 14.4438 8.93682 14.9331C7.38824 16.1777 6.85133 17.8392 7.10189 19.7398C7.45786 22.4283 8.13166 25.0393 9.32623 27.489C10.111 29.0926 11.2127 30.4158 12.8915 31.1585C14.1278 31.7052 15.4344 31.859 16.7667 31.7807C19.3533 31.6273 21.8459 31.057 24.1466 29.8364C27.1985 28.2147 28.9536 25.6033 29.6887 22.2835C30.1729 20.0981 30.2146 17.8812 29.9208 15.6652C29.6691 13.748 28.5618 12.5074 26.7737 11.845C25.3903 11.3341 23.9463 11.2227 22.4859 11.2479C20.5467 11.2821 18.6406 11.5728 16.7466 11.9811C14.7622 12.4181 12.79 12.898 10.9267 13.7394Z" fill="#7AD2E2"/>
<path fill-rule="evenodd" clip-rule="evenodd" d="M63.9046 15.1644L55.9701 3.63672L52.4395 3.88453L62.4441 17.67C62.4441 17.67 63.4892 15.9762 63.9046 15.1644Z" fill="#89F2F8"/>
<path fill-rule="evenodd" clip-rule="evenodd" d="M61.975 21.0945L50.5673 4.80469L46.3066 5.76679L58.2512 23.3779C58.2512 23.3779 61.4747 22.1876 61.975 21.0945Z" fill="#89F2F8"/>
<path fill-rule="evenodd" clip-rule="evenodd" d="M30.0495 22.2777L22.1134 10.75L18.582 10.9978L28.5882 24.7828C28.5882 24.7828 29.6318 23.0895 30.0495 22.2777Z" fill="#89F2F8"/>
<path fill-rule="evenodd" clip-rule="evenodd" d="M28.116 28.209L16.7052 11.9199L12.4453 12.882L24.3915 30.4927C24.3915 30.4927 27.6157 29.3021 28.116 28.209Z" fill="#89F2F8"/>
<path fill-rule="evenodd" clip-rule="evenodd" d="M51.9272 3.29326C55.8941 2.64936 59.9026 2.35318 63.8864 1.82296C64.3867 1.7557 64.6149 1.92129 64.771 2.39015C65.1026 3.40183 65.2706 4.45009 65.4904 5.48694C65.5447 5.74615 65.4546 5.95422 65.1852 6.09976C64.2903 6.58239 63.9332 7.35019 63.9753 8.29185C64.0779 10.5823 64.0406 12.8731 63.9053 15.1651C63.8191 16.6291 63.5064 18.0247 62.6367 19.2822C61.4241 21.0373 59.7213 22.2067 57.7699 23.0799C55.9645 23.8878 54.0517 24.267 52.0987 24.4456C50.4325 24.5982 48.7805 24.5195 47.1666 24.0983C44.72 23.4603 42.786 22.0895 41.1544 20.2884C39.9303 18.9353 38.9057 17.4461 37.9282 15.9231C37.4743 15.2119 36.9535 14.5531 36.2506 14.0394C34.9117 13.0576 32.6771 13.7758 32.2208 15.287C32.0788 15.7516 31.9903 16.2177 31.927 16.6928C31.6163 19.1001 31.1655 21.4822 30.2817 23.7773C29.0946 26.8662 26.9442 29.0634 23.7443 30.3083C21.6191 31.1375 19.4156 31.6288 17.1515 31.8495C15.6525 31.9954 14.1653 31.9269 12.7304 31.4679C10.613 30.7933 9.13719 29.395 8.05472 27.5931C6.88885 25.6547 6.06244 23.5594 5.20102 21.4845C4.95243 20.8827 4.69912 20.2919 4.21413 19.825C3.8908 19.5123 3.51123 19.3196 3.03332 19.3601C2.58295 19.3971 2.49602 19.3404 2.40633 18.9144C2.19314 17.8858 1.95478 16.8631 1.82261 15.8196C1.7703 15.4117 1.83048 15.2957 2.24585 15.1521C2.78001 14.968 3.31771 14.7895 3.85265 14.6054C6.90183 13.5453 9.94787 12.4841 13.0462 11.5676C16.3338 10.5941 19.7035 10.1429 23.113 9.95804C25.4475 9.83178 27.7824 9.91162 30.1164 9.8479C31.7649 9.80306 33.3914 9.62449 34.962 9.07342C36.5547 8.51369 38.0832 7.81551 39.6212 7.1307C42.9646 5.64269 46.3512 4.27032 50.0038 3.69368C50.6453 3.55838 51.2814 3.39868 51.9272 3.29326ZM42.8174 7.26995C41.5765 7.94335 40.4326 8.73436 39.5673 9.84752C38.6913 10.9729 38.4494 12.1989 38.8518 13.5316C39.5743 15.9313 40.7662 18.0963 42.5075 19.9273C44.8817 22.4242 47.879 23.6562 51.4674 23.4847C53.3806 23.3942 55.2624 23.0764 57.0635 22.3896C60.4785 21.0908 62.2788 18.6454 62.6163 15.1887C62.8251 13.0387 62.4507 10.9583 61.8139 8.9204C61.4866 7.87372 61.048 6.8766 60.3506 6.00614C59.3032 4.70024 57.8655 4.16098 56.1848 4.07799C54.7715 4.00797 53.3755 4.18497 51.987 4.43514C51.3533 4.54842 50.7279 4.69553 50.0978 4.82808C47.5489 5.28357 45.0965 6.03879 42.8174 7.26995ZM10.9096 13.6586C10.1972 13.9713 9.52306 14.3434 8.9122 14.817C7.35457 16.0198 6.80428 17.6164 7.03714 19.4321C7.36755 21.9982 8.01617 24.4904 9.18597 26.8214C9.95456 28.3487 11.0418 29.6035 12.7111 30.2997C13.9395 30.8099 15.2426 30.9448 16.5725 30.8571C19.1564 30.6895 21.649 30.1207 23.9563 28.9301C27.0177 27.352 28.7933 24.8385 29.5571 21.6564C30.0606 19.5627 30.1223 17.4414 29.8494 15.324C29.6157 13.4926 28.5222 12.3173 26.7435 11.7009C25.3669 11.2226 23.9268 11.1298 22.4691 11.1676C20.5335 11.2195 18.6285 11.5153 16.7342 11.9224C14.7494 12.3578 12.7768 12.8353 10.9096 13.6586Z" fill="#64ACA9"/>
<path fill-rule="evenodd" clip-rule="evenodd" d="M51.9274 3.29643C55.8962 2.66197 59.9099 2.38938 63.8964 1.87214C64.3975 1.80802 64.6276 1.98188 64.7885 2.47435C65.1307 3.5348 65.3089 4.63301 65.539 5.71941C65.596 5.992 65.5071 6.20715 65.2389 6.35623C64.3468 6.85263 63.9967 7.65308 64.0478 8.63762C64.1725 11.0323 64.1572 13.4289 64.0431 15.8224C63.9711 17.3548 63.671 18.809 62.8116 20.1161C61.6134 21.9408 59.9181 23.146 57.9711 24.0393C56.17 24.8681 54.2572 25.2465 52.3015 25.4136C50.6337 25.5588 48.9781 25.4616 47.3564 25.0049C44.8988 24.3142 42.947 22.8612 41.2954 20.963C40.056 19.5367 39.0152 17.9704 38.0208 16.3668C37.5598 15.6206 37.0312 14.9256 36.3216 14.3804C34.9708 13.342 32.7386 14.0716 32.2957 15.647C32.1577 16.1304 32.0739 16.6189 32.0149 17.1145C31.727 19.6295 31.2978 22.1147 30.4348 24.5085C29.2753 27.728 27.141 30.0027 23.9471 31.2744C21.8254 32.1193 19.6223 32.6137 17.3554 32.821C15.8548 32.9579 14.3641 32.8741 12.9225 32.3817C10.7941 31.6552 9.30218 30.1805 8.19964 28.2834C7.01254 26.2455 6.16488 24.0491 5.28183 21.8692C5.02695 21.2379 4.76695 20.6156 4.27684 20.1236C3.95037 19.7951 3.56765 19.5898 3.08895 19.626C2.63858 19.6622 2.55086 19.602 2.45685 19.1556C2.23344 18.0774 1.98445 17.0052 1.84206 15.9132C1.78621 15.4876 1.84481 15.3653 2.25979 15.219C2.79316 15.031 3.33046 14.8512 3.86462 14.6616C6.90987 13.5831 9.95158 12.5022 13.0476 11.5739C16.3324 10.5882 19.7045 10.1477 23.1191 9.98678C25.4571 9.87782 27.7975 9.98442 30.1359 9.93997C31.7875 9.9089 33.4156 9.73897 34.9834 9.17532C36.5741 8.60654 38.0991 7.89105 39.6335 7.18973C42.9694 5.66592 46.3498 4.26405 50.004 3.69528C50.6455 3.56036 51.2811 3.39949 51.9274 3.29643ZM42.8373 7.36791C41.5998 8.05783 40.4615 8.87637 39.6052 10.0316C38.7383 11.1998 38.5074 12.4786 38.9235 13.8757C39.6705 16.3912 40.8855 18.6678 42.6477 20.5979C45.051 23.2325 48.0656 24.5483 51.6603 24.4047C53.5767 24.3292 55.4588 24.0129 57.2576 23.3155C60.6667 21.9892 62.4469 19.447 62.7526 15.8389C62.9414 13.5921 62.5464 11.4142 61.8884 9.27561C61.5501 8.1774 61.1017 7.13111 60.3937 6.21187C59.3321 4.8399 57.8857 4.25972 56.2011 4.15706C54.7846 4.07131 53.3871 4.24242 51.9982 4.49062C51.3641 4.60233 50.7391 4.75101 50.109 4.88356C47.5593 5.33591 45.1088 6.10096 42.8373 7.36791ZM10.9263 13.7393C10.2159 14.0602 9.54368 14.4437 8.93637 14.933C7.38778 16.1776 6.85087 17.8391 7.10143 19.7397C7.4574 22.4282 8.1312 25.0392 9.32578 27.4889C10.1105 29.0926 11.2122 30.4158 12.891 31.1584C14.1273 31.7051 15.434 31.8589 16.7662 31.7806C19.3528 31.6272 21.8454 31.0569 24.1461 29.8364C27.198 28.2146 28.9531 25.6032 29.6883 22.2834C30.1725 20.098 30.2142 17.8811 29.9203 15.6651C29.6686 13.7479 28.5613 12.5073 26.7732 11.8449C25.3898 11.334 23.9459 11.2227 22.4854 11.2478C20.5462 11.282 18.6401 11.5727 16.7462 11.981C14.7618 12.418 12.7895 12.8979 10.9263 13.7393Z" fill="#18283A"/>
</svg>
