<svg width="61" height="40" viewBox="0 0 61 40" fill="none" xmlns="http://www.w3.org/2000/svg">
<path d="M44.018 14.1333C44.0754 14.5199 43.9606 14.9076 43.7099 15.1992C43.4603 15.4937 43.0914 15.6614 42.7031 15.662C42.3831 15.6631 42.0732 15.5489 41.8305 15.3402C41.5877 15.1322 41.4286 14.8439 41.3842 14.5256C41.3251 14.143 41.436 13.7536 41.6895 13.4608C41.9402 13.1692 42.308 12.9986 42.6963 12.9981C43.0164 12.9969 43.329 13.11 43.5689 13.3193C43.8105 13.5245 43.9669 13.8138 44.0158 14.1271C44.0169 14.1305 44.0169 14.1305 44.018 14.1333Z" fill="white"/>
<path d="M46.9959 24.1815C47.1232 24.1257 47.2511 24.07 47.3733 24.0098L47.5416 24.3958C47.632 24.6027 47.5371 24.85 47.3273 24.9415C47.1175 25.033 46.8719 24.9341 46.7816 24.7272L46.6133 24.3418C46.7435 24.2917 46.8685 24.2372 46.9959 24.1815Z" fill="#073259"/>
<path d="M47.3733 24.0113C47.2511 24.0716 47.1232 24.1273 46.9958 24.183C46.8685 24.2387 46.7434 24.2933 46.6132 24.3433L45.4592 21.6976C45.3677 21.4878 45.4638 21.2434 45.6735 21.1518C45.8833 21.0603 46.1278 21.1564 46.2193 21.3661L47.3733 24.0113Z" fill="#073259"/>
<path d="M32.0906 18.9567C34.642 24.8076 41.477 27.4937 47.3278 24.9423C53.1781 22.391 55.8608 15.5543 53.3095 9.70344C50.7581 3.85313 43.9243 1.1693 38.074 3.72068C32.2225 6.27205 29.5393 13.1064 32.0906 18.9567ZM55.7193 10.7421C57.4782 17.1137 54.3282 23.9924 48.0976 26.7092C41.2712 29.6858 33.2998 26.5534 30.3232 19.727C27.3466 12.9006 30.4761 4.93099 37.3025 1.95382C43.5389 -0.765831 50.7393 1.61271 54.202 7.25496C54.2071 7.26633 54.2094 7.27202 54.2173 7.28225C54.2952 7.40675 54.3674 7.5341 54.4402 7.66087C54.4453 7.67224 54.4516 7.67962 54.4567 7.69099C54.5329 7.82686 54.6102 7.965 54.6801 8.10315C54.7455 8.22992 54.812 8.35954 54.8705 8.48574C54.8808 8.50166 54.8882 8.5187 54.8955 8.53576C54.9081 8.56418 54.9234 8.59147 54.9353 8.61933C54.9842 8.72279 55.0326 8.82683 55.0786 8.93143C55.1377 9.0673 55.1934 9.20203 55.2457 9.3379C55.2531 9.35495 55.2605 9.37201 55.2651 9.39021C55.3179 9.51925 55.3663 9.65341 55.4157 9.79041C55.4692 9.93594 55.5169 10.0838 55.5658 10.235C55.6135 10.3828 55.6568 10.5363 55.7028 10.6881C55.7068 10.6966 55.7062 10.7034 55.7096 10.7119C55.7108 10.7222 55.7159 10.7335 55.7193 10.7421Z" fill="#084F84"/>
<path d="M36.3155 21.1309C36.2359 21.2503 36.2325 21.3964 36.2853 21.5186C36.2865 21.5214 36.2865 21.5214 36.2876 21.5243C36.3791 21.734 36.6207 21.8244 36.8282 21.734C36.8879 21.7079 36.9368 21.6732 36.9778 21.6283L42.8679 16.4812C43.4369 16.4391 43.9662 16.1742 44.3368 15.7393C44.7115 15.3062 44.8945 14.7433 44.8525 14.1743L49.086 7.52867C49.1946 7.35983 49.161 7.12789 49.0058 6.99657C48.8495 6.8624 48.6204 6.86411 48.4669 6.99884L42.5325 12.1823C41.9634 12.2244 41.4341 12.4893 41.0635 12.9242C40.6888 13.3574 40.5058 13.9202 40.5496 14.4853L36.3155 21.1309ZM52.709 10.4183C54.7532 15.6325 52.4185 21.5789 47.3737 24.0114L46.2197 21.3657C46.1281 21.1559 45.8837 21.0598 45.6739 21.1513C45.4641 21.2429 45.3681 21.4873 45.4596 21.6971L46.6136 24.3428C41.3983 26.3843 35.4548 24.0484 33.0222 19.003L35.6651 17.8507C35.8749 17.7592 35.971 17.5147 35.8794 17.305C35.789 17.098 35.5446 17.002 35.3348 17.0935L32.6919 18.2458C30.6493 13.0271 32.9824 7.08524 38.0272 4.65268L39.1812 7.29844C39.2716 7.50537 39.5161 7.60143 39.7258 7.5099C39.9356 7.41837 40.0317 7.17393 39.9413 6.967L38.7873 4.32126C44.0026 2.27982 49.9478 4.61175 52.3792 9.66106L49.7363 10.8134C49.5266 10.9049 49.4305 11.1494 49.5209 11.3563C49.6124 11.5661 49.8569 11.6621 50.0666 11.5706L52.709 10.4183Z" fill="white"/>
<path d="M41.8177 16.3016L38.5574 19.1508L40.8842 15.5C40.9945 15.6745 41.1298 15.8314 41.2918 15.9702C41.4527 16.1066 41.6283 16.2157 41.8177 16.3016Z" fill="#E23C2B"/>
<path d="M43.0906 15.9316C43.1532 16.0902 43.1048 16.2732 42.9752 16.3869L42.8678 16.4807C42.8161 16.4864 42.7603 16.4904 42.7052 16.4876C42.5347 16.491 42.388 16.3864 42.3249 16.242C42.3027 16.1908 42.2919 16.1351 42.2908 16.0782C42.2919 15.848 42.4744 15.6638 42.7035 15.6621C42.8746 15.661 43.0298 15.769 43.0906 15.9316Z" fill="#073259"/>
<path d="M55.7029 10.6875C55.6569 10.5357 55.6137 10.3822 55.5659 10.2344C55.6177 10.3833 55.6637 10.5357 55.7029 10.6875Z" fill="#073259"/>
<path d="M56.3617 10.0101C56.3333 9.92143 56.306 9.83559 56.2742 9.74805C56.3083 9.83446 56.3356 9.92029 56.3646 10.009L56.3617 10.0101Z" fill="#073259"/>
<path d="M55.4165 9.79102C55.4699 9.93655 55.5205 10.0832 55.5666 10.2356C55.5171 10.0844 55.4694 9.93655 55.4165 9.79102Z" fill="#073259"/>
<path d="M55.2649 9.39062C55.3189 9.52251 55.3701 9.65553 55.4155 9.79083C55.3661 9.65382 55.3178 9.51967 55.2649 9.39062Z" fill="#073259"/>
<path d="M44.337 15.7388C43.9663 16.1737 43.437 16.4386 42.868 16.4807L42.9754 16.3869C43.1045 16.2732 43.1534 16.0901 43.0908 15.9315C43.03 15.7689 42.8748 15.6609 42.7031 15.6615C43.0914 15.6609 43.4604 15.4932 43.7099 15.1987C43.9606 14.9071 44.0755 14.5194 44.018 14.1328C44.0214 14.172 44.0323 14.2044 44.047 14.2386C44.138 14.4551 44.3813 14.5484 44.5939 14.4557C44.6906 14.4136 44.7593 14.3397 44.8026 14.2533L44.8526 14.1743C44.8946 14.7428 44.7116 15.305 44.337 15.7388Z" fill="#073259"/>
<path d="M50.0653 11.5697C49.8556 11.6612 49.6111 11.5652 49.5196 11.3554C49.4292 11.1485 49.5253 10.904 49.735 10.8125L52.3779 9.66016C52.4382 9.78238 52.495 9.90575 52.5508 10.0337C52.6065 10.161 52.6593 10.29 52.7082 10.4174L50.0653 11.5697Z" fill="#073259"/>
<path d="M35.6645 17.8505L33.0216 19.0028C32.9614 18.8806 32.9028 18.7538 32.8477 18.6265C32.7919 18.4992 32.7402 18.373 32.6919 18.2456L35.3348 17.0933C35.5446 17.0018 35.789 17.0978 35.8794 17.3048C35.9704 17.5145 35.8749 17.759 35.6645 17.8505Z" fill="#073259"/>
<path d="M44.3638 13.6651C44.5918 13.6299 44.801 13.7851 44.8363 14.0125C44.8431 14.0671 44.8499 14.1211 44.8527 14.1739L44.8027 14.253C44.7595 14.3394 44.6902 14.4133 44.5941 14.4554C44.3815 14.548 44.1382 14.4548 44.0472 14.2382C44.0324 14.2041 44.0216 14.1717 44.0182 14.1324C44.0171 14.1296 44.0171 14.1296 44.0159 14.1268C43.9858 13.9045 44.1421 13.6981 44.3638 13.6651Z" fill="#073259"/>
<path d="M57.7939 10.2901L56.5916 10.8143C56.5239 10.5431 56.4477 10.2759 56.3647 10.0082L57.0822 9.69547L56.4824 8.32031C56.7621 8.961 57.3096 9.40442 57.936 9.58008L58.0077 9.74436C58.0998 9.9547 58.0037 10.1986 57.7939 10.2901Z" fill="#073259"/>
<path d="M46.6133 24.3429L46.7815 24.7283C46.8719 24.9352 47.1175 25.0342 47.3273 24.9426C41.4764 27.494 34.6415 24.8073 32.0901 18.957C32.1816 19.1668 32.4232 19.264 32.633 19.1725L33.0213 19.0031C35.455 24.0484 41.3979 26.3843 46.6133 24.3429Z" fill="#073259"/>
<path d="M47.5415 24.3963L47.3733 24.0103C52.418 21.5777 54.7534 15.6313 52.7085 10.4172L53.0968 10.2477C53.3037 10.1574 53.3998 9.9129 53.3083 9.70312C55.8597 15.554 53.1775 22.3906 47.3267 24.942C47.537 24.8505 47.6319 24.6038 47.5415 24.3963Z" fill="#073259"/>
<path d="M53.3087 9.70368C53.4002 9.91346 53.3042 10.1579 53.0972 10.2483L52.709 10.4177C52.6601 10.2904 52.6072 10.1613 52.5515 10.034C52.4958 9.90606 52.4384 9.78269 52.3787 9.66047L52.7669 9.49106C52.9744 9.40067 53.2183 9.49675 53.3087 9.70368Z" fill="#073259"/>
<path d="M32.6337 19.1727C32.424 19.2643 32.1824 19.167 32.0908 18.9573C32.0005 18.7503 32.0937 18.507 32.3035 18.4155L32.6917 18.2461C32.7406 18.3734 32.7924 18.4991 32.8475 18.627C32.9032 18.7543 32.9618 18.8811 33.0215 19.0033L32.6337 19.1727Z" fill="#073259"/>
<path d="M40.5498 14.4856L40.6254 14.365C40.7186 14.2229 40.892 14.1479 41.0603 14.1854C41.2303 14.2189 41.3588 14.3588 41.3843 14.5265C41.4156 14.7527 41.2616 14.9648 41.0353 14.996C40.8454 15.025 40.6692 14.9227 40.5953 14.7527C40.5816 14.7215 40.5708 14.6891 40.5674 14.6504C40.5578 14.597 40.5538 14.5413 40.5498 14.4856Z" fill="#073259"/>
<path d="M41.2915 15.9698C41.1295 15.8311 40.9936 15.6742 40.8839 15.4997L38.5571 19.1505L41.8174 16.3013C41.6281 16.2148 41.4524 16.1057 41.2915 15.9698ZM42.325 16.2416C42.3881 16.386 42.5348 16.4911 42.7053 16.4871C42.7605 16.49 42.8162 16.486 42.8679 16.4803L36.9778 21.6274C36.9369 21.6723 36.888 21.707 36.8283 21.7332C36.6214 21.8235 36.3792 21.7332 36.2877 21.5234C36.2865 21.5205 36.2865 21.5205 36.2854 21.5177C36.2325 21.3955 36.2359 21.2488 36.3155 21.13L40.5491 14.4844C40.553 14.5401 40.557 14.5958 40.5667 14.6487C40.5701 14.6873 40.5809 14.7203 40.5945 14.751C40.669 14.921 40.8447 15.0233 41.0346 14.9943C41.2608 14.963 41.4143 14.751 41.3836 14.5247C41.428 14.8431 41.5871 15.1313 41.8299 15.3394C42.0726 15.5474 42.3824 15.6623 42.7025 15.6611C42.474 15.6628 42.2909 15.8476 42.2898 16.0773C42.2921 16.1347 42.3029 16.1904 42.325 16.2416Z" fill="#E23C2B"/>
<path d="M54.6797 8.10352C54.7479 8.22915 54.8093 8.35422 54.8701 8.48611C54.8116 8.35991 54.7451 8.23029 54.6797 8.10352Z" fill="#073259"/>
<path d="M54.4565 7.69141C54.5356 7.82557 54.6083 7.96258 54.68 8.10356C54.6095 7.96542 54.5327 7.82671 54.4565 7.69141Z" fill="#073259"/>
<path d="M44.1089 12.6924C43.9469 12.5537 43.7713 12.4446 43.5859 12.3599L46.8434 9.51172L44.5194 13.1614C44.4063 12.988 44.2693 12.8283 44.1089 12.6924Z" fill="#084F84"/>
<path d="M55.2953 7.5017C55.2527 7.41927 55.2083 7.34082 55.1628 7.25896L55.1657 7.25781C55.2095 7.33683 55.2555 7.41814 55.2953 7.5017Z" fill="#073259"/>
<path d="M60.5801 6.53234C61.0724 7.66136 60.5539 8.98082 59.4255 9.47256C58.9349 9.68631 58.4124 9.7119 57.936 9.57887L57.2425 7.98767C57.5529 8.69941 58.3812 9.02686 59.0957 8.71533C59.8046 8.40607 60.1338 7.57437 59.8234 6.86205C59.513 6.15031 58.679 5.82513 57.9701 6.13439C57.2612 6.44365 56.9366 7.26341 57.2351 7.97061L56.55 6.39931C56.7769 5.9593 57.1492 5.59092 57.6398 5.37716C58.7683 4.88542 60.0878 5.40389 60.5801 6.53234Z" fill="#073259"/>
<path d="M57.9364 9.57996C57.3094 9.40429 56.7619 8.96144 56.4828 8.32018L56.4754 8.30313C56.2042 7.66529 56.2543 6.97513 56.5505 6.40039L57.2355 7.9717L57.2429 7.98875L57.9364 9.57996Z" fill="#073259"/>
<path d="M42.6962 12.9985C42.5313 12.9996 42.3812 12.903 42.3141 12.7495C42.3119 12.7438 42.3119 12.737 42.3096 12.7313C42.2487 12.5687 42.2942 12.3868 42.425 12.2759L42.5324 12.1815C42.587 12.1747 42.6399 12.1719 42.6939 12.1719C42.9235 12.173 43.1083 12.3555 43.11 12.5846C43.1077 12.812 42.9258 12.999 42.6962 12.9985Z" fill="#073259"/>
<path d="M55.8826 6.94602L55.1651 7.25868C55.0253 7.01593 54.8814 6.7783 54.7302 6.5475L55.9326 6.02335C56.1423 5.93182 56.3857 6.02506 56.4783 6.23768L56.55 6.40197C56.2538 6.97671 56.2037 7.66685 56.4749 8.30469L55.8826 6.94602Z" fill="#073259"/>
<path d="M40.5493 14.4866C40.5056 13.922 40.6886 13.3592 41.0632 12.9255C41.4339 12.4906 41.9632 12.2257 42.5322 12.1836L42.4248 12.278C42.294 12.3888 42.2485 12.5707 42.3094 12.7333C42.3117 12.739 42.3116 12.7458 42.3139 12.7515C42.3804 12.9045 42.5311 13.0011 42.6959 13.0005C42.3082 13.0011 41.9404 13.1716 41.6892 13.4633C41.4356 13.756 41.3248 14.1455 41.3839 14.5281C41.3583 14.3603 41.2298 14.2205 41.0598 14.187C40.8916 14.1489 40.7182 14.2245 40.6249 14.3666L40.5493 14.4866Z" fill="#073259"/>
<path d="M55.9245 10.9504C55.8313 10.9066 55.7591 10.8339 55.7193 10.7429C55.7153 10.7344 55.7107 10.723 55.7096 10.7133C55.7062 10.7048 55.7062 10.698 55.7028 10.6895C55.6635 10.5377 55.6175 10.3859 55.5658 10.2364C55.5197 10.0846 55.4691 9.93734 55.4157 9.79181C55.3702 9.65651 55.319 9.5235 55.265 9.39161C55.2605 9.37341 55.2531 9.35635 55.2457 9.3393C55.1934 9.20343 55.1377 9.06927 55.0786 8.93283C55.0331 8.82766 54.9842 8.72419 54.9353 8.62073C54.9228 8.5923 54.908 8.56501 54.8955 8.53716C54.8881 8.5201 54.8807 8.50306 54.8705 8.48714C54.8097 8.35525 54.7483 8.23018 54.6801 8.10454C54.6084 7.96356 54.5351 7.82655 54.4566 7.69239C54.4515 7.68102 54.4453 7.67362 54.4402 7.66225C54.368 7.53491 54.2958 7.40815 54.2173 7.28365C54.2094 7.27341 54.2071 7.26773 54.202 7.25636C54.1542 7.16256 54.1411 7.04659 54.1758 6.94028C54.2094 6.83113 54.2929 6.73732 54.4038 6.689L54.7301 6.54688C54.8813 6.77768 55.0257 7.01531 55.165 7.25806L55.1621 7.2592C55.2076 7.3405 55.252 7.41895 55.2946 7.50195C55.435 7.75436 55.5629 8.00904 55.6852 8.26657C55.7346 8.37969 55.7869 8.49226 55.8352 8.60254C55.8847 8.71567 55.9313 8.8305 55.9808 8.9442C56.0848 9.20627 56.1843 9.47289 56.2741 9.74804C56.3054 9.83559 56.3327 9.92143 56.3617 10.0101L56.3645 10.009C56.4475 10.2767 56.5237 10.5439 56.5913 10.8151L56.265 10.9572C56.1547 11.0055 56.0285 11.0027 55.9245 10.9504Z" fill="#073259"/>
<path d="M43.5862 12.3604C43.7715 12.4451 43.9472 12.5537 44.1092 12.693C44.2695 12.8289 44.4071 12.9886 44.5197 13.162L46.8436 9.51232L43.5862 12.3604ZM44.0154 14.1273C43.9665 13.8146 43.8102 13.5247 43.5686 13.3195C43.3287 13.1103 43.016 12.9966 42.696 12.9983C42.9256 12.9994 43.1075 12.8118 43.1098 12.585C43.1081 12.3565 42.9239 12.1734 42.6937 12.1723C42.6397 12.1723 42.5868 12.1751 42.5322 12.1819L48.4667 6.99847C48.6207 6.86374 48.8493 6.86202 49.0056 6.99618C49.1608 7.1275 49.1943 7.35945 49.0858 7.52829L44.8522 14.1739C44.8494 14.121 44.8426 14.0665 44.8357 14.0125C44.8005 13.7845 44.5913 13.6299 44.3633 13.6651C44.1422 13.6975 43.9859 13.9039 44.0154 14.1273Z" fill="#084F84"/>
<path d="M39.1806 7.29693L38.0266 4.65117C38.1517 4.58978 38.2756 4.53236 38.4029 4.47722C38.5303 4.42207 38.6593 4.36863 38.7867 4.32031L39.9407 6.96607C40.0311 7.173 39.935 7.41744 39.7253 7.50897C39.5155 7.59993 39.271 7.50386 39.1806 7.29693Z" fill="#073259"/>
<path d="M37.8591 4.26791C37.7676 4.05814 37.8637 3.81367 38.0734 3.72215C38.2832 3.63062 38.5277 3.7267 38.6192 3.93648L38.7875 4.32192C38.6601 4.37081 38.5311 4.42366 38.4037 4.4788C38.2764 4.53395 38.1525 4.59193 38.0274 4.65276L37.8591 4.26791Z" fill="#073259"/>
<path d="M38.0732 3.7227C43.9241 1.17132 50.7579 3.85517 53.3087 9.70548C53.2183 9.49855 52.9739 9.40246 52.767 9.49285L52.3787 9.66226C49.9473 4.61352 44.0026 2.28102 38.7867 4.32247L38.6184 3.93703C38.5275 3.72668 38.283 3.63117 38.0732 3.7227Z" fill="#073259"/>
<path d="M32.0906 18.9568C29.5392 13.1059 32.2231 6.27208 38.0734 3.7207C37.8636 3.81223 37.7675 4.05667 37.8591 4.26645L38.0273 4.65187C32.9826 7.085 30.6489 13.0268 32.6921 18.245L32.3038 18.4144C32.0935 18.5065 32.0002 18.7498 32.0906 18.9568Z" fill="#073259"/>
<path d="M56.5914 10.8144C58.2872 17.4901 54.9451 24.6247 48.428 27.4665C41.1848 30.6251 32.7218 27.3017 29.5632 20.0586C26.4047 12.8155 29.7281 4.35238 36.9712 1.19386C43.4884 -1.64801 50.9918 0.760103 54.7302 6.54561L54.4039 6.68773C54.293 6.73605 54.2095 6.82984 54.1759 6.93899C54.1413 7.0453 54.1543 7.1607 54.2021 7.25507C50.7394 1.61283 43.539 -0.765716 37.3026 1.95393C30.4762 4.93054 27.3467 12.9007 30.3233 19.7271C33.2999 26.5535 41.2713 29.6859 48.0977 26.7093C54.3283 23.9925 57.4783 17.1138 55.7194 10.7422C55.7592 10.8331 55.8314 10.9059 55.9246 10.9497C56.0286 11.002 56.1543 11.0048 56.2651 10.9565L56.5914 10.8144Z" fill="#073259"/>
<path d="M14.6289 40C22.7082 40 29.2578 33.4504 29.2578 25.3711C29.2578 17.2918 22.7082 10.7422 14.6289 10.7422C6.54958 10.7422 0 17.2918 0 25.3711C0 33.4504 6.54958 40 14.6289 40Z" fill="#084F84"/>
<path d="M14.6289 38.2739C21.7553 38.2739 27.5324 32.4968 27.5324 25.3703C27.5324 18.2439 21.7553 12.4668 14.6289 12.4668C7.50246 12.4668 1.72534 18.2439 1.72534 25.3703C1.72534 32.4968 7.50246 38.2739 14.6289 38.2739Z" fill="#073259"/>
<path d="M25.8291 28.9528C24.5477 31.1778 22.5336 33.001 19.9583 34.014C13.9232 36.3875 7.10649 33.4194 4.73306 27.3843C3.72001 24.8091 3.68306 22.0923 4.43858 19.6387C2.71663 22.6278 2.31925 26.3429 3.68022 29.8027C6.05309 35.8377 12.8698 38.8058 18.9049 36.4324C22.3647 35.0714 24.8138 32.2494 25.8291 28.9528Z" fill="#084F84"/>
<path d="M30.5559 22.0307L28.5639 16.9661C28.3951 16.5363 27.909 16.3248 27.4793 16.4937C27.0495 16.6625 26.838 17.148 27.0069 17.5783L28.9988 22.643C29.1677 23.0728 29.6532 23.2843 30.0835 23.1154C30.5133 22.9466 30.7248 22.4611 30.5559 22.0307Z" fill="#073259"/>
<path d="M57.8222 10.1014L56.3896 6.45898L54.7073 7.12063L56.1399 10.763L57.8222 10.1014Z" fill="#073259"/>
<path d="M42.6997 16.46C43.8752 16.46 44.8281 15.507 44.8281 14.3315C44.8281 13.156 43.8752 12.2031 42.6997 12.2031C41.5242 12.2031 40.5713 13.156 40.5713 14.3315C40.5713 15.507 41.5242 16.46 42.6997 16.46Z" fill="#073259"/>
<path d="M42.6998 15.2926C43.2304 15.2926 43.6605 14.8624 43.6605 14.3318C43.6605 13.8012 43.2304 13.3711 42.6998 13.3711C42.1692 13.3711 41.739 13.8012 41.739 14.3318C41.739 14.8624 42.1692 15.2926 42.6998 15.2926Z" fill="white"/>
</svg>
