<svg width="40" height="60" viewBox="0 0 40 60" fill="none" xmlns="http://www.w3.org/2000/svg">
<path opacity="0.2" d="M4.48124 31.8104C5.15861 32.9525 5.79826 34.0312 6.40016 35.1498C7.42266 37.0508 8.03055 38.5376 8.36601 39.9315C8.37521 40.0723 8.38625 40.3562 8.35496 40.6756C8.3476 40.7552 8.3384 40.8329 8.32781 40.9208C8.2482 41.6051 8.11475 42.7509 8.93478 43.767C9.43176 44.3827 10.1598 44.7665 10.9844 44.8466L11.3567 44.8829L11.3691 44.9685C11.3626 44.9736 11.3571 44.9786 11.3507 44.9837C10.561 45.6335 10.0723 46.5506 9.97338 47.5671L9.96327 47.6785C9.30384 48.6848 8.8004 50.018 8.70377 51.0156C8.59517 52.1357 8.9288 53.2309 9.64391 54.0997C9.77 54.2529 9.90713 54.3979 10.0525 54.5313C9.97845 55.5557 10.295 56.5515 10.9503 57.3462C11.6254 58.1667 12.5798 58.6756 13.6391 58.7792L19.5523 59.3525C19.6834 59.3649 19.8137 59.3714 19.9444 59.3714C20.8739 59.3714 21.7459 59.0571 22.467 58.4626C23.2581 57.8105 23.7587 56.9007 23.8866 55.8709C25.0141 55.1811 25.7595 53.998 25.8884 52.6823C25.9846 51.6852 25.7457 50.2812 25.2938 49.1685L25.3049 49.0553C25.4094 47.9799 25.0592 46.9334 24.3537 46.1442L24.4991 46.158C25.3238 46.2386 26.1116 46.0016 26.7162 45.4936C27.7176 44.6537 27.8059 43.5052 27.8611 42.7914C27.8667 42.7201 27.8722 42.6465 27.88 42.571C27.9099 42.2604 27.9725 41.9894 27.9937 41.8927C28.775 40.1721 29.9388 38.6536 30.8651 37.5229C31.6691 36.5414 32.507 35.6031 33.4237 34.5769C34.1379 33.7771 34.8764 32.9498 35.5906 32.1021C37.9315 29.3255 39.3581 26.1724 39.8302 22.7312C40.1813 20.1851 39.9903 17.639 39.2628 15.1632C38.4805 12.5002 37.1341 10.0862 35.2607 7.98826C34.9248 7.61276 34.5691 7.246 34.1747 6.86728C34.1024 6.79733 34.0274 6.73015 33.9538 6.66435L33.8848 6.60223C33.5617 6.30357 33.2907 6.06474 33.0321 5.85214C32.9299 5.76793 32.8268 5.6874 32.7233 5.60779L32.6166 5.5245C32.3575 5.32249 32.0956 5.12507 31.8297 4.93824C31.6709 4.82642 31.5098 4.7192 31.3511 4.6152C31.0915 4.44356 30.8274 4.2779 30.5614 4.1196C30.3921 4.01882 30.2209 3.91989 30.047 3.82371C29.7773 3.67461 29.5026 3.53334 29.226 3.39621L29.1519 3.3594C29.0028 3.28531 28.8533 3.21215 28.6991 3.14082C28.4083 3.00737 28.1119 2.88496 27.8105 2.76394L27.6752 2.70872C27.5533 2.65902 27.4323 2.60886 27.3048 2.56193C26.9583 2.43308 26.6039 2.31711 26.2579 2.20943L26.1705 2.17998C26.0895 2.15237 26.0076 2.12522 25.8833 2.08657C24.634 1.69864 23.3395 1.43773 22.0354 1.31118C20.7303 1.18463 19.4138 1.19061 18.1216 1.3305C17.7181 1.36778 17.3094 1.41794 16.9068 1.48144C16.9068 1.48144 16.8644 1.4819 16.8193 1.49202L16.6997 1.51043C16.2901 1.57578 15.8801 1.65447 15.4793 1.74328L15.3431 1.77411L15.3942 1.99821L15.3477 2.0088L15.2957 1.78469C14.8581 1.88639 14.4591 1.99177 14.0726 2.10727L13.9677 2.14041C13.5411 2.2711 13.1407 2.40731 12.7823 2.54306L12.7105 2.56929C12.3308 2.71424 11.9425 2.8776 11.5242 3.06995L11.6203 3.27887L11.4814 3.08928L11.3654 3.1422C10.9954 3.31614 10.6241 3.50573 10.2601 3.70591L10.0755 3.80899C9.69912 4.02112 9.33559 4.24016 8.99323 4.46243L8.85885 4.55216C8.4539 4.81952 8.09773 5.07078 7.76871 5.31973C5.52906 7.01408 3.74267 9.12396 2.46064 11.5919C1.27063 13.8812 0.593266 16.3427 0.447852 18.9077C0.249058 22.3792 1.04286 25.7481 2.80669 28.9205C3.35659 29.914 3.92812 30.8781 4.48124 31.8104Z" fill="black"/>
<path d="M14.7001 0.558705C14.2689 0.659022 13.875 0.762558 13.494 0.876681L13.3877 0.910272C12.9602 1.04096 12.5649 1.17579 12.2115 1.31016C12.1931 1.3166 12.1632 1.32765 12.1443 1.33455C11.7698 1.4772 11.3864 1.63919 10.9723 1.82924C10.9714 1.8297 10.9299 1.84856 10.929 1.84902L10.8154 1.90102C10.4518 2.0722 10.0823 2.26041 9.72385 2.45737L9.54023 2.55952C9.16933 2.76844 8.81086 2.98473 8.47309 3.20377L8.33781 3.29396C7.94023 3.55672 7.58681 3.80521 7.25963 4.05324C5.04758 5.72596 3.2833 7.81007 2.01645 10.2476C0.841632 12.508 0.173 14.9381 0.0294267 17.47C-0.166606 20.8969 0.617519 24.2244 2.36019 27.3581C2.90549 28.3397 3.47887 29.307 4.03384 30.2425C4.71351 31.3878 5.35499 32.4702 5.95781 33.5902C6.98537 35.5018 7.6043 37.0134 7.95035 38.4657C7.96001 38.6153 7.97152 38.9139 7.93884 39.2466C7.93056 39.3322 7.9209 39.4155 7.91123 39.4961C7.83577 40.1449 7.70876 41.2304 8.4685 42.1719C8.92637 42.7393 9.59776 43.0928 10.3612 43.1673L10.9129 43.2207L10.9709 43.6169C10.9304 43.6473 10.8904 43.679 10.8513 43.7112C10.1095 44.3219 9.64975 45.1847 9.5568 46.1386L9.54069 46.307C8.84491 47.3503 8.37416 48.6843 8.28672 49.5871C8.18365 50.646 8.49932 51.6814 9.17531 52.5023C9.32027 52.6781 9.47719 52.8392 9.64607 52.9855L9.64423 53.0021C9.54714 53.9993 9.84441 54.9753 10.4817 55.7493C11.1182 56.5228 12.0178 57.0019 13.015 57.0994L18.9286 57.6728C19.052 57.6848 19.1753 57.6907 19.2982 57.6907C20.1642 57.6907 20.9966 57.3935 21.6745 56.8348C22.4485 56.197 22.9275 55.2965 23.0228 54.3011L23.0246 54.2813C24.1065 53.6606 24.8828 52.5437 25.013 51.2102C25.1 50.3073 24.8943 48.9089 24.413 47.7529L24.4295 47.5826C24.5528 46.313 23.9956 45.1313 23.0568 44.3996L23.875 44.4788C24.6329 44.5515 25.3637 44.3357 25.9223 43.8668C26.8491 43.0895 26.9333 42.0008 26.9839 41.3505C26.9904 41.2696 26.9963 41.1849 27.0051 41.0979C27.0359 40.779 27.099 40.5001 27.1385 40.3469C27.9296 38.6052 29.1021 37.0733 30.0418 35.9265C30.8503 34.9394 31.6915 33.9975 32.5824 33.0003C33.303 32.1931 34.0494 31.3579 34.7696 30.5034C37.081 27.7608 38.4905 24.6468 38.9571 21.2494C39.3036 18.7364 39.1154 16.2225 38.3966 13.7776C37.624 11.1477 36.295 8.76401 34.4438 6.69094C34.1129 6.32143 33.7609 5.95789 33.3688 5.58147C33.2989 5.51336 33.2261 5.44848 33.1539 5.38452L33.0821 5.32009C32.7618 5.02374 32.4945 4.78859 32.2395 4.57875C32.1392 4.49638 32.0375 4.41678 31.9354 4.33809L31.8286 4.2548C31.5723 4.05508 31.3141 3.85997 31.0509 3.67498C30.8945 3.565 30.7352 3.45916 30.5783 3.35608C30.3216 3.18628 30.0611 3.02246 29.7979 2.86646C29.6308 2.76706 29.461 2.66904 29.2894 2.57425C29.0229 2.42653 28.7514 2.2871 28.4772 2.15181L28.4036 2.115C28.2563 2.04184 28.1086 1.96959 27.9567 1.89964C27.6691 1.76803 27.3755 1.64655 27.0773 1.52644L26.9411 1.47076C26.822 1.42152 26.7028 1.3732 26.5785 1.32673C26.2357 1.19926 25.885 1.08468 25.5385 0.976536L25.4493 0.94663C25.3706 0.91948 25.291 0.893249 25.2044 0.867019C25.1925 0.863337 25.1801 0.859199 25.1686 0.855517C23.9339 0.472195 22.6551 0.214496 21.3666 0.089329C20.0772 -0.0358374 18.7763 -0.0293949 17.5007 0.108196C17.4993 0.108196 17.498 0.108656 17.4961 0.108656C17.0981 0.14547 16.6936 0.195169 16.2606 0.260513C16.2596 0.260513 16.2136 0.267416 16.2136 0.267416L16.0898 0.286283C15.6863 0.350707 15.2786 0.428476 14.8842 0.516368L14.748 0.5472" fill="white"/>
<path d="M16.7631 46.645L17.1387 46.6816L17.7993 39.9105L17.4237 39.8738L16.7631 46.645Z" fill="#58595B"/>
<path d="M19.4131 46.9384L21.7422 40.3301L21.3859 40.2045L19.0567 46.8128L19.4131 46.9384Z" fill="#58595B"/>
<path d="M14.4982 46.4719L14.873 46.418L13.8759 39.482L13.501 39.5359L14.4982 46.4719Z" fill="#58595B"/>
<path d="M21.8676 41.3813L23.884 41.5768C24.162 41.4655 24.3548 41.228 24.4845 40.8659C24.6451 40.4186 24.7864 39.9626 24.9788 39.5291C25.8015 37.6677 26.9754 36.0309 28.2575 34.4667C29.7843 32.6031 31.4524 30.8613 33.0055 29.0188C34.9889 26.6659 36.2539 23.9864 36.6726 20.9336C36.9759 18.7344 36.8121 16.5629 36.1844 14.4245C35.4987 12.0914 34.334 10.0266 32.7239 8.22367C30.452 5.68352 27.6777 3.98181 24.4809 3.05088C23.4123 2.7191 22.296 2.48993 21.1391 2.37765C19.9868 2.26583 18.8502 2.27458 17.743 2.39376C14.4201 2.69057 11.3641 3.82719 8.64454 5.886C6.71504 7.34566 5.17762 9.1486 4.05619 11.3063C3.02816 13.2837 2.45019 15.383 2.32456 17.5992C2.14924 20.6763 2.874 23.5487 4.3691 26.2393C5.53931 28.3456 6.84021 30.3754 7.98098 32.4986C8.93905 34.2808 9.77518 36.1123 10.2238 38.097C10.3292 38.559 10.3798 39.0339 10.4526 39.5038C10.5096 39.8843 10.6546 40.154 10.9049 40.3169L12.9227 40.5125L21.8676 41.3813Z" fill="#E5E3E3"/>
<path d="M15.4435 12.7688C15.941 10.4031 16.5714 8.08107 17.6049 5.88651C18.0785 4.87552 18.6256 3.90778 19.447 3.12917C19.7944 2.79877 20.1837 2.52635 20.6678 2.43799C20.8312 2.40762 20.9858 2.3998 21.1312 2.4113V2.40992C21.1312 2.40992 21.134 2.41038 21.1349 2.41084H21.1377V2.41176C21.2835 2.42879 21.4326 2.46606 21.5886 2.52772C22.0461 2.70765 22.3774 3.05002 22.6544 3.44024C23.3097 4.36335 23.6589 5.4176 23.9318 6.50038C24.5222 8.8537 24.6962 11.253 24.7288 13.6698C24.7578 15.8142 24.6271 17.9503 24.3851 20.0782C24.0763 22.7775 23.5876 25.4447 22.7823 28.0442C22.2315 29.8182 21.6429 31.5806 21.1045 33.3592C20.568 35.1271 20.0696 36.9057 19.7355 38.728C19.5984 39.4735 19.4829 40.2199 19.4024 40.9718C19.3941 41.0413 19.3821 41.0965 19.3619 41.1397L17.3988 40.9488L17.391 40.9483L15.4283 40.7578C15.4173 40.7113 15.4136 40.6547 15.4201 40.5852C15.4868 39.8315 15.5162 39.0773 15.525 38.3194C15.5471 36.4667 15.4016 34.626 15.2148 32.7881C15.028 30.9401 14.7896 29.0966 14.5908 27.2504C14.2986 24.5441 14.3318 21.8333 14.5494 19.1247C14.7201 16.9881 15.0027 14.8667 15.4435 12.7688Z" fill="url(#paint0_linear_1431_22017)"/>
<path d="M4.05595 11.3056C5.17785 9.14789 6.71575 7.34448 8.64525 5.88527C11.7266 3.55221 15.2399 2.40316 19.0833 2.31803C19.5177 2.30883 19.5393 2.31389 19.5393 2.31389C19.5002 2.44918 19.3143 2.46943 19.2204 2.48461C18.763 2.55962 18.3097 2.65166 17.8689 2.80305C15.5671 3.59501 13.813 5.10943 12.3703 7.0196C11.2323 8.52804 10.3943 10.1957 9.75287 11.9733C9.20159 13.496 8.81734 15.0546 8.61625 16.6556C8.3857 18.4926 8.30471 20.3351 8.50903 22.1868C8.65812 23.5319 8.90478 24.8517 9.29684 26.1457C9.79751 27.7991 10.4454 29.4 11.0423 31.0189C12.0003 33.6193 12.8894 36.2368 13.0003 39.0424C13.0192 39.5348 13.0546 40.0309 12.9221 40.5117L10.9061 40.3162C10.6544 40.1537 10.5108 39.8836 10.4519 39.5035C10.3805 39.0332 10.3295 38.5588 10.2245 38.0963C9.77404 36.1116 8.93883 34.2797 7.98121 32.4979C6.83953 30.3746 5.53863 28.3448 4.36979 26.2386C2.87378 23.548 2.14855 20.6752 2.32479 17.5985C2.45042 15.3818 3.02839 13.283 4.05595 11.3056Z" fill="url(#paint1_linear_1431_22017)"/>
<path d="M25.5357 32.4255C26.4326 30.9525 27.3773 29.5053 28.1854 27.9794C28.82 26.7852 29.316 25.5368 29.721 24.2455C30.2769 22.4679 30.5525 20.6443 30.6795 18.7971C30.7913 17.1879 30.7117 15.5842 30.4646 13.9842C30.177 12.1164 29.6764 10.3189 28.8476 8.61953C27.8002 6.46777 26.3709 4.64504 24.262 3.4242C23.8584 3.19136 23.4328 3.01419 22.9984 2.85175C22.9086 2.81954 22.7305 2.76386 22.7172 2.62305C22.7172 2.62305 22.7379 2.62259 23.164 2.71508C26.9195 3.53787 30.1462 5.34127 32.7222 8.22332C34.3342 10.0258 35.4971 12.0911 36.1827 14.4241C36.8113 16.5625 36.9742 18.7341 36.6728 20.9328C36.2527 23.986 34.989 26.6656 33.0039 29.0184C31.4512 30.861 29.7831 32.6022 28.2563 34.4664C26.9733 36.0305 25.8003 37.6674 24.9775 39.5287C24.7861 39.9622 24.6439 40.4187 24.4842 40.8655C24.3536 41.2272 24.1607 41.4647 23.8828 41.5765L21.8659 41.3809C21.8286 40.883 21.9588 40.4031 22.073 39.9236C22.7218 37.1911 24.0959 34.7927 25.5357 32.4255Z" fill="url(#paint2_linear_1431_22017)"/>
<path opacity="0.1" d="M19.6776 32.5271C28.0135 32.5271 34.7712 25.7694 34.7712 17.4334C34.7712 9.09748 28.0135 2.33984 19.6776 2.33984C11.3416 2.33984 4.58398 9.09748 4.58398 17.4334C4.58398 25.7694 11.3416 32.5271 19.6776 32.5271Z" fill="white"/>
<path opacity="0.1" d="M11.1099 10.6616C10.6207 15.7092 14.315 20.1991 19.3626 20.6887C24.4116 21.1788 28.8996 17.4836 29.3888 12.436C29.8793 7.38791 26.1846 2.89894 21.137 2.40886C16.0894 1.91878 11.6 5.61395 11.1099 10.6616Z" fill="white"/>
<path d="M22.7215 50.9847C22.6313 51.9083 21.8089 52.5847 20.8854 52.4955C19.9614 52.4053 19.2858 51.5839 19.3751 50.6603C19.4644 49.7368 20.4363 47.5164 21.3598 47.6062C22.2838 47.6959 22.8107 50.0612 22.7215 50.9847Z" fill="url(#paint3_linear_1431_22017)"/>
<path d="M20.0421 50.428C19.9864 51 20.4056 51.5094 20.9767 51.5651C21.5496 51.6208 22.0599 51.2011 22.1151 50.6291C22.1708 50.0562 21.8446 48.5896 21.2716 48.5348C20.6997 48.4792 20.0978 49.8555 20.0421 50.428Z" fill="url(#paint4_linear_1431_22017)"/>
<path d="M13.9218 50.1336C13.8321 51.0576 13.0093 51.7336 12.0862 51.6439C11.1631 51.5546 10.4866 50.7327 10.5763 49.8087C10.6656 48.8847 11.6366 46.6653 12.5611 46.7546C13.4842 46.8443 14.012 49.2096 13.9218 50.1336Z" fill="url(#paint5_linear_1431_22017)"/>
<path d="M11.2393 49.5745C11.1837 50.1465 11.602 50.6559 12.1753 50.7116C12.7482 50.7672 13.2572 50.348 13.312 49.776C13.3686 49.2031 13.0414 47.7375 12.4694 47.6813C11.8965 47.6256 11.2946 49.002 11.2393 49.5745Z" fill="url(#paint6_linear_1431_22017)"/>
<path d="M11.9347 53.2241C11.8569 54.0211 12.4413 54.7303 13.2374 54.8076L19.152 55.3814C19.9467 55.4587 20.6568 54.8748 20.7327 54.0777L21.3774 47.4425C21.4547 46.646 20.8712 45.9378 20.0746 45.86L14.161 45.2862C13.364 45.2089 12.6548 45.7919 12.578 46.5885L11.9347 53.2241Z" fill="#F0D592"/>
<path d="M13.9859 52.4098C13.9256 53.0301 14.3779 53.5809 14.9987 53.6412L19.6004 54.088C20.2207 54.1479 20.7715 53.6937 20.8314 53.0743L21.4098 47.1206C21.4696 46.5007 21.0163 45.9495 20.3965 45.8892L15.7939 45.4428C15.1745 45.383 14.6232 45.8362 14.5629 46.4566L13.9859 52.4098Z" fill="#FAE79A"/>
<path d="M14.9298 50.2287C14.8405 51.1527 15.5165 51.9746 16.4405 52.0643C17.3636 52.1536 18.186 51.4767 18.2752 50.5531C18.365 49.63 17.8381 47.2642 16.9145 47.1745C15.9928 47.0848 15.02 49.3056 14.9298 50.2287Z" fill="url(#paint7_linear_1431_22017)"/>
<path d="M15.595 49.9963C15.5384 50.5683 15.9585 51.0773 16.5309 51.1334C17.1029 51.1891 17.6123 50.7699 17.6676 50.1974C17.7242 49.625 17.397 48.1584 16.8241 48.1032C16.2521 48.0475 15.6506 49.4234 15.595 49.9963Z" fill="url(#paint8_linear_1431_22017)"/>
<path d="M11.7834 47.0024C11.7148 47.7129 12.2358 48.3447 12.9449 48.4138L20.6642 49.1629C21.3743 49.2319 22.0079 48.7119 22.0765 48.0014L22.1391 47.3581C22.2077 46.6476 21.6872 46.0158 20.9767 45.9468L13.2569 45.1976C12.5468 45.1281 11.9155 45.6491 11.8469 46.3596L11.7834 47.0024Z" fill="#FAE79A"/>
<path d="M13.4455 46.539C13.399 47.0213 13.7524 47.4511 14.2352 47.498L19.4848 48.0079C19.9666 48.0548 20.3964 47.701 20.4433 47.2182L20.4857 46.7806C20.5335 46.297 20.1792 45.8672 19.6965 45.8207L14.4455 45.3108C13.9646 45.2639 13.5339 45.6173 13.4874 46.1009L13.4455 46.539Z" fill="#F9EAAC"/>
<path d="M10.2264 38.0996L17.585 38.8133L17.6195 38.8161L24.9767 39.5307C24.9767 39.5307 24.7862 40.1262 24.7135 40.8767C24.6408 41.6273 24.6854 42.2462 24.096 42.1892L17.3549 41.5348L17.3213 41.5316L10.5817 40.8777C9.99218 40.8201 10.1542 40.2215 10.2273 39.4705C10.3005 38.7204 10.2264 38.0996 10.2264 38.0996Z" fill="url(#paint9_linear_1431_22017)"/>
<defs>
<linearGradient id="paint0_linear_1431_22017" x1="14.379" y1="21.7723" x2="24.733" y2="21.7723" gradientUnits="userSpaceOnUse">
<stop stop-color="#F3881E"/>
<stop offset="1" stop-color="#FD4540"/>
</linearGradient>
<linearGradient id="paint1_linear_1431_22017" x1="2.29843" y1="21.4119" x2="19.5393" y2="21.4119" gradientUnits="userSpaceOnUse">
<stop stop-color="#F3881E"/>
<stop offset="1" stop-color="#FD4540"/>
</linearGradient>
<linearGradient id="paint2_linear_1431_22017" x1="21.8598" y1="22.0998" x2="36.82" y2="22.0998" gradientUnits="userSpaceOnUse">
<stop stop-color="#F3881E"/>
<stop offset="1" stop-color="#FD4540"/>
</linearGradient>
<linearGradient id="paint3_linear_1431_22017" x1="19.3671" y1="50.0536" x2="22.7311" y2="50.0536" gradientUnits="userSpaceOnUse">
<stop stop-color="#F3881E"/>
<stop offset="1" stop-color="#FD4540"/>
</linearGradient>
<linearGradient id="paint4_linear_1431_22017" x1="20.037" y1="50.0518" x2="22.1213" y2="50.0518" gradientUnits="userSpaceOnUse">
<stop stop-color="#FE5961"/>
<stop offset="1" stop-color="#FE1B60"/>
</linearGradient>
<linearGradient id="paint5_linear_1431_22017" x1="10.5685" y1="49.202" x2="13.9319" y2="49.202" gradientUnits="userSpaceOnUse">
<stop stop-color="#F3881E"/>
<stop offset="1" stop-color="#FD4540"/>
</linearGradient>
<linearGradient id="paint6_linear_1431_22017" x1="11.2345" y1="49.1983" x2="13.3182" y2="49.1983" gradientUnits="userSpaceOnUse">
<stop stop-color="#FE5961"/>
<stop offset="1" stop-color="#FE1B60"/>
</linearGradient>
<linearGradient id="paint7_linear_1431_22017" x1="14.922" y1="49.6222" x2="18.2852" y2="49.6222" gradientUnits="userSpaceOnUse">
<stop stop-color="#F3881E"/>
<stop offset="1" stop-color="#FD4540"/>
</linearGradient>
<linearGradient id="paint8_linear_1431_22017" x1="15.5898" y1="49.6197" x2="17.6736" y2="49.6197" gradientUnits="userSpaceOnUse">
<stop stop-color="#FE5961"/>
<stop offset="1" stop-color="#FE1B60"/>
</linearGradient>
<linearGradient id="paint9_linear_1431_22017" x1="10.1503" y1="40.1461" x2="24.9768" y2="40.1461" gradientUnits="userSpaceOnUse">
<stop stop-color="#34395D"/>
<stop offset="1" stop-color="#34393F"/>
</linearGradient>
</defs>
</svg>
