<svg width="90" height="134" viewBox="0 0 90 134" fill="none" xmlns="http://www.w3.org/2000/svg">
<path d="M53.31 95.304L53.4112 94.926C58.1459 77.2409 69.8117 26.7624 72.1047 16.8127L72.3715 15.6475C72.7174 14.1648 72.1269 12.6202 70.8804 11.7463C69.6317 10.8699 67.9802 10.8435 66.7038 11.674C65.3367 12.5637 63.0998 14.7225 56.028 24.4411C41.3753 44.566 16.2132 83.3009 15.9606 83.6898C15.158 84.9268 15.1589 86.5207 15.9636 87.7562C16.7678 88.9915 18.225 89.6375 19.6812 89.4035C23.257 88.8292 25.5486 92.5001 25.6282 92.6293C25.9967 93.2583 26.5244 93.7416 27.1312 94.055L24.4885 99.9757C24.4734 100.007 24.4586 100.039 24.4442 100.071L24.2407 100.527C23.5054 100.925 22.8916 101.559 22.5257 102.378L18.0359 112.437C16.2041 116.541 16.8745 121.386 19.7435 124.778C20.7255 125.94 21.9127 126.877 23.251 127.554C23.3328 127.596 23.4151 127.635 23.499 127.672C23.5898 127.715 23.6809 127.757 23.7722 127.798C23.9139 127.861 24.0565 127.921 24.2007 127.979C24.3092 128.022 24.4182 128.065 24.5181 128.101C24.851 128.223 25.1532 128.321 25.4702 128.407C25.5256 128.422 25.5803 128.435 25.5938 128.438C25.8746 128.51 26.1598 128.572 26.451 128.623C26.5563 128.643 26.661 128.66 26.7484 128.673C27.0938 128.726 27.4123 128.761 27.7157 128.78C27.7814 128.785 27.8467 128.787 27.9154 128.79C28.1896 128.802 28.462 128.805 28.7297 128.798C28.8227 128.796 28.9165 128.793 29.0196 128.788C29.3601 128.77 29.6699 128.744 29.9641 128.705C30.0382 128.695 30.1125 128.683 30.1496 128.676C30.417 128.635 30.6829 128.585 30.9481 128.527C31.037 128.507 31.1267 128.487 31.2324 128.461C31.5511 128.381 31.8408 128.297 32.13 128.201C32.2094 128.174 32.2878 128.145 32.3373 128.124C32.5727 128.04 32.8046 127.949 33.0345 127.85C33.0373 127.848 33.0847 127.827 33.0876 127.826C33.1684 127.791 33.2488 127.755 33.3378 127.714C33.6257 127.579 33.8859 127.445 34.1446 127.299C34.2222 127.255 34.2992 127.208 34.3945 127.149L34.4397 127.122C34.5393 127.064 34.6378 127.004 34.735 126.942C34.8144 126.89 34.8915 126.836 34.9656 126.78C36.5902 125.668 37.8999 124.168 38.7694 122.42C38.845 122.28 38.9162 122.136 38.9819 121.989L41.2684 116.866C41.9438 115.353 41.9783 113.603 41.3625 112.064C40.7376 110.502 39.5338 109.283 37.9788 108.65C36.3998 108.002 34.6758 108.084 33.1897 108.739L33.7847 107.406C34.1507 106.586 34.2125 105.705 34.0179 104.893L36.9055 98.4236C36.9571 98.4483 37.0095 98.4711 37.0641 98.4928C37.7289 98.7655 38.4713 98.8458 39.2032 98.7019C40.8394 98.3784 42.2032 98.4294 43.1468 98.8484C43.1487 98.8492 43.15 98.8498 43.1518 98.8506C44.156 99.2988 44.5201 100.113 44.6062 100.345C44.9123 101.93 46.1834 103.028 47.7921 103.224C49.251 103.402 50.6417 102.614 51.3948 101.369C51.5253 101.157 51.6364 100.93 51.7249 100.689C52.0785 99.7164 52.5824 98.0079 53.31 95.304Z" fill="#0082A1"/>
<path d="M52.7492 97.5124C53.1039 96.5407 53.6078 94.8321 54.3354 92.1282L54.4366 91.7502C59.1713 74.0652 70.8371 23.5866 73.1301 13.6369L73.3969 12.4717C73.7428 10.989 73.1523 9.44446 71.9062 8.57076C70.6575 7.69428 69.0056 7.66768 67.7298 8.49795C66.3627 9.38766 64.1258 11.5465 57.054 21.265C42.4007 41.3902 17.2386 80.1251 16.986 80.514C16.1834 81.751 16.1845 83.3445 16.989 84.5804C17.7932 85.8157 19.2504 86.4617 20.7066 86.2278C24.2824 85.6535 26.574 89.3243 26.6536 89.4535C27.0221 90.0825 27.5497 90.5658 28.1566 90.8792L25.5139 96.8C25.4988 96.8313 25.4839 96.8634 25.4696 96.8956L25.266 97.3516C24.5312 97.7496 23.9169 98.3828 23.5511 99.2025L19.0613 109.262C17.2295 113.366 17.8999 118.21 20.7688 121.602C21.7508 122.764 22.9381 123.701 24.2764 124.378C24.3582 124.421 24.4405 124.46 24.5244 124.496C24.6151 124.539 24.7063 124.582 24.7976 124.622C24.9393 124.685 25.0819 124.745 25.2258 124.804C25.3344 124.847 25.4435 124.889 25.5433 124.926C25.8762 125.048 26.1783 125.145 26.4954 125.232C26.551 125.246 26.6055 125.26 26.6189 125.263C26.8997 125.335 27.1849 125.396 27.4762 125.448C27.5814 125.467 27.6862 125.485 27.7736 125.498C28.1187 125.551 28.4375 125.586 28.7409 125.605C28.8066 125.609 28.8719 125.612 28.9406 125.614C29.2148 125.627 29.4871 125.629 29.7549 125.623C29.8478 125.62 29.9417 125.618 30.0447 125.613C30.3853 125.595 30.6951 125.568 30.9893 125.529C31.0634 125.519 31.1377 125.508 31.1748 125.5C31.4422 125.46 31.708 125.41 31.9733 125.351C32.0621 125.332 32.1519 125.311 32.2576 125.285C32.5762 125.206 32.866 125.122 33.1552 125.025C33.2346 124.999 33.313 124.97 33.3624 124.949C33.5978 124.865 33.8298 124.773 34.0597 124.674C34.0625 124.673 34.1099 124.652 34.1127 124.651C34.1936 124.616 34.2739 124.58 34.363 124.539C34.6509 124.404 34.9111 124.27 35.1698 124.124C35.2473 124.079 35.3243 124.032 35.4197 123.974L35.4648 123.947C35.5645 123.889 35.6629 123.829 35.7601 123.766C35.8396 123.715 35.9167 123.661 35.9908 123.604C37.6153 122.493 38.9251 120.992 39.7946 119.244C39.8702 119.104 39.9414 118.961 40.007 118.814L42.2936 113.691C42.969 112.178 43.0035 110.427 42.3877 108.888C41.7628 107.327 40.5592 106.108 39.004 105.475C37.4249 104.826 35.7009 104.909 34.2149 105.563L34.8096 104.231C35.1757 103.411 35.2375 102.53 35.0429 101.718L37.9305 95.2487C37.9821 95.2734 38.035 95.2965 38.0891 95.3179C38.7538 95.5906 39.4963 95.6709 40.2282 95.5271C41.8644 95.2035 43.2282 95.2545 44.1718 95.6735C44.1736 95.6744 44.175 95.675 44.1768 95.6758C45.181 96.124 45.5451 96.9384 45.6311 97.1702C45.9373 98.755 47.2084 99.8533 48.817 100.049C50.276 100.227 51.6666 99.4387 52.4197 98.1943C52.5495 97.9805 52.6607 97.7534 52.7492 97.5124Z" fill="white"/>
<path d="M26.6455 120.491C23.1376 118.925 21.5573 114.797 23.123 111.289L35.4968 83.5659C35.862 82.7475 36.8217 82.3801 37.6401 82.7454C38.4585 83.1107 38.8258 84.0704 38.4606 84.8887L26.0868 112.612C25.2504 114.485 26.0945 116.69 27.9683 117.527C29.8422 118.363 32.0472 117.519 32.8836 115.645L35.1701 110.522C35.5354 109.704 36.4951 109.337 37.3135 109.702C38.1318 110.067 38.4992 111.027 38.1339 111.845L35.8474 116.968C34.2822 120.476 30.1538 122.057 26.6455 120.491Z" fill="#C2C2C2"/>
<path d="M38.8778 112.175C39.4358 110.925 38.8537 109.454 37.578 108.93C36.3449 108.424 34.9333 109.067 34.3901 110.284L32.1864 115.221C31.5836 116.572 30.0776 117.344 28.6614 116.919C26.9482 116.403 26.1247 114.522 26.8302 112.941L31.3943 102.716C31.4401 102.613 31.3938 102.492 31.2912 102.446L27.2175 100.628C27.1148 100.582 26.994 100.628 26.9481 100.731L22.4594 110.788C20.7559 114.605 22.2405 119.18 25.971 121.066C29.8828 123.043 34.6001 121.391 36.4779 117.52C36.5191 117.449 36.5565 117.375 36.5908 117.298L38.8778 112.175Z" fill="#8C0000"/>
<path d="M31.831 99.7428L28.8672 98.4199L27.7726 100.872L30.7364 102.195L31.831 99.7428Z" fill="#969696"/>
<path d="M36.6338 88.9841L35.6415 91.2071C34.812 90.557 33.8395 89.9584 32.7967 89.6177L33.789 87.3946C34.8318 87.7354 35.8042 88.3339 36.6338 88.9841Z" fill="#969696"/>
<path d="M33.7231 120.642C31.4878 122.097 28.5521 122.373 25.9719 121.065C22.2404 119.182 20.7557 114.605 22.4588 110.789L26.9485 100.73C26.9931 100.63 27.1166 100.583 27.2202 100.629L29.1394 101.486L25.5063 109.626C23.803 113.442 25.284 118.017 29.0156 119.901C30.5348 120.667 32.1734 120.887 33.7231 120.642Z" fill="#700000"/>
<path d="M37.4641 110.929C37.6117 111.558 37.5874 112.175 37.5118 112.791C37.4262 113.405 37.2473 114.006 37.0019 114.581C36.7558 115.157 36.4228 115.703 36.0263 116.195C35.6232 116.683 35.1252 117.1 34.5716 117.391C34.4706 117.444 34.3456 117.405 34.2921 117.304C34.2552 117.233 34.2629 117.151 34.3057 117.089L34.3147 117.077C34.653 116.593 34.9703 116.143 35.2299 115.65C35.4866 115.157 35.7207 114.66 35.916 114.138C36.1116 113.617 36.2862 113.086 36.4688 112.549C36.6573 112.014 36.8294 111.461 37.0588 110.91L37.0644 110.896C37.1091 110.789 37.2325 110.738 37.34 110.783C37.4046 110.81 37.4487 110.866 37.4641 110.929Z" fill="#AB0000"/>
<path d="M49.2401 96.2317C49.2401 96.2317 47.7818 90.2315 39.4993 91.866C39.4993 91.866 34.6695 85.2672 29.8668 87.5666C29.8668 87.5666 26.3336 81.5466 20.1117 82.5459C20.1117 82.5459 45.3018 43.7385 60.0658 23.4618L60.0881 23.4314C64.6854 17.113 68.2706 12.5949 69.761 11.6251C69.761 11.6251 69.6648 12.0397 69.4898 12.8101C67.2506 22.5235 51.9321 88.8668 49.2401 96.2317Z" fill="#FFB30F"/>
<path d="M69.7606 11.6249L29.867 87.5662C29.867 87.5662 26.3338 81.5461 20.1119 82.5455C20.1119 82.5455 45.302 43.7381 60.066 23.4613L60.0883 23.431C64.6856 17.1126 68.2701 12.5947 69.7606 11.6249Z" fill="#8C0000"/>
<path d="M69.7606 11.6249L66.1011 18.5891C65.5783 19.293 65.0416 20.0267 64.4903 20.7849L64.4664 20.8189C54.3616 34.6959 39.3701 57.2588 30.9165 70.1147C28.302 74.0907 28.9557 79.3337 32.3853 82.6318C32.402 82.648 32.4185 82.6635 32.4348 82.6795L29.8668 87.5667C29.8668 87.5667 26.3336 81.5466 20.1117 82.546C20.1117 82.546 45.3018 43.7385 60.0658 23.4618L60.0881 23.4314C64.6856 17.1126 68.2701 12.5947 69.7606 11.6249Z" fill="#700000"/>
<path d="M49.2418 96.2323C49.2418 96.2323 47.7835 90.2321 39.5005 91.8665L69.7598 11.625C67.5214 21.3377 51.9337 88.8674 49.2418 96.2323Z" fill="#8C0000"/>
<path d="M49.2395 96.2324C49.2395 96.2324 47.7812 90.2322 39.4988 91.8667L41.7209 85.9718C41.7788 85.9726 41.8359 85.9741 41.893 85.9756C46.5983 86.1189 50.7782 83.0137 51.9304 78.4494C55.4939 64.3377 60.8823 41.4666 64.731 24.9623L69.7598 11.625C67.521 21.3386 51.9315 88.8675 49.2395 96.2324Z" fill="#700000"/>
</svg>
