<svg width="48" height="41" viewBox="0 0 48 41" fill="none" xmlns="http://www.w3.org/2000/svg">
<path d="M45.4019 24.5828C44.8983 22.5025 43.1562 21.1108 40.4949 20.5886C40.4384 19.7564 40.2711 18.8256 39.9892 17.7616C39.5729 16.1897 38.9619 14.526 38.3713 12.9171C37.707 11.1094 37.0205 9.23997 36.7874 7.91236C36.7708 7.8182 36.7504 7.72795 36.7218 7.60912C36.7074 7.54173 36.692 7.47434 36.6746 7.40905C36.6484 7.31249 36.6186 7.21952 36.5807 7.10671C36.5581 7.03691 36.5347 6.96712 36.513 6.91056C36.4778 6.8164 36.439 6.72464 36.3987 6.63439L34.239 7.59227L36.383 6.59889C36.3563 6.53782 36.3286 6.47765 36.2961 6.41177C36.2528 6.32483 36.2065 6.23999 36.1631 6.16387C36.1267 6.09949 36.0897 6.03632 36.0452 5.96503C35.9914 5.87899 35.9354 5.79444 35.89 5.73097C35.8448 5.66629 35.7973 5.60281 35.7522 5.54414C35.6923 5.46623 35.6312 5.39012 35.5774 5.32815C35.5314 5.27399 35.4835 5.22195 35.4279 5.16208C35.4255 5.15937 35.4041 5.13681 35.4017 5.1344C35.3467 5.07574 35.291 5.01737 35.2438 4.97194C35.1893 4.9187 35.1325 4.86696 35.0524 4.79626C34.9938 4.74331 34.9342 4.69096 34.8822 4.64824C34.8277 4.60342 34.7714 4.5604 34.6962 4.50475C34.5675 4.40818 34.4345 4.31551 34.2853 4.22045C34.2311 4.18495 34.1767 4.15035 34.1292 4.12267C34.0603 4.08176 33.9899 4.04295 33.8945 3.9915C33.8379 3.96052 33.7814 3.92984 33.7269 3.90246C33.6607 3.86877 33.5928 3.83688 33.5004 3.79416C33.4968 3.79266 33.4706 3.78062 33.4667 3.77881L33.3175 3.71203C33.2381 3.67833 33.1574 3.64554 33.081 3.61576C33.0552 3.60553 33.0296 3.5959 33.0034 3.58597C32.8509 3.43856 32.6686 3.30048 32.4505 3.18405C31.9288 2.90728 31.2456 2.7337 30.1665 2.60343C29.1779 2.4843 28.0477 2.42895 27.4655 2.40669C27.038 2.38924 26.6265 2.46745 26.2342 2.63833C26.2225 2.64344 26.211 2.64856 26.1993 2.65367C26.1671 2.66841 26.1337 2.68436 26.1012 2.7015C25.9677 2.76799 25.8395 2.84531 25.7192 2.93135C25.6852 2.95602 25.6518 2.98128 25.619 3.00746C25.6094 3.01528 25.5997 3.0231 25.5898 3.03123C25.5507 3.06282 25.5122 3.09591 25.4749 3.1296C24.3037 3.24302 23.1208 3.23098 21.9641 3.0929C21.9605 3.09259 21.9343 3.08928 21.931 3.08898C21.9114 3.08658 21.8913 3.08448 21.8717 3.08207C21.8483 3.06222 21.8248 3.04236 21.8004 3.0231C21.7652 2.99422 21.7288 2.96625 21.6936 2.94068C21.5697 2.85072 21.4373 2.7704 21.2992 2.70181C21.2568 2.67985 21.2135 2.65939 21.1702 2.64074C20.783 2.47136 20.354 2.38893 19.9388 2.40728C19.3522 2.42985 18.2201 2.4852 17.2337 2.60433C16.1552 2.73399 15.4716 2.90728 14.9404 3.18947C14.6028 3.37058 14.3498 3.60493 14.1591 3.85072C12.419 4.69578 11.3068 6.11002 10.9894 7.91416C10.7563 9.24057 10.0701 11.1085 9.40641 12.9156C8.39919 15.6578 7.42988 18.2971 7.27946 20.5988C4.64591 21.1292 2.91969 22.5169 2.41999 24.5822C2.30958 25.0377 2.26055 25.4986 2.27228 25.9525C0.841182 27.7771 0.228971 29.516 0.453398 31.1228C0.629088 32.3815 1.30929 33.4669 2.42029 34.2618C3.68834 35.1691 5.13477 35.8568 6.54812 36.2392C6.74637 36.6131 6.98344 36.9567 7.2581 37.2668C7.98102 38.0821 10.176 40.5619 23.8883 40.2758C24.6289 40.2912 25.3356 40.2987 26.0104 40.2987C37.8304 40.2987 39.8343 38.0382 40.5178 37.2671C40.7894 36.9609 41.0238 36.6224 41.2206 36.2536C42.6502 35.8746 44.1149 35.1823 45.401 34.2621C46.512 33.4672 47.1922 32.3818 47.3679 31.1231C47.5924 29.5163 46.9801 27.7771 45.5491 25.9531C45.5611 25.4983 45.512 25.038 45.4019 24.5828Z" fill="#0082A1"/>
<path d="M45.5491 23.8465C45.5611 23.3928 45.512 22.9325 45.4019 22.4771C44.8983 20.3967 43.1562 19.0051 40.4949 18.4828C40.4384 17.6507 40.2711 16.7199 39.9892 15.6558C39.5729 14.0839 38.9619 12.4203 38.3713 10.8114C37.707 9.00363 37.0205 7.13421 36.7874 5.8066C36.7708 5.71244 36.7504 5.62219 36.7218 5.50335C36.7074 5.43597 36.692 5.36857 36.6743 5.30329C36.6481 5.20672 36.6183 5.11376 36.5804 5.00095C36.5578 4.93115 36.5344 4.86135 36.5127 4.8048C36.4775 4.71063 36.4387 4.61888 36.3984 4.52863L34.2387 5.4868L36.3827 4.49343C36.356 4.43235 36.3283 4.37219 36.2958 4.30631C36.2525 4.21937 36.2062 4.13453 36.1628 4.05842C36.1264 3.99404 36.0894 3.93086 36.0449 3.85956C35.9911 3.77352 35.9351 3.68898 35.8897 3.62551C35.8445 3.56083 35.797 3.49705 35.7519 3.43869C35.692 3.36077 35.6309 3.28465 35.5771 3.22268C35.5311 3.16853 35.4832 3.11649 35.4276 3.05662C35.4252 3.05391 35.4038 3.03135 35.4014 3.02894C35.3464 2.97028 35.2907 2.91191 35.2435 2.86648C35.189 2.81324 35.1322 2.7615 35.0521 2.6908C34.9935 2.63785 34.9339 2.5855 34.8816 2.54278C34.8271 2.49796 34.7708 2.45493 34.6956 2.39928C34.5672 2.30271 34.4339 2.21006 34.2847 2.11499C34.2305 2.07949 34.1761 2.04489 34.1289 2.01721C34.06 1.9763 33.9896 1.93749 33.8942 1.88605C33.8376 1.85506 33.7811 1.82438 33.7266 1.797C33.6604 1.76331 33.5925 1.73141 33.5001 1.68869C33.4965 1.68719 33.4703 1.67516 33.4664 1.67335L33.3172 1.60657C33.2378 1.57287 33.1571 1.54008 33.0807 1.5103C33.0549 1.50007 33.0293 1.49044 33.0031 1.48051C32.8506 1.3331 32.6683 1.19502 32.4502 1.07859C31.9282 0.80182 31.2453 0.628237 30.1662 0.497973C29.1776 0.378841 28.0474 0.323479 27.4652 0.301217C27.0377 0.283768 26.6262 0.361993 26.2339 0.53287C26.2222 0.537984 26.2107 0.543097 26.199 0.548211C26.1668 0.562952 26.1334 0.578894 26.1009 0.595741C25.9674 0.662227 25.8392 0.739545 25.7189 0.825585C25.6849 0.850254 25.6515 0.875522 25.6187 0.901695C25.6091 0.909517 25.5994 0.917342 25.5895 0.925464C25.5504 0.957053 25.5119 0.990144 25.4746 1.02384C24.3034 1.13725 23.1205 1.12522 21.9638 0.987133C21.9602 0.986832 21.934 0.983522 21.9307 0.983221C21.9111 0.980815 21.891 0.978715 21.8714 0.976308C21.848 0.956453 21.8245 0.936593 21.8001 0.917339C21.7649 0.888459 21.7285 0.860484 21.6933 0.834913C21.5694 0.744962 21.437 0.664635 21.2989 0.596044C21.2565 0.574083 21.2132 0.553625 21.1702 0.534972C20.7827 0.365299 20.354 0.282868 19.9388 0.30152C19.3522 0.324083 18.2201 0.379437 17.2337 0.49857C16.1552 0.628232 15.4716 0.801518 14.9404 1.08371C14.6028 1.26481 14.3501 1.49917 14.1591 1.74495C12.419 2.59001 11.3068 4.00426 10.9894 5.8087C10.7563 7.13511 10.0701 9.00302 9.40641 10.8102C8.39919 13.5523 7.42988 16.1916 7.27946 18.4933C4.64591 19.0237 2.91969 20.4115 2.41999 22.4768C2.30958 22.9319 2.26055 23.3931 2.27228 23.8471C0.841182 25.6717 0.228971 27.4105 0.453398 29.0173C0.629088 30.276 1.30929 31.3615 2.42029 32.1563C3.68834 33.0636 5.13477 33.7514 6.54812 34.1337C6.74637 34.508 6.98344 34.8512 7.2581 35.1614C7.98102 35.9767 10.176 38.4565 23.8883 38.1704C24.6289 38.1857 25.3356 38.1933 26.0104 38.1933C37.8304 38.1933 39.8343 35.933 40.5178 35.1617C40.7894 34.8557 41.0238 34.517 41.2206 34.1482C42.6502 33.7691 44.1149 33.0769 45.401 32.1566C46.512 31.3615 47.1922 30.276 47.3679 29.0176C47.5924 27.4093 46.9804 25.6705 45.5491 23.8465Z" fill="white"/>
<path d="M5.33771 23.9835C5.33771 23.9835 0.800438 28.0863 3.79681 30.2304C6.79318 32.3742 10.4974 32.6991 10.7655 31.1146C11.0335 29.5298 13.2242 21.4065 5.33771 23.9835Z" fill="#A63F00"/>
<path d="M10.9157 20.6532C10.9157 20.6532 5.42631 20.0982 4.71693 23.0295C4.00755 25.9609 7.95969 27.6658 10.0063 25.8749C12.0529 24.084 10.9157 20.6532 10.9157 20.6532Z" fill="#A63F00"/>
<path d="M10.3249 25.5559C10.136 25.9834 9.86045 26.3856 9.46935 26.728C7.76419 28.2201 4.73624 27.2845 4.18359 25.2361C4.39238 24.9744 4.59664 24.7418 4.77384 24.5508C5.4417 26.4825 8.34993 27.3251 10.0073 25.8742C10.1231 25.7728 10.229 25.6663 10.3249 25.5559Z" fill="#943600"/>
<path d="M5.11479 23.1604C5.22249 22.7178 5.47099 22.367 5.7637 22.0656C6.05823 21.7633 6.42465 21.5379 6.81394 21.3604C7.20683 21.188 7.63824 21.0843 8.07205 21.0692C8.50767 21.0575 8.94509 21.1664 9.30911 21.3755C9.33107 21.3881 9.33859 21.4161 9.32595 21.4383C9.31903 21.4504 9.3076 21.4579 9.29497 21.4606L9.29136 21.4612C8.88071 21.5415 8.52572 21.617 8.18456 21.7416C7.84612 21.8682 7.52573 22.0111 7.21045 22.1796C6.89577 22.3511 6.59553 22.5472 6.26611 22.7217C5.93759 22.8998 5.59674 23.074 5.18067 23.2169L5.17767 23.2178C5.1521 23.2265 5.12442 23.213 5.11539 23.1874C5.11269 23.1787 5.11269 23.1691 5.11479 23.1604Z" fill="#B34A02"/>
<path d="M4.21455 26.4739C4.0181 26.9186 3.81623 27.3419 3.70643 27.7591C3.64837 27.9634 3.61407 28.1692 3.62671 28.3473C3.64084 28.5296 3.68808 28.6662 3.78615 28.8163C4.02742 29.1487 4.36888 29.4471 4.72507 29.7359C5.08548 30.0223 5.47176 30.2928 5.86285 30.5786L5.86436 30.5798C5.88421 30.5942 5.88872 30.6222 5.87398 30.6424C5.86375 30.6565 5.84661 30.6628 5.83066 30.6601C5.3421 30.5792 4.88001 30.4074 4.43867 30.1785C4.21876 30.0617 4.00306 29.9324 3.803 29.7717C3.60023 29.6147 3.4077 29.4369 3.24404 29.2173C3.06053 28.9826 2.94771 28.6517 2.95764 28.3557C2.95764 28.0545 3.05631 27.7919 3.16191 27.5518C3.39536 27.0783 3.732 26.6975 4.14926 26.4159C4.16972 26.402 4.1977 26.4074 4.21184 26.4279C4.22087 26.4411 4.22177 26.4574 4.21575 26.4709L4.21455 26.4739Z" fill="#B34A02"/>
<path d="M42.486 23.9835C42.486 23.9835 47.0233 28.0863 44.0269 30.2304C41.0305 32.3742 37.3263 32.6991 37.0582 31.1146C36.7902 29.5298 34.5992 21.4065 42.486 23.9835Z" fill="#A63F00"/>
<path d="M36.9067 20.6532C36.9067 20.6532 42.3961 20.0982 43.1058 23.0295C43.8152 25.9609 39.863 27.6658 37.8164 25.8749C35.7698 24.0843 36.9067 20.6532 36.9067 20.6532Z" fill="#A63F00"/>
<path d="M37.498 25.5559C37.687 25.9834 37.9625 26.3856 38.3536 26.728C40.0588 28.2201 43.0868 27.2845 43.6394 25.2361C43.4306 24.9744 43.2263 24.7418 43.0491 24.5508C42.3813 26.4825 39.4731 27.3251 37.8157 25.8742C37.6999 25.7728 37.594 25.6663 37.498 25.5559Z" fill="#943600"/>
<path d="M42.6413 23.2166C42.2252 23.0737 41.8844 22.8995 41.5558 22.7214C41.2264 22.5469 40.9262 22.3508 40.6115 22.1793C40.2962 22.0108 39.9758 21.8679 39.6374 21.7413C39.2965 21.6167 38.9412 21.5412 38.5306 21.4609L38.5273 21.4603C38.5023 21.4555 38.4861 21.4314 38.4912 21.4065C38.4939 21.3929 38.5023 21.3818 38.5134 21.3755C38.8775 21.1667 39.3149 21.0575 39.7505 21.0692C40.1843 21.0846 40.6157 21.1881 41.0086 21.3604C41.3979 21.5379 41.7643 21.763 42.0588 22.0656C42.3516 22.367 42.6001 22.7175 42.7078 23.1604C42.7141 23.1865 42.6981 23.213 42.6719 23.2193C42.6626 23.2217 42.653 23.2211 42.6446 23.2181L42.6413 23.2166Z" fill="#B34A02"/>
<path d="M43.673 26.416C44.0899 26.6973 44.4269 27.0785 44.6603 27.552C44.7659 27.7921 44.8646 28.0547 44.8646 28.3558C44.8745 28.6519 44.7617 28.9828 44.5782 29.2175C44.4145 29.4371 44.2223 29.6149 44.0192 29.7719C43.8192 29.9325 43.6035 30.0619 43.3835 30.1786C42.9422 30.4073 42.4801 30.5794 41.9916 30.6603C41.9672 30.6642 41.9443 30.6479 41.9401 30.6236C41.9371 30.6064 41.9446 30.5899 41.9579 30.5803L41.9594 30.5791C42.3502 30.2933 42.7367 30.0228 43.0971 29.7364C43.4533 29.4479 43.7948 29.1495 44.0361 28.8167C44.1341 28.6663 44.1814 28.53 44.1955 28.3477C44.2078 28.1696 44.1738 27.9641 44.1158 27.7596C44.006 27.3426 43.8041 26.919 43.6077 26.4744L43.6065 26.4714C43.5965 26.4485 43.6068 26.422 43.6293 26.4121C43.6441 26.4055 43.6606 26.4076 43.673 26.416Z" fill="#B34A02"/>
<path d="M34.2912 16.9835C34.2912 16.9835 29.2187 16.7955 23.8881 16.6953C18.5575 16.7955 13.4851 16.9835 13.4851 16.9835C13.4851 16.9835 5.61718 29.747 9.0266 33.5935C10.6355 35.4085 17.1983 35.9485 23.8881 35.8062C30.5779 35.9488 37.1407 35.4088 38.7496 33.5935C42.159 29.747 34.2912 16.9835 34.2912 16.9835Z" fill="#B54B02"/>
<path d="M37.5082 23.1677C37.4339 23.2549 37.3527 23.3365 37.2633 23.4126C35.7904 24.6671 29.6629 25.2125 23.8889 25.3061C18.1139 25.2125 11.9864 24.6671 10.5144 23.4126C10.4254 23.3365 10.3429 23.2552 10.2695 23.1677C10.4819 22.6833 10.7006 22.2104 10.9172 21.7568C12.8938 22.8223 18.542 23.2962 23.8889 23.3828C29.2339 23.2962 34.8822 22.8223 36.8605 21.7559C37.0771 22.2104 37.2949 22.6833 37.5082 23.1677Z" fill="#943600"/>
<path d="M34.459 6.21645C33.8964 3.01491 29.3483 2.9415 26.1272 3.32838C26.1197 3.32928 26.1122 3.33019 26.1047 3.33109C24.6308 3.50708 23.1435 3.50708 21.6697 3.33109C21.6622 3.33019 21.6546 3.32928 21.6471 3.32838C18.426 2.9412 13.8779 3.01491 13.3153 6.21645C12.4943 10.8885 7.65984 19.0608 10.5124 21.4898C11.985 22.7437 18.1122 23.2897 23.8869 23.3836C29.6615 23.29 35.7887 22.7437 37.2613 21.4898C40.1145 19.0608 35.28 10.8885 34.459 6.21645Z" fill="#B54B02"/>
<path d="M37.2626 21.4915C35.7884 22.7445 29.6612 23.2912 23.8884 23.3832C18.1135 23.2909 11.986 22.7445 10.5118 21.4915C10.2447 21.2632 10.0431 20.9816 9.90234 20.6585C12.581 21.2048 16.615 21.472 20.4883 21.5327C26.2635 21.4404 32.3908 20.8941 33.8625 19.6411C36.7159 17.21 31.8808 9.03794 31.0598 4.36559C30.9894 3.96488 30.8559 3.6126 30.6711 3.30664C32.5655 3.60537 34.144 4.41644 34.4596 6.21606C35.2809 10.8884 40.1136 19.0604 37.2626 21.4915Z" fill="#A34402"/>
<path d="M20.4859 3.12859C20.501 2.86746 20.288 2.65056 20.0268 2.66048C19.0085 2.69959 16.6956 2.82414 16.0554 3.16499C15.282 3.57714 14.124 24.108 17.1039 30.8844C17.3196 31.3748 18.0335 31.3164 18.1661 30.7975C18.6881 28.7557 19.6032 24.5523 19.7272 19.7795C19.8797 13.9113 20.3641 5.25282 20.4859 3.12859Z" fill="#C75E02"/>
<path d="M20.3757 2.81311C20.1838 6.30767 19.8486 12.7751 19.7274 17.4646C19.6035 22.2369 18.688 26.4405 18.1657 28.4805C18.1317 28.6189 18.0565 28.7233 17.9594 28.7961C18.3601 26.6541 18.7412 23.9195 18.8168 20.9664C18.9278 16.6897 19.2154 10.9313 19.4103 7.29954C19.5162 5.32753 17.7376 3.76316 15.8017 4.15275C15.7882 4.15546 15.775 4.15817 15.7617 4.16088C15.8613 3.56822 15.9609 3.21624 16.0556 3.1651C16.6967 2.82515 19.0087 2.70119 20.0288 2.66239C20.1669 2.65757 20.2933 2.71594 20.3757 2.81311Z" fill="#CF6202"/>
<path d="M20.4865 3.12869C20.3649 5.25292 19.8797 13.9111 19.7278 19.7796C19.6035 24.5527 18.6884 28.7561 18.1664 30.7973C18.0343 31.3165 17.3201 31.3752 17.1041 30.8848C15.5395 27.3259 15.1162 19.9739 15.1775 13.7336C15.2353 19.3888 15.7302 25.442 17.1041 28.568C17.3201 29.0584 18.0343 29 18.1664 28.4805C18.6884 26.4393 19.6035 22.236 19.7278 17.4628C19.8493 12.7736 20.1832 6.30345 20.3746 2.80859C20.4498 2.89253 20.4937 3.00534 20.4865 3.12869Z" fill="#B55602"/>
<path d="M20.5923 18.7122C20.5415 18.2955 20.2337 17.9535 19.8258 17.8614C19.0649 17.6899 17.0926 17.3446 15.2115 17.841C14.7837 17.9538 14.4819 18.3437 14.4774 18.7892C14.4687 19.6246 14.4729 21.1758 14.5999 22.1785C14.654 22.6051 14.9738 22.9462 15.395 23.0281C16.2039 23.1854 17.4067 23.3773 18.4539 23.3773C19.1146 23.3773 19.7132 23.3009 20.1119 23.0909C20.4199 22.9285 20.6191 22.6072 20.6308 22.2522C20.657 21.4965 20.7048 19.6388 20.5923 18.7122ZM19.5839 22.1818C19.0303 22.4321 17.4973 22.3644 15.6357 22.0058C15.5195 21.0476 15.5195 19.5103 15.5262 18.8428C16.0692 18.7044 16.6233 18.6454 17.1468 18.6337C17.0797 18.7856 17.0394 18.9742 17.0394 19.1794C17.0394 19.6803 17.2767 20.0864 17.5695 20.0864C17.8622 20.0864 18.0995 19.6803 18.0995 19.1794C18.0995 18.9833 18.0628 18.8021 18.0009 18.6538C18.6657 18.699 19.2229 18.8019 19.5556 18.8753C19.6537 19.7519 19.604 21.5801 19.5839 22.1818Z" fill="#FFB30F"/>
<path d="M20.6309 22.2458C20.6309 22.2482 20.6309 22.2482 20.6309 22.2506C20.6188 22.6053 20.4197 22.9281 20.1137 23.0908C19.713 23.2996 19.1155 23.3772 18.4549 23.3772C17.4083 23.3772 16.2037 23.1829 15.3951 23.0276C14.9751 22.9449 14.6544 22.6026 14.6008 22.1778C14.4721 21.1748 14.4697 19.623 14.4769 18.7876C14.4793 18.5349 14.5789 18.2993 14.7416 18.127C14.7392 18.1342 14.7392 18.139 14.7392 18.1465C14.7296 18.9819 14.7344 20.5337 14.8608 21.5367C14.9143 21.9618 15.2347 22.3041 15.6574 22.3865C16.466 22.5421 17.6682 22.7337 18.7148 22.7337C19.3755 22.7337 19.9753 22.6585 20.3737 22.4473C20.4729 22.3965 20.5605 22.3261 20.6309 22.2458Z" fill="#FF870F"/>
<path d="M17.5694 21.5334C17.7135 21.5334 17.8303 21.4166 17.8303 21.2725C17.8303 21.1285 17.7135 21.0117 17.5694 21.0117C17.4254 21.0117 17.3086 21.1285 17.3086 21.2725C17.3086 21.4166 17.4254 21.5334 17.5694 21.5334Z" fill="#8C4100"/>
<path d="M17.5694 24.6037C17.7135 24.6037 17.8303 24.4869 17.8303 24.3429C17.8303 24.1988 17.7135 24.082 17.5694 24.082C17.4254 24.082 17.3086 24.1988 17.3086 24.3429C17.3086 24.4869 17.4254 24.6037 17.5694 24.6037Z" fill="#8C4100"/>
<path d="M17.5694 27.674C17.7135 27.674 17.8303 27.5572 17.8303 27.4132C17.8303 27.2691 17.7135 27.1523 17.5694 27.1523C17.4254 27.1523 17.3086 27.2691 17.3086 27.4132C17.3086 27.5572 17.4254 27.674 17.5694 27.674Z" fill="#8C4100"/>
<path d="M26.9129 3.12859C26.8978 2.86746 27.1108 2.65056 27.3719 2.66048C28.3903 2.69959 30.7031 2.82414 31.3433 3.16499C32.1168 3.57714 33.2747 24.108 30.2949 30.8844C30.0792 31.3748 29.3653 31.3164 29.2326 30.7975C28.7107 28.7557 27.7955 24.5523 27.6716 19.7795C27.5194 13.9113 27.0347 5.25282 26.9129 3.12859Z" fill="#C75E02"/>
<path d="M27.0234 2.81311C27.2154 6.30767 27.5505 12.7751 27.6717 17.4646C27.7957 22.2369 28.7112 26.4405 29.2334 28.4805C29.2674 28.6189 29.3426 28.7233 29.4398 28.7961C29.0391 26.6541 28.6579 23.9195 28.5824 20.9664C28.4714 16.6897 28.1838 10.9313 27.9888 7.29954C27.8829 5.32753 29.6615 3.76316 31.5974 4.15275C31.6109 4.15546 31.6242 4.15817 31.6374 4.16088C31.5378 3.56822 31.4383 3.21624 31.3435 3.1651C30.7024 2.82515 28.3905 2.70119 27.3703 2.66239C27.2322 2.65757 27.1062 2.71594 27.0234 2.81311Z" fill="#CF6202"/>
<path d="M26.9128 3.12869C27.0344 5.25292 27.5196 13.9111 27.6715 19.7796C27.7958 24.5527 28.7109 28.7561 29.2329 30.7973C29.365 31.3165 30.0792 31.3752 30.2952 30.8848C31.8598 27.3259 32.2831 19.9739 32.2221 13.7336C32.1643 19.3888 31.6697 25.442 30.2952 28.568C30.0792 29.0584 29.365 29 29.2329 28.4805C28.7109 26.4393 27.7958 22.236 27.6715 17.4628C27.55 12.7736 27.2161 6.30345 27.0247 2.80859C26.9495 2.89253 26.9059 3.00534 26.9128 3.12869Z" fill="#B55602"/>
<path d="M26.7667 22.2522C26.7788 22.6069 26.9776 22.9285 27.2857 23.0909C27.6843 23.3009 28.283 23.3773 28.9436 23.3773C29.9908 23.3773 31.1936 23.1851 32.0026 23.0281C32.424 22.9462 32.7435 22.6048 32.7977 22.1785C32.9249 21.1758 32.9288 19.6246 32.9201 18.7892C32.9156 18.3437 32.6136 17.9538 32.1861 17.841C30.3049 17.3446 28.3323 17.6899 27.5718 17.8614C27.1638 17.9535 26.8561 18.2955 26.8052 18.7122C26.6933 19.6388 26.7412 21.4965 26.7667 22.2522ZM27.8428 18.8759C28.1756 18.8025 28.7327 18.6996 29.3976 18.6544C29.3356 18.8028 29.2989 18.9839 29.2989 19.18C29.2989 19.6809 29.5363 20.087 29.829 20.087C30.1217 20.087 30.3591 19.6809 30.3591 19.18C30.3591 18.9748 30.3188 18.7862 30.2517 18.6343C30.7748 18.6457 31.329 18.7047 31.8723 18.8434C31.8786 19.5109 31.8786 21.0479 31.7628 22.0064C29.9009 22.365 28.3678 22.4327 27.8146 22.1824C27.7941 21.5801 27.7442 19.7519 27.8428 18.8759Z" fill="#FFB30F"/>
<path d="M26.7676 22.2458C26.7676 22.2482 26.7676 22.2482 26.7676 22.2506C26.7796 22.6053 26.9788 22.9281 27.2847 23.0908C27.6854 23.2996 28.2829 23.3772 28.9433 23.3772C29.9899 23.3772 31.1944 23.1829 32.0034 23.0276C32.4237 22.9449 32.7441 22.6026 32.7976 22.1778C32.9264 21.1748 32.9288 19.623 32.9216 18.7876C32.9192 18.5349 32.8196 18.2993 32.6568 18.127C32.6592 18.1342 32.6592 18.139 32.6592 18.1465C32.6689 18.9819 32.664 20.5337 32.5377 21.5367C32.4841 21.9618 32.1637 22.3041 31.7411 22.3865C30.9324 22.5421 29.7303 22.7337 28.6836 22.7337C28.023 22.7337 27.4231 22.6585 27.0248 22.4473C26.9252 22.3965 26.838 22.3261 26.7676 22.2458Z" fill="#FF870F"/>
<path d="M29.8292 21.5334C29.9732 21.5334 30.09 21.4166 30.09 21.2725C30.09 21.1285 29.9732 21.0117 29.8292 21.0117C29.6851 21.0117 29.5684 21.1285 29.5684 21.2725C29.5684 21.4166 29.6851 21.5334 29.8292 21.5334Z" fill="#8C4100"/>
<path d="M29.8292 24.6037C29.9732 24.6037 30.09 24.4869 30.09 24.3429C30.09 24.1988 29.9732 24.082 29.8292 24.082C29.6851 24.082 29.5684 24.1988 29.5684 24.3429C29.5684 24.4869 29.6851 24.6037 29.8292 24.6037Z" fill="#8C4100"/>
<path d="M29.8292 27.674C29.9732 27.674 30.09 27.5572 30.09 27.4132C30.09 27.2691 29.9732 27.1523 29.8292 27.1523C29.6851 27.1523 29.5684 27.2691 29.5684 27.4132C29.5684 27.5572 29.6851 27.674 29.8292 27.674Z" fill="#8C4100"/>
<path d="M10.4376 26.489C10.4192 27.3662 10.4243 28.2083 10.5188 28.9968C10.6148 29.7838 10.7956 30.5166 11.1358 31.1243C11.4737 31.7323 11.9475 32.2326 12.5726 32.6628C13.1963 33.0954 13.9427 33.4465 14.7552 33.8463C14.8193 33.8773 14.8461 33.9543 14.8151 34.0181C14.7976 34.0542 14.764 34.0788 14.7279 34.0876C13.8262 34.2927 12.8684 34.2239 11.9487 33.8737C11.0293 33.5328 10.1855 32.794 9.72127 31.8686C9.24444 30.9447 9.13764 29.9167 9.24985 28.9835C9.36959 28.0449 9.67644 27.1634 10.2101 26.4047C10.2498 26.3482 10.3281 26.3346 10.3849 26.3743C10.4201 26.399 10.4388 26.4387 10.4382 26.4787L10.4376 26.489Z" fill="#C25002"/>
<path d="M36.9838 24.9576C37.6207 25.7449 38.109 26.6327 38.4781 27.5866C38.6613 28.064 38.8096 28.5607 38.8957 29.0794C38.9905 29.5959 39.0193 30.135 38.9604 30.6817C38.9053 31.2265 38.7453 31.7851 38.4474 32.277C38.1544 32.7695 37.7281 33.1825 37.2549 33.4659C36.7745 33.7376 36.2675 33.9319 35.7522 34.0156C35.498 34.0766 35.2369 34.0757 34.9839 34.1052C34.7278 34.1106 34.473 34.1022 34.2209 34.0866C34.1532 34.0824 34.1015 34.024 34.1057 33.9563C34.109 33.9037 34.1448 33.8609 34.1921 33.8462L34.1966 33.8447C35.1394 33.5556 36.0437 33.2295 36.7299 32.6958C37.424 32.1711 37.7946 31.4175 37.9113 30.5577C37.9673 30.1272 37.9538 29.6756 37.9125 29.219C37.8632 28.7629 37.7748 28.3014 37.665 27.8405C37.4411 26.919 37.1246 25.9985 36.7763 25.0839L36.7742 25.0782C36.7501 25.015 36.7817 24.9443 36.8449 24.9203C36.8957 24.9007 36.9514 24.9176 36.9838 24.9576Z" fill="#C25002"/>
</svg>
