<svg width="48" height="40" viewBox="0 0 48 40" fill="none" xmlns="http://www.w3.org/2000/svg">
<path d="M18.1098 28.9598C28.1116 35.0571 38.6651 35.9886 41.6817 31.0402C44.6984 26.0919 39.0358 17.1376 29.0341 11.0402C19.0323 4.94287 8.47884 4.01143 5.46219 8.95978C2.44554 13.9081 8.10808 22.8624 18.1098 28.9598Z" fill="#FFAE4B"/>
<path d="M23.1354 24.7519C29.517 28.6423 36.2507 29.2364 38.1756 26.079C40.1005 22.9215 36.4876 17.2081 30.106 13.3177C23.7244 9.42724 16.9906 8.83307 15.0657 11.9905C13.1408 15.148 16.7537 20.8615 23.1354 24.7519Z" fill="#F79237"/>
<path d="M18.1827 6.05078L15.1271 11.0627C13.4396 13.8307 16.6072 18.84 22.2021 22.2504C27.7969 25.6608 33.7006 26.1824 35.3875 23.4143L38.443 18.4024L18.1827 6.05078Z" fill="#F79237"/>
<path d="M25.257 17.2373C30.8514 20.6478 36.7544 21.1688 38.4417 18.401C40.129 15.6333 36.9617 10.6248 31.3673 7.21429C25.7729 3.80381 19.87 3.28279 18.1826 6.05057C16.4953 8.81835 19.6626 13.8268 25.257 17.2373Z" fill="#FFAE4B"/>
<path d="M23.6842 19.8184L22.2021 22.2496C27.797 25.6607 33.7007 26.1816 35.3875 23.4135L36.8696 20.9816C35.1828 23.7504 29.2791 23.2294 23.6842 19.8184Z" fill="#E23C2B"/>
<path d="M16.6095 8.63086L15.1274 11.0621C13.4399 13.8302 16.6075 18.8394 22.2023 22.2498L23.6844 19.8186C18.0896 16.4081 14.922 11.3989 16.6095 8.63086Z" fill="#F05A30"/>
</svg>
